<?xml version="1.0" encoding="UTF-8"?>
<svg id="Layer_1" xmlns="http://www.w3.org/2000/svg" xmlns:xlink="http://www.w3.org/1999/xlink" version="1.1" viewBox="0 0 348.1 276">
  <!-- Generator: Adobe Illustrator 29.2.1, SVG Export Plug-In . SVG Version: 2.1.0 Build 116)  -->
  <defs>
    <style>
      .st0 {
        fill: #ddd4ce;
      }

      .st1 {
        fill: #f9ece1;
      }

      .st2 {
        fill: #33302e;
      }

      .st3 {
        fill: #efaf6a;
      }
    </style>
  </defs>
  <path class="st3" d="M348.1,276H16.1c-8.9,0-16.1-8.1-16.1-18.1V-15.9c0-10,7.2-18.1,16.1-18.1h332v310Z"/>
  <path class="st1" d="M166.2,50c0-11-8.9-19.9-19.9-19.9H62.1c-14.8,0-26.8,12.7-26.8,28.3v58.1c0,11,8.9,19.9,19.9,19.9h91.1c11,0,19.9-8.9,19.9-19.9V50h0Z"/>
  <path class="st0" d="M293,136.4c11,0,19.9-8.9,19.9-19.9v-58.1c0-15.6-12-28.3-26.9-28.3h-85.9c-11,0-19.9,8.9-19.9,19.9v66.5c0,11,8.9,19.9,19.9,19.9h92.8Z"/>
  <path class="st0" d="M55.2,147c-11,0-19.9,8.9-19.9,19.9v49.3c0,15.6,12,28.3,26.8,28.3h84.1c11,0,19.9-8.9,19.9-19.9v-57.7c0-11-8.9-19.9-19.9-19.9H55.2Z"/>
  <path class="st1" d="M180.2,224.6c0,11,8.9,19.9,19.9,19.9h85.9c14.8,0,26.8-12.7,26.8-28.3v-49.3c0-11-8.9-19.9-19.9-19.9h-92.8c-11,0-19.9,8.9-19.9,19.9v57.7Z"/>
  <path class="st2" d="M80.6,64.9c0-6.4,1.8-11.4,5.3-14.8,3.5-3.5,8.6-5.2,15.2-5.2s11.3,1.7,14.7,5.1c3.4,3.4,5.1,8.4,5.1,14.9v1c0,3.2-.1,6.2-.4,9.1-.3,2.9-.8,5.5-1.6,7.9-.8,2.4-1.8,4.5-3,6.3-1.2,1.8-2.8,3.3-4.7,4.4l-3.5,1.9c-1.9,1.1-3.3,1.9-4.4,2.5-1,.6-1.8,1.2-2.3,1.6-.5.5-.8.9-.9,1.2-.1.4-.2.8-.2,1.3v.9h20.8v18.6h-40.3v-16.1c0-3.2.1-5.8.4-8,.3-2.2.8-4,1.5-5.5.7-1.5,1.6-2.8,2.8-4,1.2-1.1,2.7-2.2,4.6-3.2l2.9-1.6c2.1-1.2,3.7-2.1,4.9-2.9,1.2-.8,2-1.4,2.5-2.1.5-.6.9-1.2,1-1.9.1-.6.2-1.5.2-2.6v-10.4c0-.6,0-1-.2-1.3-.1-.3-.3-.4-.5-.4s-.4.1-.5.4c-.1.3-.2.7-.2,1.3v13.9h-19.5v-12.5Z"/>
  <path class="st2" d="M227.9,55.7c.9-2.5,2.1-4.6,3.8-6.3,1.7-1.7,3.8-2.9,6.2-3.8,2.5-.9,5.3-1.3,8.4-1.3s6.1.5,8.7,1.4c2.5.9,4.7,2.2,6.4,3.9,1.8,1.7,3.1,3.8,4,6.3.9,2.5,1.4,5.3,1.4,8.5v37.8c0,3.2-.5,6.1-1.4,8.6-.9,2.5-2.2,4.6-4,6.3-1.8,1.7-3.9,3-6.4,3.9-2.5.9-5.4,1.4-8.7,1.4s-6-.4-8.4-1.3c-2.5-.9-4.5-2.1-6.2-3.8-1.7-1.7-3-3.8-3.8-6.3-.9-2.5-1.3-5.4-1.3-8.7v-37.8c0-3.2.4-6.1,1.3-8.7ZM246.1,103.6c0,.3,0,.5,0,.8,0,.2,0,.4.1.5,0,.1.1.3.2.3.1,0,.2.1.3.1.1,0,.3,0,.3-.1s.1-.2.2-.3c0-.1,0-.3.1-.5,0-.2,0-.5,0-.8v-40.7c0-.4,0-.6,0-.9,0-.2,0-.4-.1-.5,0-.1,0-.2-.2-.3,0,0-.2-.1-.3-.1s-.2,0-.3.1c-.1,0-.2.2-.2.3,0,.1,0,.3-.1.5,0,.2,0,.5,0,.9v40.7Z"/>
  <path class="st2" d="M120.8,160.2v75.8h-19.5v-19.6h-20.8v-56.2h19.5v39.3h1.3v-39.3h19.5Z"/>
  <path class="st2" d="M226.3,167.7c.6-2.3,1.7-4.3,3.2-6s3.5-2.9,6-3.7c2.5-.8,5.6-1.2,9.4-1.2s7.1.4,9.7,1.3c2.6.9,4.8,2.1,6.4,3.8,1.6,1.7,2.8,3.6,3.5,6,.7,2.3,1.1,4.9,1.1,7.9v2.5c0,2.2-.3,4.3-.8,6.1-.5,1.8-1.3,3.4-2.2,4.7-.9,1.3-2,2.3-3.1,3-1.2.7-2.3,1-3.6,1v1.3c1.2,0,2.4.3,3.6,1,1.2.7,2.2,1.8,3.1,3.2.9,1.4,1.7,3.3,2.2,5.6s.8,5,.8,8.2v2.3c0,3.2-.4,6.1-1.1,8.6-.7,2.5-1.9,4.6-3.5,6.3-1.6,1.7-3.7,3-6.3,3.9-2.6.9-5.8,1.4-9.6,1.4s-6.9-.4-9.4-1.3c-2.5-.9-4.5-2.1-6.1-3.8-1.5-1.7-2.6-3.8-3.2-6.3-.6-2.5-1-5.4-1-8.7v-2.3c0-3,.2-5.6.7-7.8.4-2.2,1-4.1,1.8-5.6.8-1.5,1.7-2.7,2.8-3.4,1-.8,2.2-1.1,3.4-1.1v-1.3c-1.2,0-2.4-.4-3.5-1.1-1.1-.7-2-1.7-2.8-3-.8-1.3-1.4-2.9-1.8-4.7-.4-1.8-.7-3.8-.7-6.1v-2.5c0-3,.3-5.7,1-8.1ZM244.8,183.5c0,.3,0,.5,0,.8,0,.2,0,.4.1.5,0,.1.1.3.2.3.1,0,.2.1.3.1.1,0,.3,0,.3-.1,0,0,.1-.2.2-.3,0-.1,0-.3.1-.5,0-.2,0-.5,0-.8v-8.1c0-.4,0-.6,0-.9,0-.2,0-.4-.1-.5,0-.1,0-.2-.2-.3,0,0-.2-.1-.3-.1s-.2,0-.3.1c-.1,0-.2.2-.2.3,0,.1,0,.3-.1.5,0,.2,0,.5,0,.9v8.1ZM244.8,216.1c0,.3,0,.5,0,.8,0,.2,0,.4.1.5,0,.1.1.3.2.3.1,0,.2.1.3.1.1,0,.3,0,.3-.1s.1-.2.2-.3c0-.1,0-.3.1-.5,0-.2,0-.5,0-.8v-12.2c0-.6,0-1.1-.2-1.4-.1-.3-.3-.4-.5-.4s-.4.1-.5.4c-.1.3-.2.7-.2,1.4v12.2Z"/>
</svg>