<?xml version="1.0" encoding="UTF-8"?>
<svg id="Layer_1" xmlns="http://www.w3.org/2000/svg" version="1.1" viewBox="0 0 348.1 276">
  <!-- Generator: Adobe Illustrator 29.2.1, SVG Export Plug-In . SVG Version: 2.1.0 Build 116)  -->
  <defs>
    <style>
      .st0 {
        fill: #ddd4ce;
      }

      .st1 {
        fill: #f9ece1;
      }

      .st2 {
        fill: #33302e;
      }

      .st3 {
        fill: #efaf6a;
      }
    </style>
  </defs>
  <rect class="st3" x=".4" y="-33.1" width="348.1" height="309.5"/>
  <path class="st1" d="M296.2,177v-22.8c0-4.2-4-7.2-8.1-6-20.2,5.8-63.7,9.8-114.1,9.8s-95-4.1-114.9-10.1c-4-1.2-8.1,1.8-8.1,6v23.2c0,4.2,4,7.2,8.1,6,19.9-5.9,63.8-10.1,114.9-10.1s93.9,4,114.1,9.8c4,1.2,8.1-1.8,8.1-6Z"/>
  <path class="st1" d="M174.1,69.4c58.7,0,108.1,5.5,122.1,12.9-.2-20-4.1-36-37.3-36H101.4c-24.7-1.6-50.2.8-50.2,30.3v6.1c12.9-7.6,63-13.3,122.9-13.3Z"/>
  <path class="st1" d="M174.1,207.5c-51,0-95-4.1-114.9-10.1-4-1.2-8.1,1.8-8.1,6v6.2c0,20.8,16.7,37.7,37.3,37.7h170.5c20.6,0,37.3-16.9,37.3-37.7v-6c0-4.2-4-7.2-8.1-6-20.2,5.8-63.7,9.8-114.1,9.8Z"/>
  <path class="st1" d="M290.5,168.4H58.5c-3.6,0-6.6,2.9-6.6,6.6v4.5c0,3.6,2.9,6.6,6.6,6.6l73.3,7.4c24.4,2.5,49,2.6,73.5.4l85.2-7.8c3.6,0,6.6-2.9,6.6-6.6v-4.5c0-3.6-2.9-6.6-6.6-6.6Z"/>
  <g>
    <path class="st1" d="M296.2,127.5v-27.6c0-4.2-4-7.2-8.1-6-20.2,5.8-63.7,9.8-114.1,9.8s-95-4.1-114.9-10.1c-4-1.2-8.1,1.8-8.1,6v28c0,4.2,4,7.2,8.1,6,19.9-5.9,63.8-10.1,114.9-10.1s93.9,4,114.1,9.8c4,1.2,8.1-1.8,8.1-6Z"/>
    <path class="st1" d="M292,119.7H55.3c-2.3,0-4.2,1.9-4.2,4.2v9.2c0,2.3,1.9,4.2,4.2,4.2l75,6.6c22.2,2,44.6,2.1,66.9.5l94.9-7.1c2.3,0,4.2-1.9,4.2-4.2v-9.2c0-2.3-1.9-4.2-4.2-4.2Z"/>
  </g>
  <path class="st1" d="M287.1,65.4H60.2c-5,0-9.1,4.1-9.1,9.1v8.5l80.1,6.6c23.7,2,47.5,2.1,71.3.3l85.2-6.3c4.8-.4,10.8,1.8,8.4-9.1h0c0-5-4.1-9.1-9.1-9.1Z"/>
  <path class="st0" d="M279.5,61.8c0,3.7-48.1,6.8-107.4,6.8s-108-3.1-107.4-6.8c1.6-9.2,9.9-10.8,103-10.8,97.4,0,111.8-2.4,111.8,10.8Z"/>
  <circle class="st2" cx="233.5" cy="121.7" r="10.8"/>
  <circle class="st2" cx="264.7" cy="119.3" r="10.8"/>
  <circle class="st2" cx="233.5" cy="175.2" r="10.8"/>
  <circle class="st2" cx="264.7" cy="172.8" r="10.8"/>
  <circle class="st2" cx="231.2" cy="223.1" r="10.8"/>
  <circle class="st2" cx="262.3" cy="220.7" r="10.8"/>
</svg>