<?xml version="1.0" encoding="UTF-8"?>
<svg id="Layer_1" xmlns="http://www.w3.org/2000/svg" xmlns:xlink="http://www.w3.org/1999/xlink" version="1.1" viewBox="0 0 422.6 335">
  <!-- Generator: Adobe Illustrator 29.2.1, SVG Export Plug-In . SVG Version: 2.1.0 Build 116)  -->
  <defs>
    <style>
      .st0 {
        fill: #dedede;
      }

      .st1 {
        fill: #f9ece1;
      }

      .st2 {
        fill: #efaf6a;
      }
    </style>
  </defs>
  <path class="st2" d="M422.6,335H19.6c-10.8,0-19.6-9.7-19.6-21.7V-14.3c0-12,8.8-21.7,19.6-21.7h403v371Z"/>
  <g>
    <path class="st1" d="M212,269.2h-27.6c-22.8,0-41.3-18.5-41.3-41.3v-69.8c0-6.8,5.5-12.4,12.4-12.4h56.5v123.5h0Z"/>
    <path class="st1" d="M244.7,269.2h-27.6v-123.5h56.5c6.8,0,12.4,5.5,12.4,12.4v69.8c0,22.8-18.5,41.3-41.3,41.3Z"/>
    <path class="st1" d="M264,142.8h-100.1v-34.2c0-11.1,9-20.1,20.1-20.1h60c11.1,0,20.1,9,20.1,20.1v34.2h0Z"/>
    <path class="st1" d="M158.7,132.7h-15.3c-8,0-14.6-6.5-14.6-14.6v-3.6h29.9v18.2Z"/>
    <path class="st1" d="M143.1,110.6h-15.6v-59.8c0-8,6.5-14.6,14.6-14.6h1v74.3Z"/>
    <path class="st1" d="M269.2,131.4h15.3c8,0,14.6-6.5,14.6-14.6v-3.6h-29.9v18.2Z"/>
    <path class="st1" d="M284.8,109.5h15.6v-59.8c0-8-6.5-14.6-14.6-14.6h-1v74.3Z"/>
    <path class="st1" d="M291.3,200.3h1c8,0,14.6,6.5,14.6,14.6v61.9c0,8-6.5,14.6-14.6,14.6h-1v-91Z"/>
    <path class="st1" d="M139.2,200.3h-1c-8,0-14.6,6.5-14.6,14.6v61.9c0,8,6.5,14.6,14.6,14.6h1v-91Z"/>
    <path class="st0" d="M201.6,85h-15v-17.6c0-4.8,3.9-8.8,8.8-8.8h6.3v26.4Z"/>
    <path class="st0" d="M238.2,84.7h-15v-26.4h6.3c4.8,0,8.8,3.9,8.8,8.8v17.6h0Z"/>
  </g>
</svg>