<?xml version="1.0" encoding="UTF-8"?>
<svg id="Layer_1" xmlns="http://www.w3.org/2000/svg" xmlns:xlink="http://www.w3.org/1999/xlink" version="1.1" viewBox="0 0 389.8 309">
  <!-- Generator: Adobe Illustrator 29.2.1, SVG Export Plug-In . SVG Version: 2.1.0 Build 116)  -->
  <defs>
    <style>
      .st0 {
        fill: #ddd4ce;
      }

      .st1 {
        fill: #f9ece1;
      }

      .st2 {
        fill: #33302e;
      }

      .st3 {
        fill: #efaf6a;
      }
    </style>
  </defs>
  <path class="st3" d="M389.8,309H18.1c-10,0-18.1-10.8-18.1-24.1V-78.9c0-13.3,8.1-24.1,18.1-24.1h371.7v412Z"/>
  <path class="st1" d="M304,260.9H72c-13.5,0-24.4-10.9-24.4-24.4V88.1c0-13.5,10.9-24.4,24.4-24.4h232c13.5,0,24.4,10.9,24.4,24.4v148.4c0,13.5-10.9,24.4-24.4,24.4Z"/>
  <path class="st0" d="M90.2,94.7c-6.9,0-12.5,5.8-12.5,13v32.1c0,10.2,7.5,18.4,16.8,18.4h52.6c6.9,0,12.5-5.8,12.5-13v-37.5c0-7.2-5.6-13-12.5-13h-56.9Z"/>
  <g>
    <rect class="st2" x="81.6" y="206.5" width="210.9" height="14.6"/>
    <rect class="st0" x="81.6" y="206.5" width="10.7" height="14.6"/>
    <rect class="st0" x="99.1" y="206.5" width="10.7" height="14.6"/>
    <rect class="st0" x="117.6" y="206.5" width="10.7" height="14.6"/>
    <rect class="st0" x="135" y="206.5" width="10.7" height="14.6"/>
    <rect class="st0" x="152.5" y="206.5" width="10.7" height="14.6"/>
    <rect class="st0" x="171" y="206.5" width="10.7" height="14.6"/>
    <rect class="st0" x="192.4" y="206.5" width="10.7" height="14.6"/>
    <rect class="st0" x="209.9" y="206.5" width="10.7" height="14.6"/>
    <rect class="st0" x="228.3" y="206.5" width="10.7" height="14.6"/>
    <rect class="st0" x="245.8" y="206.5" width="10.7" height="14.6"/>
    <rect class="st0" x="263.3" y="206.5" width="10.7" height="14.6"/>
    <rect class="st0" x="281.8" y="206.5" width="10.7" height="14.6"/>
  </g>
  <path class="st0" d="M233.4,95.1c-6.9,0-12.5,5.8-12.5,13v32.1c0,10.2,7.5,18.4,16.8,18.4h52.6c6.9,0,12.5-5.8,12.5-13v-37.5c0-7.2-5.6-13-12.5-13h-56.9Z"/>
  <path class="st2" d="M38.7,206.5h8.9v-82.6h-8.9c-3.7,0-6.6,3-6.6,6.6v69.3c0,3.7,3,6.6,6.6,6.6Z"/>
  <path class="st2" d="M337.3,123.9h-8.9v82.6h8.9c3.7,0,6.6-3,6.6-6.6v-69.3c0-3.7-3-6.6-6.6-6.6Z"/>
  <path class="st2" d="M156.4,54.7v8.9h70.9v-8.9c0-3.7-3-6.6-6.6-6.6h-57.7c-3.7,0-6.6,3-6.6,6.6Z"/>
</svg>