<?xml version="1.0" encoding="UTF-8"?>
<svg id="Layer_1" xmlns="http://www.w3.org/2000/svg" xmlns:xlink="http://www.w3.org/1999/xlink" version="1.1" viewBox="0 0 402.4 319">
  <!-- Generator: Adobe Illustrator 29.2.1, SVG Export Plug-In . SVG Version: 2.1.0 Build 116)  -->
  <defs>
    <style>
      .st0 {
        fill: #f9ece1;
      }

      .st1 {
        fill: #33302e;
      }

      .st2 {
        fill: #efaf6a;
      }
    </style>
  </defs>
  <path class="st2" d="M402.4,319H18.6c-10.3,0-18.6-9.6-18.6-21.4V-26.6c0-11.8,8.3-21.4,18.6-21.4h383.7v367Z"/>
  <path class="st0" d="M124,25.8H44.7c-7.7,0-13.9,6.2-13.9,13.9v49.8c0,7.7,6.2,13.9,13.9,13.9h79.3c7.7,0,13.9-6.2,13.9-13.9v-49.8c0-7.7-6.2-13.9-13.9-13.9Z"/>
  <path class="st1" d="M30.8,222.4v55.9c0,7.7,6.2,13.9,13.9,13.9h79.3c7.7,0,13.9-6.2,13.9-13.9v-55.9c0-7.7-6.2-13.9-13.9-13.9H44.7c-7.7,0-13.9,6.2-13.9,13.9Z"/>
  <path class="st0" d="M124,116.6H44.7c-7.7,0-13.9,6.2-13.9,13.9v50.8c0,7.7,6.2,13.9,13.9,13.9h79.3c7.7,0,13.9-6.2,13.9-13.9v-50.8c0-7.7-6.2-13.9-13.9-13.9Z"/>
  <path class="st1" d="M241,26.5h-79.3c-7.7,0-13.9,6.2-13.9,13.9v49.1c0,7.7,6.2,13.9,13.9,13.9h79.3c7.7,0,13.9-6.2,13.9-13.9v-49.1c0-7.7-6.2-13.9-13.9-13.9Z"/>
  <path class="st1" d="M161.6,292.8h79.3c7.7,0,13.9-6.2,13.9-13.9v-56.5c0-7.7-6.2-13.9-13.9-13.9h-79.3c-7.7,0-13.9,6.2-13.9,13.9v56.5c0,7.7,6.2,13.9,13.9,13.9Z"/>
  <path class="st0" d="M147.7,130.5v50.8c0,7.7,6.2,13.9,13.9,13.9h79.3c7.7,0,13.9-6.2,13.9-13.9v-50.8c0-7.7-6.2-13.9-13.9-13.9h-79.3c-7.7,0-13.9,6.2-13.9,13.9Z"/>
  <path class="st1" d="M278.4,293.2h79.3c7.7,0,13.9-6.2,13.9-13.9v-56.9c0-7.7-6.2-13.9-13.9-13.9h-79.3c-7.7,0-13.9,6.2-13.9,13.9v56.9c0,7.7,6.2,13.9,13.9,13.9Z"/>
  <path class="st0" d="M357.7,26.8h-79.3c-7.7,0-13.9,6.2-13.9,13.9v48.7c0,7.7,6.2,13.9,13.9,13.9h79.3c7.7,0,13.9-6.2,13.9-13.9v-48.7c0-7.7-6.2-13.9-13.9-13.9Z"/>
  <path class="st1" d="M264.5,130.5v50.8c0,7.7,6.2,13.9,13.9,13.9h79.3c7.7,0,13.9-6.2,13.9-13.9v-50.8c0-7.7-6.2-13.9-13.9-13.9h-79.3c-7.7,0-13.9,6.2-13.9,13.9Z"/>
</svg>