<?xml version="1.0" encoding="UTF-8"?>
<svg id="Layer_1" xmlns="http://www.w3.org/2000/svg" xmlns:xlink="http://www.w3.org/1999/xlink" version="1.1" viewBox="0 0 376.1 298.2">
  <!-- Generator: Adobe Illustrator 29.2.1, SVG Export Plug-In . SVG Version: 2.1.0 Build 116)  -->
  <defs>
    <style>
      .st0 {
        fill: #ddd4ce;
      }

      .st1 {
        fill: #33302e;
      }

      .st2 {
        fill: #efaf6a;
      }
    </style>
  </defs>
  <path class="st2" d="M376.1,298.2H17.4c-9.6,0-17.4-7.8-17.4-17.4V17.4C0,7.8,7.8,0,17.4,0h358.7v298.2Z"/>
  <path class="st1" d="M245.9,235.1h-122c-18.3,0-33.1-14.8-33.1-33.1v-113.3c0-18.3,14.8-33.1,33.1-33.1h122c18.3,0,33.1,14.8,33.1,33.1v113.3c0,18.3-14.8,33.1-33.1,33.1Z"/>
  <path class="st0" d="M215.1,200.1l-2.7-1c-17.8-6.2-37.2-6.2-55.1,0l-2.7,1c-7.5,0-13.5-4.5-13.5-10.1v-12.1c0-8.7,3.2-17.3,9.3-23.5,5.3-5.4,12.5-9,22.5-9h24c7,0,13.6,1.8,18.9,6.4,5.3,4.7,10.4,11.6,12,18.5.4,1.5.6,3.1.8,4.7.4,3.7.2,7.4,0,11.1-.2,2.5.4,4.9-.7,7.2-1,2.1-2.8,3.8-4.9,4.9-1.8,1-5.8,2.7-7.9,1.9Z"/>
  <path class="st0" d="M140.8,153h-9.7c-5.5,0-9.9-4.4-9.9-9.9v-17.2c0-4.3,3.5-7.9,7.9-7.9h5.2c8,0,14.4,6.5,14.4,14.4v12.7c0,4.3-3.5,7.9-7.9,7.9Z"/>
  <path class="st0" d="M170.2,136.6h-7.7c-5.3,0-9.7-4.3-9.7-9.7v-19.9c0-5.5,4.4-9.9,9.9-9.9h4.9c6.9,0,12.5,5.6,12.5,12.5v16.8c0,5.5-4.5,10-10,10Z"/>
  <path class="st0" d="M202.1,135.5h-6.8c-5.8,0-10.5-4.7-10.5-10.5v-15.9c0-6.5,5.3-11.7,11.7-11.7h5c6,0,10.9,4.9,10.9,10.9v16.9c0,5.7-4.6,10.3-10.3,10.3Z"/>
  <path class="st0" d="M233.2,149.7h-8.1c-3.5,0-6.3-2.8-6.3-6.3v-19.4c0-5.1,4.2-9.3,9.3-9.3h4.9c7.3,0,13.1,5.9,13.1,13.1v9c0,7.1-5.8,12.9-12.9,12.9Z"/>
</svg>