<?xml version="1.0" encoding="UTF-8"?>
<svg id="Layer_1" xmlns="http://www.w3.org/2000/svg" version="1.1" viewBox="0 0 348.1 276">
  <!-- Generator: Adobe Illustrator 29.2.1, SVG Export Plug-In . SVG Version: 2.1.0 Build 116)  -->
  <defs>
    <style>
      .st0 {
        fill: #ddd4ce;
      }

      .st1 {
        fill: #f9ece1;
      }

      .st2 {
        fill: #33302e;
      }

      .st3 {
        fill: #efaf6a;
      }
    </style>
  </defs>
  <path class="st3" d="M348.1,276H16.1c-8.9,0-16.1-8.3-16.1-18.6V-23.4c0-10.3,7.2-18.6,16.1-18.6h332v318Z"/>
  <path class="st0" d="M271.8,249H76.3c-8.6,0-15.5-6.9-15.5-15.5V65.6c0-8.6,6.9-15.5,15.5-15.5h195.5c8.6,0,15.5,6.9,15.5,15.5v167.9c0,8.6-6.9,15.5-15.5,15.5Z"/>
  <path class="st2" d="M233.6,207.6H91c-9.1,0-16.4-7.4-16.4-16.4V33.4c0-9.1,7.3-16.4,16.4-16.4h142.5c9.1,0,16.4,7.4,16.4,16.4v157.7c0,9.1-7.4,16.4-16.4,16.4Z"/>
  <path class="st3" d="M256.4,179.6h-82.5c-9.1,0-16.4-7.4-16.4-16.4v-82.8c0-9.1,7.4-16.4,16.4-16.4h82.5c9.1,0,16.4,7.3,16.4,16.4v82.8c0,9.1-7.4,16.4-16.4,16.4Z"/>
  <path class="st1" d="M83.7,90.2h75c8.3,0,15.9,4.5,20,11.9l6.5,11.7c4.1,7.3,11.7,11.9,20,11.9h59.2c12.7,0,22.9,10.4,22.9,23.3v83.5c0,12.9-10.3,23.3-22.9,23.3H83.7c-12.7,0-22.9-10.4-22.9-23.3v-118.9c0-12.8,10.3-23.3,22.9-23.3Z"/>
  <path class="st2" d="M164.4,163.6v2.3c0,1.7,1.3,3,3,3h94.8c1.7,0,3-1.3,3-3v-2.3c0-1.7-1.3-3-3-3h-94.8c-1.7,0-3,1.3-3,3Z"/>
  <path class="st3" d="M93.2,149.6c-5.7,0-10.3,5.4-10.3,12.1v30c0,9.5,6.2,17.2,13.9,17.2h43.5c5.7,0,10.3-5.4,10.3-12.1v-35.1c0-6.7-4.6-12.1-10.3-12.1h-47.1Z"/>
  <path class="st2" d="M164.4,196.8v2.3c0,1.7,1.3,3,3,3h94.8c1.7,0,3-1.3,3-3v-2.3c0-1.7-1.3-3-3-3h-94.8c-1.7,0-3,1.3-3,3Z"/>
</svg>