<?xml version="1.0" encoding="UTF-8"?>
<svg id="Layer_1" xmlns="http://www.w3.org/2000/svg" version="1.1" viewBox="0 0 348.1 276">
  <!-- Generator: Adobe Illustrator 29.2.1, SVG Export Plug-In . SVG Version: 2.1.0 Build 116)  -->
  <defs>
    <style>
      .st0 {
        fill: #f9ece1;
      }

      .st1 {
        fill: #33302e;
      }

      .st2 {
        fill: #efaf6a;
      }
    </style>
  </defs>
  <path class="st2" d="M348.1,276H16.1c-8.9,0-16.1-8.8-16.1-19.6V-39.4c0-10.8,7.2-19.6,16.1-19.6h332v335Z"/>
  <path class="st1" d="M203.7,111.6h-60.1c-9.1,0-16.4-7.4-16.4-16.4v-60.1c0-9.1,7.4-16.4,16.4-16.4h60.1c9.1,0,16.4,7.4,16.4,16.4v60.1c0,9.1-7.3,16.4-16.4,16.4Z"/>
  <path class="st1" d="M232.7,257.6h-113.1c-9.1,0-16.4-7.4-16.4-16.4v-113.1c0-9.1,7.4-16.4,16.4-16.4h113.1c9.1,0,16.4,7.4,16.4,16.4v113.1c0,9.1-7.3,16.4-16.4,16.4Z"/>
  <path class="st0" d="M223.1,238.6h-93.8c-6.7,0-12.1-5.4-12.1-12.1v-88.7c0-6.7,5.4-12.1,12.1-12.1h93.8c6.7,0,12.1,5.4,12.1,12.1v88.7c0,6.7-5.4,12.1-12.1,12.1Z"/>
  <path class="st0" d="M161.9,243.6h-65.4c-2.9,0-5.3,2.4-5.3,5.3v11.4c0,2.9,2.4,5.3,5.3,5.3h65.4c2.9,0,5.3-2.4,5.3-5.3v-11.4c0-2.9-2.4-5.3-5.3-5.3Z"/>
  <path class="st0" d="M267.9,243.6h-65.4c-2.9,0-5.3,2.4-5.3,5.3v11.4c0,2.9,2.4,5.3,5.3,5.3h65.4c2.9,0,5.3-2.4,5.3-5.3v-11.4c0-2.9-2.4-5.3-5.3-5.3Z"/>
  <path class="st0" d="M162.2,80.7h-11.2c-3.3,0-5.9-2.7-5.9-5.9v-26.6c0-3.3,2.7-6,5.9-6h11.2c3.3,0,5.9,2.7,5.9,6v26.6c0,3.3-2.7,5.9-5.9,5.9Z"/>
  <path class="st0" d="M196.5,80.7h-11.2c-3.3,0-5.9-2.7-5.9-5.9v-26.6c0-3.3,2.7-6,5.9-6h11.2c3.3,0,5.9,2.7,5.9,6v26.6c0,3.3-2.7,5.9-5.9,5.9Z"/>
  <path class="st2" d="M186.3,75.6h-25.1c-2.6,0-4.6,2.1-4.6,4.6v6c0,2.6,2.1,4.6,4.6,4.6h25.1c2.6,0,4.6-2.1,4.6-4.6v-6c0-2.6-2.1-4.6-4.6-4.6Z"/>
</svg>