<?xml version="1.0" encoding="UTF-8"?>
<svg id="Layer_2" xmlns="http://www.w3.org/2000/svg" xmlns:xlink="http://www.w3.org/1999/xlink" version="1.1" viewBox="0 0 193.39 223.33">
  <!-- Generator: Adobe Illustrator 29.2.1, SVG Export Plug-In . SVG Version: 2.1.0 Build 116)  -->
  <defs>
    <style>
      .st0 {
        fill: url(#linear-gradient);
      }

      .st1 {
        fill: #5a5b5b;
        opacity: .3;
      }

      .st2 {
        fill: #2d3033;
        opacity: .13;
        stroke: #000;
        stroke-miterlimit: 10;
      }

      .st3 {
        fill: #fff;
      }

      .st4 {
        fill: #2d2d2d;
      }
    </style>
    <linearGradient id="linear-gradient" x1="115.01" y1="87.52" x2="146.17" y2="87.52" gradientUnits="userSpaceOnUse">
      <stop offset=".23" stop-color="#000"/>
      <stop offset=".82" stop-color="#191b1d" stop-opacity=".5"/>
      <stop offset="1" stop-color="#2d3033" stop-opacity=".13"/>
    </linearGradient>
  </defs>
  <g>
    <g>
      <polygon class="st2" points="20.09 31.69 20.09 120.6 96.05 162.85 170.58 119.48 170.58 33.78 121.46 4 96.05 18.11 70.25 4 20.09 31.69"/>
      <polygon class="st4" points="20.09 120.6 20.09 31.69 95.19 76.15 96.05 162.85 20.09 120.6"/>
      <polygon class="st1" points="170.58 33.78 95.19 76.15 20.09 31.69 70.25 4 96.05 18.11 121.46 4 170.58 33.78"/>
    </g>
    <polygon class="st0" points="115.01 86.57 146.17 105.14 146.17 69.9 115.01 86.57"/>
  </g>
  <polygon class="st3" points="95.19 97.9 76.31 87.2 76.31 65.17 95.33 54.47 114.38 65.17 146.17 47.55 96.05 18.11 44.21 47.55 44.21 107.03 95.33 135.03 146.17 105.14 115.01 86.57 95.19 97.9"/>
  <g>
    <path d="M47.85,191.06c-.9,2.55-2.72,4.59-6.86,4.59-4.86,0-7.59-3.41-7.59-7.76s3.04-7.83,7.68-7.83c4.24,0,6.2,2.26,6.83,4.7h-1.74c-.74-1.77-2.06-3.24-5.11-3.24-3.61,0-5.87,2.65-5.87,6.3s2.27,6.35,5.89,6.35c3.01,0,4.19-1.32,5.07-3.12h1.71Z"/>
    <path d="M51.08,180.38h1.68v6.16h9.6v-6.16h1.68v14.95h-1.68v-7.31h-9.6v7.31h-1.68v-14.95Z"/>
    <path d="M70.4,190.48l-2.11,4.85h-1.77l6.55-14.95h1.97l6.79,14.95h-1.84l-2.19-4.85h-7.4ZM77.21,189c-1.95-4.33-2.86-6.34-3.2-7.32h-.02c-.3.94-1.39,3.58-3,7.32h6.22Z"/>
    <path d="M86.1,188.7v6.64h-1.68v-14.95h6.86c2.96,0,5.03,1.32,5.03,4,0,1.77-.84,3.09-2.77,3.57,1.09.28,2.37,1.08,2.37,3.67v.63c0,1.18,0,2.47.17,3.08h-1.72c-.22-.65-.17-1.86-.17-3.02v-.5c0-2.4-.94-3.12-3.69-3.12h-4.41ZM86.1,187.25h4.73c2.5,0,3.75-.87,3.75-2.8,0-1.76-1.26-2.62-3.66-2.62h-4.82v5.41Z"/>
    <path d="M103.89,181.86h-5.82v-1.48h13.35v1.48h-5.82v13.47h-1.7v-13.47Z"/>
    <path d="M115.63,188.7v6.64h-1.68v-14.95h6.86c2.96,0,5.03,1.32,5.03,4,0,1.77-.84,3.09-2.77,3.57,1.09.28,2.37,1.08,2.37,3.67v.63c0,1.18,0,2.47.17,3.08h-1.72c-.22-.65-.17-1.86-.17-3.02v-.5c0-2.4-.94-3.12-3.69-3.12h-4.41ZM115.63,187.25h4.73c2.5,0,3.75-.87,3.75-2.8,0-1.76-1.26-2.62-3.66-2.62h-4.82v5.41Z"/>
    <path d="M140.53,188.19h-9.14v5.68h10.07l-.25,1.47h-11.5v-14.95h11.3v1.47h-9.62v4.87h9.14v1.47Z"/>
    <path d="M145.08,191.02c.58,1.88,1.93,3.22,5,3.22s4.37-1.26,4.37-2.77c0-1.59-.86-2.59-4.92-3.27-4.3-.73-5.42-2.06-5.42-4.1,0-2.53,2.39-4.02,5.57-4.02,4.79,0,5.86,2.52,6.03,3.96h-1.72c-.33-1.09-1-2.54-4.35-2.54-2.27,0-3.8.79-3.8,2.44,0,1.32.61,2.19,4.17,2.78,5.32.89,6.18,2.55,6.18,4.59,0,2.32-1.86,4.35-6.21,4.35-4.04,0-6.15-1.85-6.64-4.62h1.74Z"/>
  </g>
  <g>
    <path d="M35.66,212.83c0-2.55.02-5.2.1-6.84h-.02c-.73,2.73-2.12,7.07-3.87,12.5h-3.16c-1.35-4.77-2.91-9.7-3.69-12.5h-.02c.11,1.72.24,4.59.24,7.11v5.39h-3.23v-14.79h5.19c1.49,4.58,2.85,8.6,3.29,10.62h.02c.63-2.33,1.96-6.22,3.4-10.62h5.21v14.79h-3.46v-5.66Z"/>
    <path d="M54.83,212.26h-8.25v3.37h9.18l-.41,2.87h-12.35v-14.79h12.29v2.87h-8.7v2.8h8.25v2.87ZM54.96,199.41l-4.61,2.92h-3.28l3.51-2.92h4.37Z"/>
    <path d="M62.28,206.56h-5.21v-2.86h13.98v2.86h-5.19v11.93h-3.59v-11.93Z"/>
    <path d="M76.93,212.8v5.7h-3.55v-14.79h8.05c3.41,0,5.36,1.68,5.36,4.22,0,1.91-1.11,3.03-2.57,3.5.61.24,2.19.82,2.19,3.48v.74c0,1.01-.02,2.15.19,2.85h-3.68c-.25-.65-.28-1.53-.28-3.09v-.49c0-1.5-.55-2.12-2.7-2.12h-3.01ZM76.93,210.1h3.7c1.74,0,2.5-.63,2.5-1.87,0-1.17-.77-1.83-2.47-1.83h-3.73v3.71Z"/>
    <path d="M104.88,211.05c0,4.1-2.73,7.76-8.11,7.76-5.01,0-7.88-3.43-7.88-7.75,0-4.07,3.03-7.67,8.05-7.67s7.95,3.62,7.95,7.66ZM92.68,211.02c0,2.8,1.42,4.99,4.3,4.99s4.13-2.51,4.13-4.92c0-2.62-1.28-4.9-4.27-4.9s-4.15,2.33-4.15,4.83Z"/>
    <path d="M107.84,203.71h7.65c3.44,0,5.72,1.74,5.72,4.65s-2.15,4.83-5.78,4.83h-3.99v5.31h-3.61v-14.79ZM111.45,210.4h3.71c1.52,0,2.48-.52,2.48-1.99,0-1.2-.74-1.94-2.48-1.94h-3.71v3.93Z"/>
    <path d="M139.11,211.05c0,4.1-2.73,7.76-8.11,7.76-5.02,0-7.88-3.43-7.88-7.75,0-4.07,3.03-7.67,8.05-7.67s7.95,3.62,7.95,7.66ZM126.91,211.02c0,2.8,1.42,4.99,4.3,4.99s4.12-2.51,4.12-4.92c0-2.62-1.28-4.9-4.27-4.9s-4.16,2.33-4.16,4.83Z"/>
    <path d="M142.07,203.71h3.59v11.91h8.28l-.47,2.88h-11.39v-14.79Z"/>
    <path d="M167.77,212.26h-8.25v3.37h9.18l-.41,2.87h-12.35v-14.79h12.29v2.87h-8.7v2.8h8.25v2.87Z"/>
  </g>
</svg>