<?xml version="1.0" encoding="UTF-8"?>
<svg id="Layer_1" xmlns="http://www.w3.org/2000/svg" version="1.1" viewBox="0 0 335 157">
  <!-- Generator: Adobe Illustrator 29.2.1, SVG Export Plug-In . SVG Version: 2.1.0 Build 116)  -->
  <path d="M204.9,157h-3c-6.8-8.3-.5-24.1-3.2-33.3-1.3-4.6-8.6-5.2-11.8-2.2-4.4,4.2-.7,25.2-2,32-.4,1.9-1.7,2.4-3,3.5h-3c-6.8-8.3-.5-24.1-3.2-33.3-1.3-4.6-8.3-5.2-11.8-2.2-4.5,3.9-.7,25.2-2,32-.4,1.9-1.7,2.4-3,3.5h-3c-1.6-2.2-2.7-3.6-3-6.5-.9-7.3-.8-26.7,0-34,.3-3.1,1-5.5,4.5-5.6,2.7,0,4.1,1.7,5,1.7,1.9,0,5.9-2.4,10.9-1.5,3.2.5,5.9,3.6,7.2,3.8s4.7-3.1,7-3.6c9.8-2,19.3,1.4,20.3,12.2.5,5.3.9,25.5,0,30.1-.4,1.9-1.7,2.4-3,3.5h0Z"/>
  <path d="M220.9,157l-3.1-4.4v-58.1c0,0,1-2,1-2l3.5-1.5c1.5-.3,4.5,3.7,4.5,4.5v16.5c8.1-3.3,19.9.5,21.8,9.7.8,3.7.8,21.9-.2,25.3-1.6,5.4-7.7,8.2-12.5,10h-15,0ZM238.6,121.2c-3-2.9-10.3-1.8-11.6,2.5-.6,2.1-.7,17.4-.2,19.8,1.1,5.8,11.3,5.8,12.8.8.8-2.7.6-21.5-1-23.1Z"/>
  <path d="M7.9,106c3.4-12.7,16.1-18.7,28.1-12.6,5.7,2.9,14.2,16.3,6.2,18.4-6.2,1.7-5.6-4.6-7.8-7.8-4.5-6.7-15.6-4.8-17.2,2.7-1.1,4.7-.9,27.4-.2,32.8,1,9,12.5,11.8,17.5,4.4,1.3-2,1.9-6.2,3.2-7,2.4-1.6,6.2-1.3,7.1,1.8,2.7,9-7.3,16.2-14.8,18.3h-6c-8.7-2.4-13.4-6.2-16-15v-36h0Z"/>
  <path d="M269.9,157c-5.6-2.1-11.1-4.5-12.6-10.9-1.1-4.7-1-22.2.7-26.5,3.7-9.2,16.1-11.2,23.8-6,1.3.9,6.1,5.8,6.1,6.9v16.5c-1-.3-2.2,1-2.5,1h-19.5c-1.8,6.9,3.8,12.8,10.4,8.9,1.9-1.1,6.4-9.5,10.2-3.9,3.5,5.1-5.9,13-10.6,14h-6ZM265.9,130h14c1.6-13.6-16.4-14-14,0Z"/>
  <path d="M131.9,157h-6c-4.6-2.2-9.9-4.6-11.5-10-1-3.4-1-20.6-.4-24.5,2-13.2,22.7-16.2,29.1-4.3,2.7,4.9,2.7,23.9.8,29.2-2,6.1-6.7,7.3-12,9.5h0ZM134.6,121.2c-2.1-2.1-10.3-2-11.3,1.7-.8,3-1,17.5-.4,20.6,1.1,5.8,11.3,5.8,12.8.8.8-2.7.6-21.5-1-23.1h0Z"/>
  <path d="M68.9,157h-6c-4.7-2.5-10-4.1-11.5-10-1.1-4.1-1-18.9-.5-23.5,1.9-17,29-16.8,31,0,.6,4.6.5,19.1-.7,23.3-1.7,6.1-7,8.1-12.3,10.2h0ZM66.4,119.5c-10.9-.4-8.9,23.7-4.5,27,4.8,3.6,10.5,1.2,11-4.9.7-6.6,2.2-21.8-6.5-22.1Z"/>
  <path d="M306.9,157c-5.1-1-17-8.4-12.1-14.6,4.2-5.3,8.4,3.9,11.1,5.1,3.6,1.5,9.1.7,11.5-2.5,5.4-11-21-5.4-22.6-18.5-1.4-12.5,8.5-16.9,19.6-15.5,4.4.5,11.9,3.9,10.3,9.3-1.8,6.2-7.8.3-10.4-.2-2.2-.4-8.6-.3-10.2,1.2-3.8,7.9,11.4,7.1,17.1,10.9,3.4,2.3,3.7,4.5,5.7,7.8v6c-2.5,6.8-6.5,8.8-13,11h-7Z"/>
  <path d="M173.7,30.1l4.6,13.9c3-2.8,6.3-4.9,9-8,3.4-3.8,7.8-13.4,10.8-15.2,6.1-3.7,14.3.2,17.7,5.7-10.9-.3-9,11.5-12.5,19.5-3.8,8.7-12,14.7-21.5,16,.7-6.3-.6-11.3-3-17-3.2.3-5.3,3-8.3,4.2-18.3,7.3-36.1-16-50.4-24.5l-1.3-8.7c17.6,6.6,35.9,13.2,54.8,14.1h0Z"/>
  <path d="M170.8,84c-9-3-15.2-5.3-24.5-2-3.2,1.1-5.4,3.2-8.5,4,4-12.5,13.3-23,25.6-27.9,3.2-1.3,11.6-4.9,12.4-.6,1.5,8.2-2.9,18.6-5,26.5h0Z"/>
  <path d="M92.1,92.2c1.8-1.9,6.7-1.2,7.6,1.4l.2,50.8c.8,4.1,13.1,4,6.4,11.3-7.7,1.5-13.8-1.6-15.1-9.6-1.6-9.7-1.2-38.3-.3-48.8.1-1.6.2-4.1,1.3-5.2h0Z"/>
  <path d="M160.9,0l30.6,22c-3.9,10.1-13,11-20.1,3-2.2-2.5-11-19-11.2-21.7,0-1.2.7-2.2.7-3.3h0Z"/>
</svg>