<?xml version="1.0" encoding="UTF-8"?>
<svg id="Calque_1" xmlns="http://www.w3.org/2000/svg" xmlns:xlink="http://www.w3.org/1999/xlink" version="1.1" viewBox="0 0 160.7 84.9">
  <!-- Generator: Adobe Illustrator 29.2.1, SVG Export Plug-In . SVG Version: 2.1.0 Build 116)  -->
  <defs>
    <style>
      .st0 {
        fill: none;
      }

      .st1 {
        fill: #707070;
      }

      .st2 {
        fill: #3b3b3b;
      }

      .st3 {
        fill: #1d1d1d;
      }

      .st4 {
        fill: #b8b8b8;
      }

      .st5 {
        fill: #101010;
      }

      .st6 {
        clip-path: url(#clippath);
      }
    </style>
    <clipPath id="clippath">
      <path class="st0" d="M24.3,12.9c-1.5.6-3.1,1.2-4.5,2-6.6,7.7-9.1,18-6.9,27.8,4,19.9,22.3,31,40.8,27.4,5.1-1,9.9-3,14.3-5.8V23c-7.2-8.3-17.7-13-28.7-12.9-5.1,0-10.2,1-15,2.8h0Z"/>
    </clipPath>
  </defs>
  <path class="st2" d="M67.9,64.5c-4.3,2.8-9.2,4.8-14.3,5.8-18.5,3.5-36.8-7.6-40.8-27.5-2.2-9.8.4-20.1,6.9-27.8-5,2.6-9.4,6.2-13,10.5C-.4,34.5-2.9,46.2,4.4,57.2c.8,1.2,1.6,2.4,2.4,3.5,2.7,3.8,5.7,7.4,9,10.8,8,8.1,17.2,13.4,26.8,13.4,3.3,0,6.6-.6,9.6-1.8,6.1-2.5,11.5-6.5,15.6-11.6"/>
  <path class="st1" d="M67.9,4.8C59.3-.3,48.9-1.4,39.4,2c-3,1.1-5.9,2.4-8.7,4-4.1,2.3-7.8,5.4-10.9,9,1.5-.8,3-1.4,4.5-2,4.8-1.8,9.9-2.8,15-2.8,11,0,21.4,4.6,28.6,12.9"/>
  <path class="st5" d="M68,23.1c-7.2-8.3-17.7-13-28.7-12.9-5.1,0-10.2,1-15,2.8-1.5.6-3.1,1.2-4.5,2-6.6,7.7-9.1,18-6.9,27.9,4,19.9,22.3,31,40.8,27.4,5.1-1,9.9-3,14.3-5.8"/>
  <g class="st6">
    <g>
      <path class="st4" d="M68,24.4h-.3l-10.6,14.4-4.6-14.4h-8.7l6.5,19.9c.4,1.8,0,3.6-1,5.1l-8.2,11.1h10.2l16.8-22.7"/>
      <path class="st4" d="M12,42.5c0,9.9,8.1,18,18,18h4.5l6.1-8.3h-10.6c-5,0-9.7-4.8-9.7-9.7.3-5.2,4.4-9.4,9.7-9.7h10.9l-2.7-8.4h-8.2c-9.9,0-18,8.1-18,18"/>
    </g>
  </g>
  <rect x="67.8" width=".4" height="84.9"/>
  <path class="st3" d="M84.7,33.1h-7.9v-2.5h18.6v2.5h-7.9v21.2h-2.7v-21.2Z"/>
  <path class="st3" d="M98.3,30.6h17.1v2.4h-14.4v8.1h12.9v2.4h-12.9v8.3h14.6v2.4h-17.2v-23.6Z"/>
  <path class="st3" d="M117.8,42.5h0c-.2-6.6,5-12.1,11.6-12.3.1,0,.3,0,.4,0,3.5-.1,6.8,1.3,9.2,3.8l-1.8,2c-1.9-2.1-4.6-3.2-7.4-3.2-5.2,0-9.1,4.2-9.1,9.7h0c0,5.5,4,9.8,9.1,9.8s5.4-1.2,7.6-3.4l1.8,1.7c-2.4,2.7-5.9,4.2-9.5,4.1-6.5,0-11.8-5.2-11.9-11.7,0-.2,0-.3,0-.5Z"/>
  <path class="st3" d="M141.8,30.6h2.7v10.5h13.6v-10.5h2.7v23.6h-2.7v-10.6h-13.6v10.6h-2.7v-23.6Z"/>
</svg>