<?xml version="1.0" encoding="UTF-8"?>
<svg id="Layer_1" xmlns="http://www.w3.org/2000/svg" version="1.1" viewBox="0 0 768.56 198.95">
  <!-- Generator: Adobe Illustrator 29.2.1, SVG Export Plug-In . SVG Version: 2.1.0 Build 116)  -->
  <defs>
    <style>
      .st0 {
        fill: #0f0f0f;
      }

      .st1 {
        fill: #6d6d6d;
      }

      .st2 {
        fill: #f1f1f1;
      }

      .st3 {
        fill: #3c3c3c;
      }

      .st4 {
        fill: #070707;
      }

      .st5 {
        fill: #444;
      }

      .st6 {
        fill: #474747;
      }

      .st7 {
        fill: #8f8f8f;
      }

      .st8 {
        fill: #939393;
      }

      .st9 {
        fill: #cecece;
      }

      .st10 {
        fill: #323232;
      }

      .st11 {
        fill: #bdbdbd;
      }

      .st12 {
        fill: #393939;
      }

      .st13 {
        fill: #ddd;
      }

      .st14 {
        fill: #545454;
      }

      .st15 {
        fill: #292929;
      }

      .st16 {
        fill: #a7a7a7;
      }

      .st17 {
        fill: #d6d6d6;
      }

      .st18 {
        fill: #d2d2d2;
      }

      .st19 {
        fill: #e3e3e3;
      }

      .st20 {
        fill: #707070;
      }

      .st21 {
        fill: #a2a2a2;
      }

      .st22 {
        fill: #0a0a0a;
      }

      .st23 {
        fill: #b6b6b6;
      }

      .st24 {
        fill: #767676;
      }

      .st25 {
        fill: #d0d0d0;
      }

      .st26 {
        fill: #363636;
      }

      .st27 {
        fill: #8e8e8e;
      }

      .st28 {
        fill: #ababab;
      }

      .st29 {
        fill: #e4e4e4;
      }

      .st30 {
        fill: #1c1c1c;
      }

      .st31 {
        fill: #7a7a7a;
      }

      .st32 {
        fill: #b5b5b5;
      }

      .st33 {
        fill: #111;
      }

      .st34 {
        fill: #5b5b5b;
      }

      .st35 {
        fill: #2c2c2c;
      }

      .st36 {
        fill: #5f5f5f;
      }

      .st37 {
        fill: #aaa;
      }

      .st38 {
        fill: #8a8a8a;
      }

      .st39 {
        fill: #979797;
      }

      .st40 {
        fill: #c1c1c1;
      }

      .st41 {
        fill: #8d8d8d;
      }

      .st42 {
        fill: #a5a5a5;
      }

      .st43 {
        fill: #3b3b3b;
      }

      .st44 {
        fill: #1e1e1e;
      }

      .st45 {
        fill: #606060;
      }

      .st46 {
        fill: #4f4f4f;
      }

      .st47 {
        fill: #5c5c5c;
      }

      .st48 {
        fill: #d8d8d8;
      }

      .st49 {
        fill: #424242;
      }

      .st50 {
        fill: #ccc;
      }

      .st51 {
        fill: #b4b4b4;
      }

      .st52 {
        fill: #3a3a3a;
      }

      .st53 {
        fill: #c3c3c3;
      }

      .st54 {
        fill: #525252;
      }

      .st55 {
        fill: #c4c4c4;
      }

      .st56 {
        fill: #9b9b9b;
      }

      .st57 {
        fill: #b1b1b1;
      }

      .st58 {
        fill: #5d5d5d;
      }

      .st59 {
        fill: #c9c9c9;
      }

      .st60 {
        fill: #c6c6c6;
      }

      .st61 {
        fill: #bababa;
      }

      .st62 {
        fill: #4e4e4e;
      }

      .st63 {
        fill: #060606;
      }

      .st64 {
        fill: #bebebe;
      }

      .st65 {
        fill: #656565;
      }

      .st66 {
        fill: #636363;
      }

      .st67 {
        fill: #a6a6a6;
      }

      .st68 {
        fill: #c7c7c7;
      }

      .st69 {
        fill: #0d0d0d;
      }

      .st70 {
        fill: #e7e7e7;
      }

      .st71 {
        fill: #141414;
      }

      .st72 {
        fill: #a0a0a0;
      }

      .st73 {
        fill: #464646;
      }

      .st74 {
        fill: #575757;
      }

      .st75 {
        fill: #b0b0b0;
      }

      .st76 {
        fill: #898989;
      }

      .st77 {
        fill: #717171;
      }

      .st78 {
        fill: #1d1d1d;
      }

      .st79 {
        fill: #505050;
      }

      .st80 {
        fill: #252525;
      }

      .st81 {
        fill: #3f3f3f;
      }

      .st82 {
        fill: #969696;
      }

      .st83 {
        fill: #3d3d3d;
      }

      .st84 {
        fill: #b7b7b7;
      }

      .st85 {
        fill: #7d7d7d;
      }

      .st86 {
        fill: #0b0b0b;
      }

      .st87 {
        fill: #cdcdcd;
      }

      .st88 {
        fill: #6f6f6f;
      }

      .st89 {
        fill: #868686;
      }

      .st90 {
        fill: #a3a3a3;
      }

      .st91 {
        fill: #242424;
      }

      .st92 {
        fill: #666;
      }

      .st93 {
        fill: #d7d7d7;
      }

      .st94 {
        fill: #353535;
      }

      .st95 {
        fill: #565656;
      }

      .st96 {
        fill: #121212;
      }

      .st97 {
        fill: #bcbcbc;
      }

      .st98 {
        fill: #272727;
      }

      .st99 {
        fill: #dedede;
      }

      .st100 {
        fill: #151515;
      }

      .st101 {
        fill: silver;
      }

      .st102 {
        fill: #181818;
      }

      .st103 {
        fill: #e9e9e9;
      }

      .st104 {
        fill: #959595;
      }

      .st105 {
        fill: #b8b8b8;
      }

      .st106 {
        fill: #101010;
      }

      .st107 {
        fill: #acacac;
      }

      .st108 {
        fill: #848484;
      }

      .st109 {
        fill: #858585;
      }

      .st110 {
        fill: #e1e1e1;
      }

      .st111 {
        fill: #fefefe;
      }

      .st112 {
        fill: #4a4a4a;
      }

      .st113 {
        fill: #414141;
      }

      .st114 {
        fill: #d5d5d5;
      }

      .st115 {
        fill: #747474;
      }

      .st116 {
        fill: #5e5e5e;
      }

      .st117 {
        fill: #5a5a5a;
      }

      .st118 {
        fill: #2a2a2a;
      }

      .st119 {
        fill: #f2f2f2;
      }

      .st120 {
        fill: #f5f5f5;
      }

      .st121 {
        fill: #818181;
      }

      .st122 {
        fill: #f0f0f0;
      }

      .st123 {
        fill: #222;
      }

      .st124 {
        fill: #0c0c0c;
      }

      .st125 {
        fill: #e2e2e2;
      }

      .st126 {
        fill: #afafaf;
      }

      .st127 {
        fill: #202020;
      }

      .st128 {
        fill: #585858;
      }

      .st129 {
        fill: #8c8c8c;
      }

      .st130 {
        fill: #989898;
      }

      .st131 {
        fill: #b9b9b9;
      }

      .st132 {
        fill: #676767;
      }

      .st133 {
        fill: #494949;
      }

      .st134 {
        fill: #232323;
      }

      .st135 {
        fill: #cbcbcb;
      }

      .st136 {
        fill: #6e6e6e;
      }

      .st137 {
        fill: #2d2d2d;
      }

      .st138 {
        fill: #6a6a6a;
      }

      .st139 {
        fill: #434343;
      }

      .st140 {
        fill: #888;
      }

      .st141 {
        fill: #a4a4a4;
      }

      .st142 {
        fill: #a1a1a1;
      }

      .st143 {
        fill: #2f2f2f;
      }

      .st144 {
        fill: #ededed;
      }

      .st145 {
        fill: #a9a9a9;
      }

      .st146 {
        fill: #dcdcdc;
      }

      .st147 {
        fill: #313131;
      }

      .st148 {
        fill: #333;
      }

      .st149 {
        fill: #4b4b4b;
      }

      .st150 {
        fill: #404040;
      }

      .st151 {
        fill: #d1d1d1;
      }

      .st152 {
        fill: #9f9f9f;
      }

      .st153 {
        fill: #616161;
      }

      .st154 {
        fill: #d3d3d3;
      }

      .st155 {
        fill: #1a1a1a;
      }

      .st156 {
        fill: #e0e0e0;
      }

      .st157 {
        fill: #2e2e2e;
      }

      .st158 {
        fill: #ececec;
      }

      .st159 {
        fill: #bfbfbf;
      }

      .st160 {
        fill: #c8c8c8;
      }

      .st161 {
        fill: #0e0e0e;
      }

      .st162 {
        fill: #cfcfcf;
      }

      .st163 {
        fill: #343434;
      }

      .st164 {
        fill: #999;
      }

      .st165 {
        fill: #161616;
      }

      .st166 {
        fill: #090909;
      }
    </style>
  </defs>
  <path d="M55.62,43.88c2.51-1.66,4.59-5.3,6.72-7.16,23.1-20.13,52.31-31.28,82.7-21.14,1.57.52,11.4,5.52,11.83,5.04.23-2.52-.31-5.43,0-7.88.17-1.37-.25-1.21,1.5-1.11v179.25h-1.5v-30.75c-2.26-.88-5.42-1.93-7.5-3-2.12.47-2.87-.03-2.25-1.5-.16.3-.34.59-.57.83-.15.16-.33.29-.52.32-1.37.22-.22,9.37.34,10.86.21-.65.46-.65.75,0-.19,2.2.14,4.53,0,6.75-1.62.5-1.62-1-2.25-1.5-.85-1.38-1.35-2.63-1.5-3.75-.89.04-1.47-.81-.75-1.5-.26-.87-.26-1.62,0-2.25-1.51-4.47-3.51-6.97-6-7.5.89,1.55.39,1.8-1.5.75-.98,1.62-3.03,1.15-3-.75-4.12-3.68-4.12-3.43,0,.75.52.98.02,1.2-.75,1.5.96,1.28.55,1.61-.75.75-.77-.53-1.87-.7-3-1.5l-3.03-1.9c-3.57.71-2.44-5.33-.2-7.23-.3-3.8.53-5,2.49-3.62.26-4.04,7.85-4.64,9.75-2.25l.71-.68c5.68,1.57,11.19,3.54,16.54,5.93.66.21.64.46,0,.75,1.49,1.65.25,2.64-1.68,2.66-2.1,1.95,2.58,3.36,2.89,3.04.71-.74.79-3.97.29-4.2-.33-.98-.83-1.73-1.5-2.25-2.31-1.32-4.8-2.28-7.45-2.87-.86,1.43-2.53-1.15-2.24-1.43,1.65-1.6,1.63-2.19,1.18-4.82,2.66-.34,5.5-.05,8.52.87q2.27,1.77,0,0l-7.06-1.41-.44-1.59c-.38-2.32-.73-5.95,1.28-6.31l.22-1.19c1.86-3.21-.25-5.03-6.33-5.45l-.42-.55c-2.64,1.68-9.12-1.9-3.75-2.25.26-1.44,2.77-.8,3.75,0,1.45.11,2.2-.14,2.25-.75-1.37.32-6.97.03-7.65-.66-1.51-1.53.89-5.86,3.15-4.59,1.34-.36,1.84-.86,1.5-1.5-1.62-2.12,1.23-5.14,3.49-5.9-.1-3.05,2.48-5.59,4.91-7.16,1.04-3.45,4.87-8.76,8.1-9.81-.35.04-.69.04-1-.06-1.35-.45-.99-25.33,1-27.69-1.01.88-1.19.44-.95-.7.41,1.37.36,3.11-1.3,2.57l-1.07.14-2.68-9.14c-.57-.99-.73-2.42-.75-3.75l-.85-.2c-1.75,2.84-2.96,3.65-3.65,2.45-1.78-.25-1.65-.88,0-1.5.3-1.16.8-2.41,1.5-3.75-.39.48-1.24.95-1.36.73-.07-.14.33-.57.31-.55-1.97,2.43-3.86,4.74-3.23-.23-1.98,1.22-2.43-.23-2.97-2.09-2.44-1.47-4.03-3.69-4.75-6.11-1.78.14-2.53-.36-2.25-1.5-1.65.52-2.9.52-3.75,0-.65-.21-.65-.46,0-.75,1.1-.31.1-.56-3-.75-1.12.48-1.49.26-.75-.75.79-.28-.21-.53-3-.75h-.75c-1.61-.92.11-1.4.18-.81.04.34-6.31,1.11-6.18.06-1-.26-2.25,0-3.75.75-1.08-1.38-2.08-2.63-3-3.75-.08,1.02-1.56,1.46-4.43,1.31.4,1.79.63,3.85.68,6.19l-.12,1.03c7,.68,2.08,3.96-2.13,2.72-.25,1.02-.95,1.65-1.92,2.02.35,2.89.49,5.72.42,8.48.71-.21,1.29-.03,1.18.52-1.69,8.83-4.03-.78-4.88-4.9-5.54-.36-11.33.02-17.35,1.13-.06-1.87.3-3,1.38-1.5l10.67-2q5.09-.58,0,0l-11.5,2.21c-1.56-1.56-1.22-3.1,1-2.96,1.37-2.7,2.87-5.45,4.5-8.25-.21-3.72-.58-4.14-.95-.46-1.43.58-2.61,1.73-3.55,3.46.78,1.92,1.43,3.65,0,5.25-1.92-.47-2.51.87-1.77,4l-1.23,1.25-1.1.88c-.29,1.8-1.42,1.26-3.4-1.63-1.95-2.14-3.7-4.39-5.25-6.75-2.43-.75-6.48-1.08-5.73,1.05-.98,2.5-13.39-.5-7.77-3.3Z"/>
  <path class="st10" d="M120.12,158.63c1.91-.12,2.66.88,2.25,3,2.3,2.83,7.39,8.57,9,11.25.22.37.37,1.64.75,2.24-.7.13-.96.03-1.52-.34-3.28-2.15-6.62-10.76-10.47-13.15l10.87,17.99,5.61,1.51c-.41,1.99-4.81,1.36-5.8.54-.33-.28-3.82-6.02-4.7-7.3-1.47-.61-1.72.89-.75,4.5.54,1.16,2.54,5.3,2.69,5.96.21.93-.36,1.37-1.18,1.54-3.17-6.54-5.75-14.21-9.76-20.25-3.02-1.21-6.27-1.46-9.75-.75v.75c2.09-.89,7.84-2.93,8.25,0l5.24,22.5-3.22-7.65-4.24-14.55c-.86-.64-11.08,1.63-12.79,2.7-.23.73-.48.72-.75,0-2.88-2.57-6.01-4.68-9.37-6.33l.37-1.92,1.84-.74,6.78,4.07c-.03-1.47.09-2.84.38-4.08-.84-1.93.16-2.27,1.5-.75,1.34-1.32,2.03,0,1.5,1.5,1.91-.69,2.3.36,1.5,2.25.13.45.26.79.37.79,3.88-.18,9.13-1.97,12.38-3.79-1.31-1.61,2.02-2.59,3-1.5Z"/>
  <path class="st81" d="M39.12,123.38c.65.21.65.46,0,.75-1.64,1.11-3.89,1.86-6.75,2.25,2.21-.89,4.21-1.14,6-.75,3.73.4,5.8.46,7.89-2.37l1.86.12c1.83-3.15,4.7,2.06,2.62,4.35l1.35,1.12c2.68-1.34,5.55,2.77,4.28,5.03-.87,3.22-3.42,3.19-3.75,0-4.04,1.03-8.04,1.53-12,1.5-.45,1.53-1.79,1.48-2.25,0-1.94.62-4.09.71-6,0-2.57-.05-4.97.26-7.45-.8-.05-.06.48-1.26.7-1.45q7.04-.19,0,0c-2.33-.79-1.18-.64-2.25-2.25-.57-1.61,3.89-6.46,5.19-2.52-4.2,3.59,7.15,3.48,6.81.27-5.37-.19-6.37-.94-3-2.25-3.42,2.46-8.09,1.8-5.25-1.5l.79-1.16c3.73.19,7.46.08,11.21-.34Z"/>
  <path class="st33" d="M69.87,139.13c1.25,3.96,2,7.96,2.25,12,.56,1.74-.2,3.84-2.29,6.29l.79.46c1.58,1.08-1.02,3.86-2.25,4.5,1.09.76.76,2.06,0,3,.13.81.63,1.31,1.5,1.5.85-.75,3.85-2.2,4.5-.75,1.23-.19,1.73.06,1.5.75l-.16.94-8.84,2.06c-.67-1.12-.86-1.59-2.25-1.5.39-.49,1.28-1.52,1.33-1.99.15-1.36-3.27-6.17-4.33-7.76-.59-1.18-.43-1.46.75-.75,1.38-1.43,3.3,4.18,3.15,3.93-2.21-4.41-4.73-8.67-7.55-12.8l-3.1-.88c-1.17,1.41-1.95,1.14-1.26-.66.14-.35,6.41-2.91,7.03-2.75,1.01.27,4.91,9.42,5.47,11.14l.76-.98c.25-1.09.5-2.09.75-3-.28-.17-.51-.35-.57-.58-.37-1.34-2.34-9.22-1.84-9.88.45-.58,1.16-.68,1.66-.05q1.43,3,0,0c-.42-1,.35-2.7,1.5-2.25.28-1.96.82-1.85,1.5,0Z"/>
  <path class="st136" d="M35.37,58.88c1.55-1.5,5.62-6.05,7.13-6.74.32-.15,1.23-.19,1.11.37-.97.7-1.51,1.74-2.25,2.63.79,1.17.58,1.79-.4,2.58,2.48-1.79,4.37-2.14,5.65-1.08,1.75-.72,2.14-.3,1.5,1.5,1.08-.5,1.42-.29.75.75.65.21.65.46,0,.75,1.2,1.06-1.19,2.22-2.25,1.5-1.88-.27-2.38-.02-1.5.75,1.49.11,2.81-.6,4.07-1.33,4.05-1.74,5.66,3.14,1.18,2.08.04.63-.46,1.13-1.5,1.5.08,1.8-1.42,2.05-4.5.75-.54.29-.55.54,0,.75,3.81-1.98,7.31,3.03,1.95,1.99-1,2.45-2.15,3.04-3.45,1.76-2.15-1.87-4.4-2.37-6.75-1.5-.22.65-.47.64-.75,0-3.32,1.37-3.34-.91,0-1.5-2.68-.54-3.93-1.54-3.75-3,.16-.18.24-.95.75-1.5,1.58.46,2.58-.54,3-3Z"/>
  <path class="st118" d="M52.62,133.88c1.18.34,1.2-.25,1.87,1.5l1.88-1.5c1.55.07,2.84.79,3.27,2.36,1.52-1.97,4.7-1.03,4.98,1.39.12,1.25-1.17,2.34-2.25,3,1.88-.5,2.13,0,.75,1.5-.55,2.37-2.02,4.79-4.36,2.99l-4.44,2.04c-.52,1.9-2.75,4.1-4.7,3.23-1.05.99-1.44.57-.75-.75.82-1.06,3.42-2.36,3.73-3.44.28-.99-.66-.94-.73-1.06-1.09.95-1.5.53-.75-.75,1.17-.99,2.83-1.52,4.97-1.6l-.47-.65c-.32-.23-.31-.48,0-.75,1.06-.08-.19-.08-3.75,0-.49,1.15-2.57,1.9-3.75,1.5l-3.75,3.75c-.14.68-.39.66-.75,0-1.13-.06-3.99-1.52-6-.75-.15-1.45,1.13-1.96,3.84-1.54l1.41-.71h.75c.17-1.28.13-2.59-.11-3.95l.86.2c2.17-1.05,4.58-1.83,7.21-2.32l-.46-.68c-3.01.62-2.19-1.14,0-2.25.2-.43.7-.68,1.5-.75Z"/>
  <path class="st70" d="M55.62,43.88c-2.66,2.88,4.06,4.18,5.53,3.66,1.01-.36.95-1.97,1.74-2.18,1.23-.32,5.15-.34,6.23.76-.2.44-.45.42-.75,0l-.53.94c1.69,1.1,1.87,2.03.53,2.81.37,2.01-.48,3.09-1.92,4.29,8.2,4.55,2.88,5.42-3.41,4.98.07,1.15.09,2.3.08,3.48.68.2.66.45,0,.75-1.4,5.75-7.52,2.41-4.5-1.5-.04-.5.46-.75,1.5-.75-.75-.68-.99-1.8-.73-3.36-2.99-.23-4.99-1.11-6.02-2.64-4.18-2.12,1.65-4.35,4.72-2.68-.49-.87-.9-1.81-.62-2.84-2.65-.72-4.75-1.54-6.35-3.48.43-1.07,3.54-1.61,4.5-2.25Z"/>
  <path class="st137" d="M66.87,169.88c5.3-1.31,10.72-2.54,16.25-3.71,1.72-.16,2.31.82,1.75,2.96,2.12.55,2.31.96,2.83,3,.34-2.14,1.74-3.64,3.17-1.5l1.5,1.04-1.5,10.21,1.13-9.63c1.6-1.25,5.97,1.33,2.98,1.97-.47,3.13-1.48,6.3-2.61,9.16,1.09,2.22-2.53,3.69-2.25.75-.93-.56-2.12-.91-3-1.5,0-1.77-.84-3.23-2.46-3.98l-.05-1.4c-1.44-1.62-2.79-3.28-2.74-5.11-.43,1.1-1.04,1.11-1.5,0,2.75-2.56,3.48,1.2,5.24,2.25.2-1.04-2.37-5.25-2.73-5.3-.73-.11-13.04,1.93-14.51,2.3-.21.66-.46.65-.75,0-.26-.49-.46-1.02-.75-1.5Z"/>
  <path class="st95" d="M92.37,183.38c.73-1.55,3.96-11.09,1.79-11.2-3.52,2.09-3.52-4.36-1.82-5.27,3.13,1.55,4.39,1.79,3.78.73.78-.93,2.03-.43,3.75,1.5.79.15.71,0,.75,0,1.72.16,3.52-.06,5.25,0,.65.21.65.46,0,.75-.17.03-2.58.8-2.25,1.49l4.5,1.5c-2.04-.04-3.97-.84-5.97-1.15-.79-.12-2.45-1-2.27.4,1.18.74,7.18,1.29,7.43,1.57.36.39.95,8.36.81,9.69-.92,1.22-1.36-.01-1.5-1.11-.19-1.48.32-7.49-.03-7.86-.92.53-7.58-2.39-7.45-.41.08,1.16,4.11,1.53,4.39,1.97.5.79-.1,3.8.1,5.15.39,2.19-1.93,2.64-3,.75l-.51-.43c1.47-1.64,2.01-6.07-.8-4.05-.97,3.11-3.71,7.22-6.19,8.23.43,1.37-.07,1.87-1.5,1.5-2.88-1.32-5.59-2.76-8.25-4.5,2.85.75,4.11,1.45,6.75,1.5.24,0,.74.67,1.1.61.49-.08.76-1.24,1.15-1.36Z"/>
  <path class="st108" d="M123.87,143.63c3.74-4.15,4.37,3.69,2.48,2.31-.11-.08,1.22-2.36.52.69-3.47.55-.91,1,.31.7,2.66-.67,5.21-1.8,7.94-2.19-.94,2.03-4.14,1.82-6,2.25l2.24,1.48-6.74.77,7.49.75-7.49.75,2.99,1.48c-2.3-.17-7.09,1.08-2.99,2.63l-1.51.75c2.04.65,3.38,2.58,4.5,3.38h-.75c-.68.07-.64.33,0,.75l-1.5,1.12c2.4,2.51,4.85,4.88,7.5,7.13.84-.63,1.19-.23.75.75-1.39,1.17-1.71.07-2.63-.73-2.48-2.14-4.67-4.92-7.12-7.15-1.11-1.01-1.66-2.11-1.5.38-.7-.86-2.05-1.43-2.25-3,.58-1.7.55-3.63-1.92-2.67-1.42-3.49.73-7.16,4.92-6.33-.65-.96-.67-2.94.75-3-1.85-.85-1.84-1.39,0-2.25v-.75Z"/>
  <path class="st163" d="M33.87,77.63c1.89,4.55,4.25,9.13,6.52,13.5l-.52.75c3.87-.18,2.89,7.56-1.3,4.77-1.98-5.37-4.3-10.46-6.95-15.27q-1.8-.87,0,0c2.42,3.37,4.03,9.6,4.68,13.94l-.93,2.56v1.5c-1.79-1.05-2.08-4.1-2.62-6.01-1.03-3.66-2.17-7.46-2.64-11.25l-11.24,2.25c-3.34-4.67,11.02-4.93,12.96-6,.9-.5.43-1.39.53-1.5.24-.68.49-.68.75,0,.91-.8,1.23-.39.75.75Z"/>
  <path class="st54" d="M30.87,107.63c-1.15-2.39-6.57-3.53-5.63-6l4.87,3.74c.87-.93-4.11-5.5-4.49-6.38-.53-1.24,1-1.52,1.48-1.11.25.22.71,2.97,2.26,2.99.18-1.12-.54-1.97-.74-3,.24-1.99.93-1.91,1.5,0,.59,2.46,2.18,4.19,2.26,6.75,1.88-.67-.08-4.6-.75-5.63,2.04-1.68,2.44,4.53,3,6.38,1.41-.76.74-4.51.74-6v-1.5c2.67,4.29,3.67,9.29,3,15-.84,1.63-2.09,1.38-3.75-.75.3-.2.52-.48.75-.75-.2-.77-.77-.85-1.5-.75-1.45-.7-2.55-1.61-3.75-2.25-1.04-.74-.79-.99.75-.75Z"/>
  <path class="st96" d="M51.12,46.13c3.93.64,7.13,2.94,11.25,2.26l-3.75,1.5c1.02,2.37.45,2.71,3,1.49,1.73,6.16-6.03.61-8.25,2.25-.17.13.17,1.34,0,1.5-1.01.94-2.26,1.69-3.75,2.25.06.88-.69,1.07-1.5.75-.41-.43-1.31-.64-1.5-1.5l-.22-1.01c1.72-1.78,2.54-3.7,2.47-5.74,1.77-.69,2.72.33,3.74-1.14.64-1.51-2.23-.78-1.49-2.61Z"/>
  <path class="st2" d="M63.12,142.13c1.25,3.93,2.69,7.79,4.31,11.59l-.56,1.16c.46,1.53,1.51,4.59-.74,3.75-.47-1.86-6.37-13.37-7.12-13.43-.49-.04-3.58,2.36-4.86,2.27,0,.38.73.6.72.66.54-.05.54.7,0,2.25-.69,2.6-1.94,4.1-3.75,4.5h-.75c-.69-.05-.75-.86-.75-1.5-.3-.14-1.05.1-1.5,0-.75-.76.39-2.88,1.5-3,3.16-3.8,7.02-4.29,10.73-6.17,1.28-.65,1-2.47,2.77-2.08Z"/>
  <path class="st34" d="M17.37,118.13l6.94-7.55c1.9,1.63,4.26,2.62,7.07,2.96l.24.84c.65.21.65.46,0,.75-.18.32-.37.57-.56.57-6.69.25,1.53-.85,3.97.45,2.97,1.59-6,2.19-7.31,1.93l-.59.8c-.13.9-1.54,1.39-2.25.75-1.17.45-1.61.94-1.5,2.25v.75c1.23-.32,1.23.18,0,1.5.76,1.2-.88,2.71-2.25,2.25-.49-1.59.1-2.88,0-3-.24-.26-1.71,1.05-2.24.74,1.06-2.06-1.3-4.14-1.5-5.99Z"/>
  <path class="st84" d="M27.12,124.88c0,.5,0,1,0,1.5,1.75.01,3.51,0,5.26,0-.19.23-.86,1.41-.75,1.49l7.5-.73c-.22.9-2.49,1.05-3.75,1.49q-3.69,1.09,0,0l5.25-.74c.49,1.95-6.96,1.29-3.37,2.27l10.86-1.51-5.82,2.04c-5.62.76-11.04,1.68-16.67.19l1.88-3.74-4.13,3.75c-.21-.32-1.36-.51-1.5-1.5.63-.26,1.13-.76,1.5-1.5.78-1.35,2.24-3.43,3.75-3Z"/>
  <path class="st48" d="M31.62,63.38c1.03.38,3.84,1.92,3.75,3-1.52,1.11-2.27,1.11-2.25,0-1.32.27-2.07.77-2.25,1.5,1.9-.71,2.97-.72,3,1.5,3.63-1.34.15,3.86-3,3-2.06,1.67-4.86,2.78-7.5,3,1.96-7.37,3.83-7.03,8.25-12Z"/>
  <path class="st45" d="M24.12,107.63c-1.57,3.12-4.8,6.59-7.5,8.25-.84-2.12-2.1-5.29-.75-7.5-.24-.94-.1-1.22.75-.75.43-1.2,1.28-2.18,2.25-3-1.98-1.62.16-4.8,2.25-3,.74,1.18,2.78,4.89,3,6Z"/>
  <path class="st81" d="M51.12,134.63l-.59,1.89.59.36c-.89,1.55-4.69,2.21-6.75,2.25-.05,1.6-.3,3.1-.75,4.5-.25.02-.5,0-.75,0-1.24,1.24-5.01,1.53-5.25-.75h3.75s0-1.5,0-1.5h-11.25v-.75h10.5c-2.39-3.06-8.39-.87-12-1.5-.66-.92-.39-1.39.67-1.41l10.58-.09c-1.39-1.11-1.01-1.79.75-1.5,3.48-.99,6.98-1.49,10.5-1.5Z"/>
  <path class="st87" d="M48.87,49.88l3,1.12c-2.82,2.18-2.08,3.99-5.25,5.63-1.05.54-7.44,3.74-7.88,3.73-2.88-.04,2.32-4.86,2.63-5.23,3.15-.85,4.12-3.93,7.5-5.25Z"/>
  <path class="st94" d="M117.12,188.63c-.09.03-.38,1.13-1.22,1.33s-1.43-.55-1.78-.58c1.04-1.09-5.52-6.11-4.13-7.5l4.12,4.5c-.43-2.1-1.45-3.76-1.91-5.96s-.71-8.6-1.75-10.11c-.51-.73-3.65-.58-4.59-.43v-.75c1.63.06,5.61-.5,6.43.7,1.35,6.17.68,13.78,4.82,18.8Z"/>
  <path class="st13" d="M81.87,172.13c.53.16,3.67,3.85,4.1,4.55.37.6-.14,1.63.12,2.22.7,1.59,4.2,2.35,1.03,3.73-.87-.58-1-1.05-1.5-1.5-.2-.97-.95-1.72-2.25-2.25-3.47-1.31-7.53-1.19-12.18.35l-.57-1.1c-1.61.7-2.07.52-1.03-.9,1.77-2.42,13.74-2.65,13.03-2.11-.22.17-5.42-.12-4.5-1.49l.13-.78c1.75.22,2.96-.02,3.62-.72Z"/>
  <path class="st134" d="M39.87,115.88v.75c-2.78,1.39-5.89-.13-8.25-1.5v-.75c-1.18-1.34-3.17-2.02-5.96-2.04-1.95-1.36-2.22-2.43-.79-3.21,3.21,1.1,6.51,1.99,9.75,3,1.57.49,2.45.04,3.75.75.06-3.82-.2-7.67-.77-11.54.05-1.35,2.61-1.71,3.06-1.03,1.6,2.39,1.16,12.78-.79,15.57Z"/>
  <path class="st62" d="M51.87,141.38h3.75v.75l-.06.74c-2.81.12-5.04.87-6.69,2.26q-1.98,2.53,0,0c.2-1.02,1.52-1.5,2.25-.75.18.29.61.5.75.75-.81,1.76-5.59,3.61-6.06,4.24-.88,1.17-2.01,6.05-2.95,7.76-3.27-1.4.74-4.36,1.22-6.73.29-1.41,0-2.47-.46-3.77.24.01.51.02.75,0l3.75-3.75c1.3-.67,2.06-1.42,3.75-1.5Z"/>
  <path class="st46" d="M96.12,190.13c-1.45-1.28,4.73-7.33,5.33-7.21.96.2,2.94,1.8,3.67,2.71.59,1.47,2.87,3.45.79,4.93-.2.14-4.6.38-4.9.32-.97-.19.65-1.54.35-2.25-2.39,3.27-1.91,1.78-5.24,1.5Z"/>
  <path class="st55" d="M24.87,109.13c.14.47-.32,1.01.45,1.56,1.77,1.26,8.33,2.58,10.79,2.95-.04,1.3-3.65.83-4.5.74-1.66-.17-4.54-1.82-6.74-.75l-.37-2.24c-2.32,2.3-3.61,6.59-7.13,6.75-.02-.21-.04-.54,0-.75-.38-.55-.29-1.13.11-1.63l6.64-7.37c.31.15.66.43.75.75Z"/>
  <path class="st164" d="M103.62,181.13c.32,2.21.77,2.68,1.5,4.5h-2.62s-2.62,2.25-2.62,2.25l1.87-4.5-5.63,6.75c-.49-.04-1.03.07-1.5,0-2.52-1.79,1.03-4.4,3-5.25.73-1.66,1.73-2.66,3-3l3-.75Z"/>
  <path class="st31" d="M36.12,67.88c5.72-1.4,7.71,1.14.73,1.8-.6.06-.8.52-.73,1.2,3.2-1.37,4.03,2.24.03,1.58.22.67-.04,1.39-.78,2.17.92,1.03,1.42,2.03,1.5,3,.63,1.15.43,1.46-.75.75-.24.65-.49.65-.75,0-.68-1.06-1.43-1.56-2.25-1.5-.19-.04-.72-.03-.75,0,.2-2.69-.46-.92-1.5-.75-.8.02-1.05-.23-.75-.75,1.3-.58,2.77-1.56,3.75-2.63-.49-1.11-1.6.09-2.25.38-.96.24-1.19.2-.75-.75.97-.39,1.67-1.07,3-.76l-3-1.12,3.77-.39c-.03-.4-.77-.68-.76-.73-1.37-1.86-.5-2.01,1.5-1.5.21-.06.49.04.75,0Z"/>
  <path class="st31" d="M35.37,78.38c1.22,1.19,2.69,3.75,2.25,5.25l1.8,2.86c2.86,1.93,5.58,6.41.45,5.39-1.75-4.39-5.99-9.1-6-14.25.38-.72.88-.47,1.5.75Z"/>
  <path class="st35" d="M18.12,85.13c1.67-.58,7.31.22,9.73-.73.56.48,1.81,11.55,2.27,13.48h-1.5c-.79-3.95-1.82-7.93-1.5-12-2.24-.05-4.51.08-6.75,0-1.79,1.95-2.92,1.96-2.25-.75Z"/>
  <path class="st38" d="M20.37,85.88l-1.12,1.5h4.87c.62,3.05-3.56-.09-5.24.75.13,1.5,3.82.64,4.4,1.59.22.37.95,7.73.88,8.51-.11,1.14-.67,2.27-1.52,1.13-.28-1.48.39-8.53-.04-8.96-.2-.21-4.77-.14-5.65-1.49-.26-.4.4-3.52,1.18-3.79.36.97,1.43.72,2.25.75Z"/>
  <path class="st113" d="M17.37,95.63c.8-.82.84-1.8,1.5-2.65l-1.5-1.09h2.24c.13,2.49.2,4.35-.75,6.74,1.11,2.27-.69,4.77-3,3.75-2.62-2.18-.09-4.94,0-6-.45-1.97.15-2.21,1.5-.75Z"/>
  <path class="st50" d="M126.12,174.38c-1.19.31-.29,1.56,0,2.25v2.25h-.75c-2.07-4.46-2.15-4.34-3.43-9.08-.43-1.59-1.95-2.69-1.81-4.42,2.66,2.28,4.12,6.25,5.99,9Z"/>
  <path class="st5" d="M143.37,169.13c1.41.99,2.64,2.08,1.5,3.75-5.2-4.1-8.6-8.13-14.25-12,.44.15.77-.44.75-.75l.83-.8c4.22,1.95,7.94,5.21,11.17,9.8Z"/>
  <path class="st30" d="M97.62,184.88c-1.31,1.59-2.79,3.03-3,5.25-1.48-.23-2.99-.12-4.49-.76-.32-1.22.88-.46,1.3-.9.45-.47.08-1.12.19-1.34,1.48-2.98.99-1.14,1.5-1.5,2.82-2.08,5.48-5.06,6.34-8.88,4.32-2.75.19,7.18-1.84,8.13Z"/>
  <path class="st10" d="M18.87,98.63c.25,1.32,1.83,2.34,2.25,3-1.42.52-1.6,1.92-2.25,3-.97.82-1.81,1.79-2.25,3-.23.36-.64.57-.75.75-.88-1.58-.85-4.52,0-6,.52-.9,2.34-2.09,3-3.75Z"/>
  <path class="st44" d="M132.87,168.38c-.14-2.59.39-1.19,1.57-.45,1.52.94,10.02,6,10.42,6.46.12.14.28,1.44-.38,1.49-2.07.16-8.86-5.14-10.87-6.76-.27-.22-.48-.52-.75-.75Z"/>
  <path class="st132" d="M37.62,142.88c.87.03,3.1.77,5.25.75.68,1.91-2.84,1.64-5.25,2.25-.43.11-1.18-.23-1.72,0-.85.36,0,2.12-2.03,1.5.19-2.9.53-2.92-2.26-3.38-.01-.78,5.05-1.15,6.01-1.12Z"/>
  <path class="st127" d="M80.37,172.13c.48.04,1.14-.11,1.5,0,.56,2.59-1.9,1.11-3.75,1.5.61,1.28-.53,1.58-1.5.75-2.63-.91-6.83,2.21-8.25-.74,3.98-.47,7.91-1.83,12-1.51Z"/>
  <path class="st98" d="M83.37,178.88c-4.69-1.47-10.14,1.85-13.07,1.52-.7-.08-.36-1.47-.43-1.52-.6-.93-.25-1.27.75-.75,3.48.83,8.98-2.64,11.69-.8.53.36.71,1.2,1.06,1.55Z"/>
  <path class="st101" d="M39.87,137.63c-1.52,1.39-6.95.72-9.44.72-1.12,0-1.71.76-1.81.78-.69.11-1.13-1.63-1.5-2.25,1.58-.31,12.12-.85,12.56-.39.22.23.24.66.19,1.14Z"/>
  <path class="st12" d="M83.37,182.63c-1.34-.36-2.83-1.27-3.97-1.28-2.23-.03-6,2.76-7.28-.21,2.08-.15,5.16-1.68,7.1-1.49,2.07.2,3.01,2.24,4.15,2.98Z"/>
  <path class="st36" d="M27.87,122.63c2.08.83,1.39,2.23-.75,1.5-.6.11-2.6,1.78-3.75,3.75-.2.22.55,2.05-1.5,1.5-.03-.21.66-.75.67-1.14,0-.17-.91-.18-1.42-1.86.41-1.22,1.38-1.58,2.25-2.25.67-1.96,3.79-4.14,4.5-1.5Z"/>
  <path class="st5" d="M62.37,157.88l-.75.75c-1.61-2.4-7.69-11.69-6.99-4.67l-7.25,7.67c.6-2.44,2.38-4.72,3.74-6.75,1.79-2.65,1.09-2.66,3.75-4.5-.29-1.62.88-2.41,2.56-2.2.57.07,5.93,8.84,4.94,9.7Z"/>
  <path class="st116" d="M149.37,157.13h-1.5c.51,3.64-.46,7.04-.75,10.5h-.75c-.24-.17-.44-.35-.46-.54-.17-1.58-.91-9.52-.69-10.25.3-.95.73-1.17,1.89-1.2.88.48,1.66,1.19,2.25,1.5Z"/>
  <path class="st26" d="M149.36,172.12c-.06.06-1.58.28-1.47-.36l2.98-13.14c.18,1.98-.63,12.68-1.5,13.49Z"/>
  <path class="st163" d="M62.36,161.63c1.07,1.1-7.9,7.95-8.24,7.5-.26-.34-.29-2.39.91-2.48,1.62.04,6.41-5.95,7.33-5.01Z"/>
  <path class="st118" d="M131.37,172.88c.42-1.62,1.82-.43,2.66-.04,2.66,1.23,6.47,3.24,8.59,5.28-4.09-.38-7.55-3.63-11.25-5.24Z"/>
  <path class="st45" d="M78.12,173.63l4.5,1.49c-2.53.4-10.98.86-12.43,2.25-.27.26.44.71.44.76-.03.32-.31.89-.75.75-.48-.32-2.47.72-2.25-.74,2.97-2.55,5.27-2.79,9-3.76.18-.05.61-.56,1.5-.75Z"/>
  <path class="st49" d="M40.62,135.38c.65.21.65.46,0,.75-.31.39-.47,1.24-.75,1.5-3.9-1.57-8.58-.41-12.75-.75,1.03-1.32,3.6-.72,5.25-.75,1.89-.18,3.89-.43,6-.75.73-.02,2.08.01,2.25,0Z"/>
  <path class="st114" d="M107.37,165.38c1.55-.35,8.64-2.54,9-2.24.26.22-1.07,1.77-.74,2.24,2.54-1.46,1.03.05,1.49.75-.48-.07-1.08.1-1.5,0-3.26-.81-4.88-.44-8.25,0-.65-.21-.65-.46,0-.75Z"/>
  <path class="st81" d="M50.37,165.37c2.05-3.18,5.45-5.06,8.24-7.49.71.8-4.49,5.47-5.36,6.26-.97.88-1.03,1.65-2.89,1.23Z"/>
  <path class="st150" d="M30.12,75.38c.25.05.7.76.75.75-1.66-.13-10.08,4.13-10.49,3.75-1.32-1.2.94-1.59,1.49-1.85,2.45-1.13,6.11-1.69,8.26-2.65Z"/>
  <path class="st48" d="M32.37,61.88c1.07-1.15,1.9-1.93,3-3,1.26,4.12.53,7.28-3,3Z"/>
  <path class="st3" d="M30.87,72.38l.75.75c-2.87,1.27-5.9,2.17-8.64,3.74-2.69.04.32-1.21.39-1.49,2.47-1.06,5.01-1.99,7.5-3Z"/>
  <path class="st78" d="M24.12,108.38c-.32,2.94-6.1,5.96-6.75,9-.69-.32-.55-1-.75-1.5l7.5-8.25c.04.21.02.53,0,.75Z"/>
  <path class="st34" d="M49.62,150.38c-.59.71-.92,2.16-1.5,3-.18.26-3.13,5.51-2.99,2.64,1.41-1.96,2.29-4.51,3.74-6.39l.75.75Z"/>
  <path class="st43" d="M138.87,179.62c-1.88-.4-3.92-.84-5.75-1.4-1.22-.37-2.11.6-1.74-1.59,2.24.45,6.06,1.1,7.5,2.99Z"/>
  <path class="st56" d="M64.62,168.38c-1.54,1.92-4.29,3.22-6.75,3.74,1.02-1.63,4.96-3.62,6.75-3.74Z"/>
  <path class="st153" d="M68.37,171.38c.05,2.39-4.68,3.3-6.36,3.76l5.61-3.76c.22-.07.51.06.75,0Z"/>
  <path class="st128" d="M30.87,107.63l-.75.75c-1.48-.79-4.47-.86-5.25-2.99l6,2.24Z"/>
  <path class="st34" d="M127.43,180.99c-.09,0-.42.84-1.42.4-.45-.2-4.69-3.32-3.83-4.15l5.24,3.75Z"/>
  <path class="st117" d="M117.12,188.63l-.74-6,2.25,6.36c-.14,1.01-1.3-.43-1.51-.36Z"/>
  <path class="st138" d="M128.37,181.88c-.94-1.16-1.44-1.21-2.25-3-.41-.9-.91-1.37,0-2.25.74,1.78,1.54,3.43,2.25,5.25Z"/>
  <path class="st39" d="M15.87,96.38c.03-.29-1.27-2.5-.75-3,1.17-1.1,3.11.61,2.25,2.25-.29.29-1.1.44-1.5.75Z"/>
  <polygon class="st65" points="80.36 182.63 80.36 183.37 75.87 184.12 75.87 182.63 80.36 182.63"/>
  <path class="st101" d="M38.37,135.38c-1.26,1.35-4.11.71-6,.75v-.75c1.99.04,4.02.07,6,0Z"/>
  <path class="st106" d="M126.87,159.38v.75c-4.39.04-3.95-4.36,0-.75Z"/>
  <path class="st38" d="M50.37,154.88c-.05.18-1.66,2.21-2.24,2.25l1.49-3.75c.76.36,1.04.39.75,1.5Z"/>
  <path class="st134" d="M35.37,111.38c-.5-.24-1-.51-1.5-.75.71-2.33,3.12-1.11,1.5.75Z"/>
  <path class="st52" d="M85.62,181.13c-.89-.81-1.46-1.46-2.25-2.25,1.31.41,2.16.57,2.99,1.88l-.74.37Z"/>
  <path class="st77" d="M128.37,181.88c.65.8,2.07.98,1.49,3-1.19.22-1.06-1.87-1.49-3Z"/>
  <path class="st62" d="M124.43,182.49c-.98.31-3.77-1.12-3-1.48,1.34-.2,2.63.04,3,1.48Z"/>
  <path class="st111" d="M103.62,94.13c.08.78.05,1.04-.75.75l-1.59-.09-3.68-12.53c-1.74.05-2.73-.5-2.98-1.63l-1.62,1.03c-2.64-.94-7.26-1.3-8.83.91l-1.55-1.19c-.48,2.23-7.24,1.7-8.25,0-.21.66-.46.65-.75,0-1.19,1.73-2.44,3.23-3.75,4.5-.21.65-.46.65-.75,0l-2.25-.75c-2.39,2.06-.81-.25-.79-.11.25,1.96-.16,3.52-2.21,2.36.02,1.44.77,2.94,2.25,4.5,1.36-1.71,2.52-2.28,2.25.75,1.23.31,1.42,1.81,1.5,3,1.23.48,2.48.98,3.75,1.5v.75c1.43.54-1.65,2.82-1.51,2.69l11.94-10.83c3.44-.74,4.55,3.61.78,4.56l1.54.58c.71-.21.96.04.75.75,1.14.97.6,1.18-.75,1.5-1.42,1.31-2.67,2.31-3.75,3-3.51,2.05-6.26,4.55-8.25,7.5l.89.87c1.02.06,8.33-6.37,8.54-7.64,1.15-.84,6.79-3.21,5.8-.05-.35,1.11-13.04,10.63-15.24,12.07-.14.68-.39.65-.75,0l-4.7.72c-.98-1.89-5.33-2.32-6.55-.72.36.6.86,1.1,1.5,1.5.65.21.65.46,0,.75,1.83,1.71,4.44,2.48,7.83,2.32.08.77-.3,1.23-1.08,1.43-.06,1.02-2.11.36-1.99.38,2.27.01,3.68.63,4.24,1.87,1.47.55,2.72.55,3.75,0-1.18-.35-1.93-.85-2.25-1.5-.33-.65-.04-.88.75-.75.34-1.8.84-2.3,1.5-1.5.49.22.48.47,0,.75,1.31-.46,1.53-.42.75.75,1.71.17,2.07,1.6,1.5,3,.46-.28.96-.28,1.5,0,1.62-1.71,3.44-3.34,5.45-4.87.42-1.93,4.79-4.05,6.55-3.38.65.21.65.46,0,.75l.44.92c-2.11,1.55-2.51,2.74-1.19,3.58.93.57-.54,1.53-.48,1.45,2.5-2.98,5.32-1.67,7.98.8l2.07-.07c2.26-7.56,8.37-.38.9,3.16.21,2.76-1.77,4.26-3.72,2.17.33-1.46-1.08-.61-.75.75,1.62.53,1.62,1.28,0,2.25.98,1.01-.85,1.98-1.98,2.58-1.87-1.04-2.7.95-2.52,2.67-.73,1.08-.73,1.58,0,1.5l.82,1.31c1.44-1.07,1.16-1.5-.82-1.31-1.23.24-1.23-.26,0-1.5-.68-1.96,1.81-3.99,3.45-3.23.92-1.12,1.77-1.54,2.55-1.27-.27-1.53.68-2.98,2.84-4.33-.78-2.69,2.65-3.26,2.41.58,1.05-.45,1.78,0,2.19,1.38,2.27-2.21,4.17-4.74,5.68-7.58l1.88.2c-.26-.65.49-1.15,2.25-1.5-2.32-.48-4.32-1.23-6-2.25-1.24.93-2.67.12-2.25-1.5.23-1.43.82-1.35,1.5,0,2.58-.22,6.19-.41,8.25.75,0-1.38.5-2.13,1.5-2.25-.62-.2-.61-.46,0-.75-1.48-.29-1.98-.79-1.5-1.5-1.47-.68-1.24-1.84.71-3.49-2.11,1.37-4.1,1.78-5.96,1.24.93,1.44.22,2.8-1.5,3-2.47,3.68-3.47,2.18-3-4.5-1.05-1.13-1.3-2.63-.75-4.5-1.21-2.93-5.34-17.52-4.49-19.71.25-.64.91-.99,1.49-1.29-.45-1.87-.2-2.62.75-2.25,3.21,3.87,3.17,10.68,3,15.75.35.88.6,2.13.75,3.75.68.3.42.88,0,1.5,1.46-.04,2.03.97,1.72,3.02l1.28-.77c1.02.17,2.02.17,3,0-.34-2.93-.84-3.43-1.5-1.5-.75.34-1-.16-.75-1.5l-1.24-1.23c.94-4.73,1.87-18.08-1.84-21.2-.46-.39-.91-.38-1.42-.07l-1.36-1.52c-.45-4.65-.79-9.25-1.01-13.79l1.62-.44c-.91-1.01-.5-1.41.75-.75,2.2.86,4.46,1.13,6.79.82l1.46,1.43c.44-1.26.95-1.32,1.5,0,.44-1.65,5.79-4.1,5.25-1.5,4.29,1.01,6.02,7.09,5.25,12,.7-1.1.95-.85.75.75,1.6-.05,1.15,1.79,0,2.25,1.85-.27,1.51.96.75,2.25.66.21.65.46,0,.75,1.08-.15,2.08.1,3,.75.78,1.57.78,3.57,0,6h.75c1.82.73,3.75-.23,5.78-2.85l7.22-7.82,1.25-3.58c-.54-1.21-.44-1.45.75-.75,1.92-.73,1.43.22,1.28.1-1.15-.97-.77-1.48.97-1.6-.66-1.92.03-1.95,1.5-.75-.2-.7.05-.95.75-.75-.06-1.87.44-2.62,1.5-2.25.53-1.04,1.03-1.64.76-3,.48-.05,1.49,1,1.49,1.13v27.75c0,1.76-6.06,7.17-6.75,9.37,1.73.72,7.25-3.36,6.75,0-5.89.17-9.69,1.96-12,7.5,3.24.35,6.12-.8,9.36-.77,1.13.01,3.01-.63,2.63,1.14-3.32,2.69-9.28.14-12.98,1.28-1.59.49-2.47,3.13-3.52,4.36.87.67.37,1.17-1.5,1.5-.8,1.04-2.02,2.11-2.25,3.36.27,1.29,5.32,1.57,6.75,1.89.29.67-.46.92-2.25.75-1.13-.17-2.54.07-3.75,0-1.35-.5-1.77-.23-1.23.81-2.48,2.22-4.45,4-5.52,7.23l-1.49.21-5.12,9.18-1.63.57c-2.1,1.39-7.46.14-9.75-.75-.14.67-.39.64-.75,0-2.12,1.61-3.15,1.6-5.25,0-.14.66-.39.64-.75,0-2.21,1.07-2.91,1.08-2.08.01-2.46-.43-3.52-1.18-3.17-2.26-.63-1.16,1.31-3.98,2.28-5.37.5-.73-8.35,14.59-10.57,13.84-.04,2.97-2.91,5.89-5.2,3.53-.22.55-.47.54-.75,0-2.77,2.3-3.69-.09-2.25-3-1.36,1.05-1.78.64-.75-.75-1.84-2.04.13-1.23-.34-.62-1,1.3-3-2.02,1.09-2.38l-1.54-.18c-.18-1.36-1.17-2.55-2.96-3.57.3,1.79-.13,1.91-1.5.75-.18.67-.44.65-.75,0-1.03,1.6-1.78,1.85-2.25.75-.18.69-.44.68-.75,0-1.57,1.94-2.83.2-3.75-1.5-.25.65-.5.65-.75,0-.47-.09-1.18.14-1.5,0-.6.18-1.35-.32-2.25-1.5.18.92.14,1.21-.75.75-1.12.94-1.49.53-.75-.75-1.75-.9-1.99.66-2.62-1.5l-4.13,3.74c.6-1.67.51-2.83-.01-4.49l-2.23,1.5c-.41-1.72,1.61-1.49.74-3-1.22-2.12-1.64-1.13-3.75-.76-.38-.28,2.27-2.1,1.49-2.99-1.42-1.61-1.46,2.21-2.24,1.49.44-1.56-2.86-2.86-2.94-3.06-.56-1.45,3.73-4.22-.08-3.32l.64-1.78c-.39-.21-1.29.03-1.38-.08-1.87-.5.68-1.84.57-1.76-2.74,2.13-4.46,3.3-3.4-1.54-2.3,2.81-4.52-.62-2.68-3.27-1.58,1.43-2.51,1.27-2.74-.93.12-4.98-.08-10.01,0-15-1.31-.17-.7,1.7-.74,2.61-.15,3.61.11,7.27,0,10.88l-.74-1.5c-.98-5-1.88-10.02-3-15-1.24-5.5-3.03-10.88-3.75-16.5l-9,.74,7.19-2.28c2.25-.64,1.68,1.45,1.8,1.54.07.05,1.2-.83,1.41-.66.77.61,6.41,13.55,6.85,15.66,1.82-.3.36-3.57,0-4.5,4.24-2.25-2.58-4.74-2.25-8.25,2.45,1.65,3.95,1.4,4.5-.75.33-.73,1.08-1.23,2.25-1.5-.65-.96-.15-1.21,1.5-.75-1.65-1.17-1.23-1.69.75-1.5-1.65-1.45.51-3.48,2.25-3.75v-.75c.87-1.57,1.87-2.07,3-1.5-.94-1.94-.42-2.1,1.5-1.5-.89-2.47,2.93-4.43,5.25-3.75-1.04-.94-.58-1.18.75-.75l.13-1.12c.79,1.08,3.38-1.35,3.62-2.63-.06-.24.07-.53,0-.75,1.73-1.43,8.65-1.41,9.75.75.69-1.45,1.56-1.45,2.25,0,5.07-1.76,10.62-2.31,16.64-1.64l.61-.61c-.54-1.21-.44-1.45.75-.75.4-.07.8-.12,1.19-.09,3.82.31,9.78,28.01,10.11,32.95.02.28-.33.58-.79.88Z"/>
  <path class="st90" d="M81.87,48.38l-.75,2.24c3.72-1.08,7.42-1.19,11.25-1.49l-12,2.99,17.99-2.24,1.51,9.01c2.08.6,1.69-1.6,1.5-3,.21-.65.46-.65.75,0,.39-1.8.43-3.69.13-5.68,6.54-2.1,4.97,2.15,2.68,6.37l.95.81c.38,1.23-.32,2.87-2.09,4.93.42,5.46,1.29,10.86,2.6,16.2l-1.27,1.37c-.96.36-.74,1.43-.75,2.25l-1.95-1.86c-1.12-9.35-2.96-18.3-6.62-26.91-5.69-.1-11.33-.01-16.93.27-1.33-4.33.68-8.29.84-11.61.11-2.41-1.15-4.7-.83-7.14,1.07-.16,1.17,2.06,1.28,2.83.53,3.46.06,7.39,1.71,10.67Z"/>
  <path class="st53" d="M107.37,38.63l1.68.28c.5,3.35,1.69,4.76,3.57,4.22-.26-1.12,1.51-3.31,2.37-3.59.39-.13,6.77.83,7.38,1.34-.35,3.14-7.51.81-7.11.74.2-.04,2.3.92,1.86,1.51v1.02c-2.45.25-3.7,1.41-3.75,3.48v1.5c5.84,1,11.65.32,17.4-.89l.6.89c2.18-.23,2.93.27,2.25,1.5-2.12,1.22-6.24,2.43-7.88.75-.05.58-.22,1.38-.65,1.43-2.64.3-9.16.3-10.6-1.43.16.74.04,1.49-.38,2.25.66.22.65.47,0,.75,3.45,1.5,8.06,1.99,13.84,1.49l.41.76c-.11-1.49.7-1.05,1.5,0,1.93.51,1.84.78,0,1.5,1.14,1.14.67,1.62-.75.75-3.16-1.08-7.28-1.13-12.37-.14l-1.13-.61c-.21.65-.46.65-.75,0l-1.6.05c-1.23-2.62-1.98-2.95-4.4-3.8-2.4.88-2.78-3.12-.93-4.52l-.57-1.48c-1.49.55-3.12.09-2.25-1.5,4.47-.69,3.97-.94-1.5-.75-.73.24-.98-.01-.75-.75,1.86-.09,3.45-.06,5.24-.76l-6.36-1.5,1.86,1.5h-4.5c.71-3.29,3.45-2.52,6-2.99-.17-1.41,1.05-.65.97-.67-3.98-1.39-.79-5.15,1.28-2.33Z"/>
  <path class="st166" d="M137.37,122.63c-4.03.57,1.31.86,3.36,1.52.52.17.35.72.39.73.76,1.02,5.33,1.88,7.92,1.84,1.45.83.26,1.64-1.17,1.91-.81,1.26-1.2,2.01-.37,3.48-.5,1.21-10.97-1.53-11.63-3.48-2.06-.42-2.64-.48-3.75,2.25-.99,1.12-1.74,2.37-2.25,3.75.16,1.63-.76,4.32-2.81,2.94-1.93-1.3,1.01-5.35,2.06-6.69.79-2.1,4.89-9.01,7.11-8.98.63,0,1.03.73,1.14.73Z"/>
  <path class="st14" d="M129.12,130.88c-.65,1.72-1.04,4.15-1.49,6,.95-.3,1.6-1.48,2.24-2.25.32.63,1.11.74,1.1.51-.08-1.51,3.54-5.9,4.12-1.22-3.98,4.27-4.57,6.28-1.77,6,2.59.68,3.93,1.67,4.04,2.96,1.84,1.13,1.28,1.7-.75,1.5-4.46-.86-5.89.33-9.75,2.25-2.81-1.71-1.07-.66,0-2.24l-2.99-.76c-.65-.73-1.15-1.73-1.5-3,.15-2.56,4.36-8.4,6.75-9.75Z"/>
  <path class="st61" d="M135.12,42.38c.58.34,1.61.43,2.04.92,1.56,1.75-.33,3.64,3.2,2.08l-.74,2.24,2.24-1.5-.74,3.75c1.26.19.75-1.94,1.94-2.2.7-.16,1.66.92,2.55.72l-2.24,4.49c1.47-.02,2.01-2.74,2.33-2.97.65-.47,1.23.65,1.42.72-1.03,1.63-1.53,2.88-1.5,3.75.07.06,0,1.09,0,1.5.68.2.67.45,0,.75-1.94.78-3.19.78-3.75,0-.8.09-1.06.07-.75-.75l.16-1.1c2.38.65-3.21.05-3.91-3.4-.85-.54-2.1-.79-3.75-.75l-2.25-1.5.1-1.05c-2.59.91-4.87,1.01-6.85.3-1.02.4-1.28.27-.75-.75,2.44-1.38,5.43-1.98,8.25-1.5-.87-3.23-.38-5.2,3-3.75Z"/>
  <path class="st110" d="M145.62,138.38c.25-.65.5-.65.75,0,.95.21,5.14,1.5,6.05,1.85.78.31,1.1.97,1.45,1.15-.43-.13-2.17.72-3.28.68-.95-.03-3.73-1.17-4.21-.69-.15.15-.78,3.87-.76,4.07.09,1.06,7.81,1.81,8.26,4.18-1.44,0-7.63-2.69-8.23-2.25-.34.25-.13,3.15-1.51,3,1.54-4.41-3.91-5.3-7.51-6l.75-1.5.4-.93c9.35,2.09,6.8-.48-.7-1.57-5.22-4.56,7.41-5.42,8.56-2Z"/>
  <path class="st81" d="M135.12,42.38l-3,.74,3,.38-2.27.76c.14.52.98,1.61.76,1.86-.11.13-1.05-.09-1.5,0-.9,0-1.4-.25-1.5-.75-7.41-1.61-8.43-1.97-3.05-1.08l.05,1.08c-.49,1.88-6.41,2.86-6.75.75-1.89-.58-4.3-.7-6,0,1.22,1.13-.25,1.9-1.5,1.5l-1.5-1.12c.5-1.2,4.02-3.22,5.25-3.38.47-.78,1.03-.78,1.5,0,4.64-.16,9.39-.91,14.25-2.25,1.08.22,1.56,1.09,2.25,1.5Z"/>
  <path class="st129" d="M105.12,41.63c-2.31-1.93-5.69-.11-8.25,0l3.58-2.93,3.91-.82c-.17-1.6-5.2.05-5.23-1.87-.02-1.15,3.49-1.33,4.49-1.13l-.76-1.49c1.19.32,3.19-.05,4.16.15,1.06.23-1.09.81,1.85.59,3.1,1.23,1.83,5.89-1.5,4.5-.33.27-1.83.09-2.25,1.13,2.46.96,2.56,1.39,0,1.87Z"/>
  <path class="st48" d="M135.87,128.63c2.17,1.06,8.5,4.09,10.5,2.99.16-.09-1.15-2.38,1.5-2.99,1.89.98,2.01,1.39,0,2.25.41,1.16,5.84,1.22,6,4.49l-6.75-2.24c-.15,1.75,4.58.67,3.74,2.61-1.03,2.39-4.11-1.47-4.49,2.64-.24-.05-.51.05-.75,0-1.12-.93-2.36-1.69-3.73-2.26l-.8-2.63c-3.39-.69-5.38-2.06-5.97-4.11-.99-1.05-.57-1.44.75-.75Z"/>
  <path class="st48" d="M146.37,167.63c-.03.88.57,3.15-.74,3-.25-6.36-.88-12.82-3.42-18.71l-8.58-4.53c5.66.63,10.35,4.45,15.74,6-1.28,3.25-3.68-1.57-6-.75.49,2.65,2.1,2.09,3.75,2.99-1.42,3.65-.61,8.05-.75,12Z"/>
  <path class="st116" d="M108.87,34.13c3.25-.25,1.86,1.38,2.62,1.51.36-.24.67-2.96,1.87-1.51.48.58-1.3,2.47-1.5,3.75,1.68-.86,2.93-1.11,3.75-.75,1.36-.36,5.05-.31,6.75-.74l-.75,1.49c-4.91.66-7.91,2.41-9,5.25-.71.77-1.51,3.08-3.03,1.9l-2.22-6.4c1.8-1.45,2.44-2.12,1.5-4.5Z"/>
  <path class="st149" d="M81.87,43.13c-.01-3.11-.05-5.96.76-9l1.48,5.99v-5.99s2.25,2.24,2.25,2.24c-.2-3.31,1.71-3.21,4.51-2.99-1.46,2.31-2.74,4.62-4.5,6.74-.73,1.06-1.35,2.15-2,4.13.51,2.88-2.48,1.91-2.5-1.13Z"/>
  <path class="st51" d="M150.12,53.63q-1.5,2.48,0,0c1.02,1.16,3.79-.4.75,3.75-.12,2.14-.52,4.32-3,3-.94,1.27-2.49,2.12-4.65,2.55.12.54.18.99.02,1.1-2.04,1.36-5.41,3.58-7.37,3.85-1.03-.98-.89-2.1.42-3.38-3.39-2.43,2.86-5.25,5.64-5.23-.89-1.61.34-2.49,3.69-2.64.06-.12,0-.5,0-.75,2.02.3,2.29-2.77,4.13-3.75.79-.06.17,1.27.37,1.5Z"/>
  <path class="st164" d="M74.37,52.88c4.1,3.25,2.06,1.61,3.2.97.65-.37,1.03-.14,1.3-.22.65.21.65.46,0,.75.26.32,0,.57-.75.75,1.97.67.98,1.88-.75,2.25l11.05,1.16c1.99.96,2.33,2.74.05,3.48-4.31-1.11-8.26-1.4-11.85-.88-.26.48-.76.98-1.5,1.5.65.21.65.46,0,.75-.75,0-1.5,0-2.25,0l-1.28-.98c2.17-3.71-1.77-6.03-4.85-7.67-.58-1.32,1.23-3.01,2.64-2.18,1.06,1.84,3.28,3.92,4.23,2.58.21-.61.46-1.36.75-2.25Z"/>
  <path class="st144" d="M155.37,151.88c.16.15,1.33-.46,1.54.44.34,1.47-.31,3.89-.04,5.55-3.41-.48-8.49-1.21-5.91-5.6.75-1.27,2.35-.03,2.91-1.9,1.21-1.11,1.71-.61,1.5,1.5Z"/>
  <path class="st158" d="M135.12,158.63c3.06.8,6.42,5.95,7.5,9,.31.43.47,1.04.75,1.5-.04-.03-.38.7-1.09.09-3.99-3.4-5.36-7.57-10.91-9.09-.01-.21-1.5-.32.75-1.5v-.75c.59.39,2.25.36,3,.75Z"/>
  <path class="st104" d="M141.12,124.88c1.63.48,4.84,1.39,6.38,1.51,1.99.17,5.36-.82,6.38-.41,1.41.57-.83,2.37-.96,2.41-1.52.47-4.05-.44-4.29.98,4.42-.95,7.08,2.08,8.24,6.01-3.26-3.02-3.59-5.56-8.99-4.5-.11-.31-.07-1.78,0-2.25.06-.41,1.05-1.29.75-1.49-2.09.09-4-.67-5.98-1.16-.79-.2-3.15-.06-1.52-1.09Z"/>
  <path class="st70" d="M136.62,157.88c-.95-.98-6.86-5.09-5.99-6,2.4,1.14,4.63,3.56,6.81,4.84.85.5,2.34.19,2.79.56.4.33,2.09,6.85,2.4,8.11-2.36-1.08-5.04-5.1-6-7.5Z"/>
  <path class="st16" d="M140.37,115.13c4.04.9,11.83-.11,15.24.72.73.18,1.51,2.72,1.26,3.02-1.2,1.44-1.52-1.38-2-1.49-4.99-1.13-10.89-.61-15.99-.75.42-.55,1.05-.97,1.5-1.5Z"/>
  <path class="st118" d="M112.62,43.13c-1.71-1.41,2.23-4.01,2.63-5.25.69,2.8,1.12.5,3.19.15,1.15-.19,2.12-.08,3.19-.15.25-.02.5,0,.75,0,.38.5,1.38.75,3,.75.06.75.58.63.75.75l3,.75v.75c-2.49,1.68-7.27,2.88-10.5,2.25-.49.02-1.02-.06-1.5,0l-1.86-1.51c2.86,1.11,4.6,0,7.11-.74q2.99-.6,0,0c-2.04.04-5.94-.62-7.16-.44s-1.88,1.93-2.59,2.69Z"/>
  <path class="st89" d="M102.87,45.38c.24.25.46.56.75.75.8,0,1.3.26,1.5.75.56.79,1.37,1.18,2.25,1.5.87,1.97-.84,3.13-1.8,1.39l-1.12.73c-1.6-1.4-2.37.39-2.33,5.38h-.75c-.47-3.43-1.22-6.89-.75-10.5.75-.04,1.5.04,2.25,0Z"/>
  <path class="st105" d="M143.37,121.88c3.97.89,7.16,2.06,11.25.75.14,2.78-2.9,2.41-4.8,2.19-2.64-.31-5.97-1.8-8.69-2.2l2.25-.75Z"/>
  <path class="st68" d="M86.37,40.13c.57,1.25-1.66,4.31-1.5,4.49.24.28,1.79-.61,1.5.75-2.04.28-3.19,1.66-4.49,3.01,0-1.75,0-3.5,0-5.25l1.49,2.24c.54-1.02,1.23-4.63,1.68-5.1.37-.38,1.25-.06,1.33-.14Z"/>
  <path class="st6" d="M136.62,157.88c2.42,2.5,3.54,5.23,6,7.5.12.51,1.24,1,0,2.25-1.97-2.69-5.18-7.78-7.5-9l1.5-.75Z"/>
  <path class="st53" d="M132.87,40.88c-3.42,1.34-8.17,2.53-11.79,2.97-1.6.2-2.34-.73-2.46-.72,3.44.19,7.31-1.93,10.5-2.25.93-.09,2.93-.17,3.75,0Z"/>
  <path class="st32" d="M66.12,42.38c1.48-.86,4.34-.46,3,1.5-3.49,2.53-5.43-1.75-8.99-1.51h5.99Z"/>
  <path class="st7" d="M96.12,33.38c-2.3,2.53-4.93,6.39-8.25,7.49,2.3-2.53,4.93-6.39,8.25-7.49Z"/>
  <path class="st42" d="M154.62,66.38c-.52,1.02-.91,1.42-1.5,2.25-2.6-1.82-4.02-8.27-2.25-11.25.8-1.04,2.57,8.47,3.75,9Z"/>
  <path class="st104" d="M132.12,157.88v.75l-6.01-4.87c2.72-1.62,4.64,3.22,6.01,4.12Z"/>
  <path class="st142" d="M122.37,37.88c1.25,0,2.51-.02,3.76.01.07.49-.76.68-.76.74l-8.25,1.49,5.25-2.24Z"/>
  <path class="st142" d="M70.61,38.63c1.76,1.63-4.82,3.7-5.99,1.12.88.04,5.77-1.33,5.99-1.12Z"/>
  <path class="st66" d="M76.61,52.88c-2.12-1.68-3.96-4.85-4.49-7.5l4.49,7.5Z"/>
  <path class="st89" d="M73.62,39.38c1.33,2.59,2.64,5.3,2.99,8.25l-3.74-7.5c-.04-.7,0-.99.75-.75Z"/>
  <path class="st135" d="M143.36,162.37l-2.24-5.99c3.26-.02,2.12,3.89,2.24,5.99Z"/>
  <path class="st92" d="M66.12,42.38c2.44-1.81,5.42-1.14,5.24,2.25-.65-.35-1.71-.46-2.24-.75-.37-.2-1.07-2.2-3-1.5Z"/>
  <path class="st51" d="M147.12,50.63c.36.12,1.02-.09,1.49,0v.73c-1.98-.28-1.33,2.3-2.99,3.01-.22-.2-1.54.41-1.5-.37l3-3.38Z"/>
  <path class="st105" d="M111.87,37.88c1.8-.76,2.54-3.23,4.5-2.99l-.75,2.24c-1.64.44-2.27.83-3.38,2.25-.63.04-.45-1.02-.37-1.5Z"/>
  <path class="st90" d="M78.12,37.88c.37,1.44.35,3.67.75,5.25h-1.49c-.12-1.47.15-3.04,0-4.5-.56-1.08-.36-1.39.75-.75Z"/>
  <path class="st85" d="M153.87,149.63l2.99-1.5v3c-1.56-.8-1.63-1.25-1.49.75-.28-.26-1.47-1.4-1.5-1.5-.07-.22.06-.51,0-.75Z"/>
  <path class="st16" d="M92.37,49.13l6-1.49c-.94,2.33-4.07,1.34-6,1.49Z"/>
  <path class="st152" d="M74.37,52.88c-2.4.2-6.56-4.37-6-6.75.26.03.55-.06.75,0,1.43.46,4.42,5.34,5.25,6.75Z"/>
  <path class="st72" d="M156.86,119.63l-.37,2.99-1.87-1.88c-.37-1.62.76-1.1,2.24-1.11Z"/>
  <path class="st77" d="M97.62,37.13c-.74,1.55-2.71,3.02-4.5,2.99.81-1.34,2.88-2.89,4.5-2.99Z"/>
  <rect class="st111" x="154.62" y="57.38" width=".73" height="4.49"/>
  <path class="st76" d="M153.87,141.38c1.02.53,2.65.56,3,2.24-1.56.75-2.7-2.15-3-2.24Z"/>
  <path class="st1" d="M156.86,139.13c-1.22-.54-2.48-1.65-2.24-3,1.22.54,2.48,1.65,2.24,3Z"/>
  <path class="st109" d="M156.11,145.14c.1.1-.04.49,0,.73-.62.29-4.16-.49-3.74-1.49.4-.19,3.51.53,3.74.75Z"/>
  <path class="st75" d="M126.12,39.38h3.75s-.75.75-.75.75c-1.41.24-1.89.06-3-.75Z"/>
  <path class="st59" d="M73.62,39.38l-.75.75-.74-3c1.41.11,1.14,1.55,1.49,2.25Z"/>
  <path class="st39" d="M78.12,37.88l-.75.75c-.02-.15-1.47-1.44-.74-3,.76-.31,1.26,1.36,1.49,2.25Z"/>
  <path class="st100" d="M122.37,140.63l1.5,3.75c.05.68.08,1.58,0,2.25-.78.92-1.03,1.92-.75,3-.86,1.34-2.9,2.24-4.5,2.26l3.74,1.87-3.74.38c-.14,1.57,2.31.36,3.01.75.2.11.07,3.01-1.51,3.74-1.3.6-.96-.45-3,1.5-1.71,1.78-2.96,2.03-3.75.75-3.46.94-2.93-.74,0-1.5l3-1.5q2.91-1.19,0,0c-1.16.79-2.41,1.29-3.75,1.5-1.4,2.24-6.67,2.97-6.75-.08,0-.37,2.34-4.5,3.59-5.3-.82-3.08-.27-6.28,1.66-9.62.39-1.57.89-3.07,1.5-4.5.17,0,1.48-.9,3.31-.78,1.36.09,5.43.86,6.44,1.53Z"/>
  <path class="st166" d="M100.62,137.63c.74,1.4.49,1.9-.75,1.5-.33,3.68.67,7.43,3,11.25,1.57-1.02,2.45,1.76.75,2.25.52,2.57.88,5.26,1.09,8.07l-1.84.18c-.16-.87-1.13-1.09-1.5-1.5-1.62.4-3.05-.91-1.5-2.25-1.94-2.47-3.44-4.97-4.5-7.5-2.32,1.09-4.21,3.12-5.67,6.07-.79.32-2.51-4.96-2.58-6.07,1.88-.94,3.23-.52,3.75-2.99l-4.5-.75c8.32.8,11.59-9.39,16.88-14.25.53,1.86-1.69,4.24-2.63,6Z"/>
  <path class="st122" d="M99.87,169.13c-1.05-.2-2.66-1.02-3.75-1.5q-3.7-2.63,0,0c.21.33,1.2,1.53.37,1.51l-4.87-1.5,4.51,2.62-4.5.37,6.74,2.65c.47,2.17-2.55.63-2.99,1.11-.13.14.11,2.26-.17,3.18-.68,2.18-2.15,4.13-2.11,6.57-.32-.1-.66-.77-.71-.75-.38-1.69,2.61-10.1,2.25-10.49-.79-.86-2.07.62-1.85,1.49l-1.9,7.51v-11.25c-4.09-.13,1.21,7.52-1.49,9l-.77-6.74-1.48,2.99c-.34-1.91-1.36-5.13-2.26-6.75l5.01-8.54.99.29c2.2,3.26,7.58,4.62,9,8.25Z"/>
  <path class="st38" d="M102.87,160.88c.04-.35.95-.8.65-2.4-.64-3.45-5.61-9.8-5.89-14.1l5.25,10.11.75-1.86c1.19-.95,3.04,5.27,2.99,6s-5.01-13.9-2.24-13.5c-.36-2.97,2.54-1.68,2.72,1.15,1.36-.9,2.71-1.54,4.03-1.9-.48,3.3-1.89,5.97-.74,9l4.12-3.74c.88,2.97-7.81,6.97-7.13,10.11.37,1.71,4.11-.02,5.25-.36h.75c-1.58.85-2.52,1.67,0,1.5-.23,1.81-4.04,2.71-5.25,1.5-1.2-.34-2.45-.09-3.75.75-.75.03-1.5,0-2.25,0v-.73c2.64.22.69-1.02.75-1.51Z"/>
  <path class="st18" d="M95.37,149.63c.33.66.05.88-.75.75.07,1.93-.84,4.04-2.73,6.33l7.08,1.36c.81.44,1.14,1.11.9,2.06,1.65,1.59,2.16,4.87-.48,5.93-3.22-1.88-5.18-3.53-8.52-5.18-3.89,3.51-5.27-1.04-5.16-5.01,1.57.19,1.12-5.17-.32-4.85l.98-1.39h.75l2.26,5.25,4.87-6.73c.62.31.77,1.06,1.12,1.49Z"/>
  <path class="st124" d="M99.87,157.13c.46.54.73,1.39,1.5,2.25l-1.5.75c-1.63-1.56-9.39-.64-9.65-3.36-.1-1.03,3.26-5.42,4.4-6.39,2.06,1.83,3.81,4.08,5.25,6.75Z"/>
  <path class="st99" d="M117.12,160.13c-2.09,2-.62,2.15-.75,2.24-.58.45-12.66,2.75-14.25,2.64.75-.59,1.47-1.34,2.25-1.88,1.33-.88,2.58-1.13,3.75-.75,1.73-.34,3.56-1.05,5.25-1.5,1.23-.33,2.46-.71,3.75-.75Z"/>
  <path class="st64" d="M107.37,165.38v.75c-1.07.14-3.3,1.67-4.51.37,0-.36,3.6-.92,4.51-1.12Z"/>
  <path class="st91" d="M39.87,115.88c2.49,2.14,2.2-4.4,4.49-4.5,1.92,4.47-.72,5.18-1.48,9l3.73-3.75c.98,2.81.19,3.52-.73,6l2.99-1.49c.29.28-.85,2.13-.75,2.24-1.76,2.69-6.8,3.83-9.75,2.25,1.46-.96,1.71-1.46.75-1.5v-.75c1.47-.68,1.97-1.18,1.5-1.5h-.75c.46-1.04-.79-1.79-3.75-2.25-4.35.52-8.84,1.6-12.75,3-.04-.23,0-.51,0-.75-.39-.97.45-2.25,1.5-2.25.73-.2,1.37-.61,2.25-.75,3.5-1.21,7.93-1.98,11.62-1.52l1.13-.73c.02-.25,0-.5,0-.75Z"/>
  <path class="st125" d="M25.62,133.13c.89-.76.43-.62,1.87-.75,6.82-.65,13.83.21,20.63-1.49l-10.13,2.99c-4.1-.17-8.43.6-12.37-.74Z"/>
  <path class="st57" d="M39.12,124.13c1.61-.26,5.51-1.25,6,.74-2.26.04-4.52.44-6.75.76s-3.41.74-6,.75c.54-.65,5.45-2.04,6.75-2.25Z"/>
  <path class="st61" d="M52.62,133.88c-.28.72-.92.6-1.5.75-3.36.86-7,1.49-10.5,1.5v-.75c3.43-.25,9.63-2.19,12-1.5Z"/>
  <path class="st119" d="M84.87,169.13c-.75-1.34-1-1.59-2.58-1.57-2.64.03-14.34,3.16-15.42,2.32-.08-.34.05-.61.38-.74,2.14-.81,6.08-1.47,8.62-2.26.43-.52-.07-.77-1.5-.75-1.32.36-3.09.54-4.5.75-2.87-.66,1.63-3.87,3-2.25,4.06-2.14,8.06-4.14,12-6,4.08,1.74,4,7.72,0,10.5Z"/>
  <path class="st120" d="M82.62,154.13c1.17-.89,1.55-.49.75.75,2.83-2.25,3.59,3.1.75,3-3.08,2.76-6.83,5.01-11.25,6.75-1.55.7-1.83,1.73-2.99.75v1.5c-.11.02-.59.89-1.09.76l-.81-.76c-.73-.68.41-1.42.4-1.5,2.49-4.15,7.17-8.31,11.25-11.25-.16-2.67,3.13-2.9,3,0Z"/>
  <path class="st11" d="M70.62,157.88c-.64.48-1.36.85-1.88,1.5-.56.12-.51-.77-.36-1.11.91-2.14,2.75-4.33,3.74-7.14-1.03-.76-.67-2.49.75-2.25l-.39-8.34,1.89.09c.13.06.53.02.75,0,.69.39,1.44.14,2.25-.75.24-.04.5.04.75,0,.56.34,1.05.82.89,1.35-1.82,6.17-3.71,12-8.39,16.65Z"/>
  <path class="st111" d="M54.87,148.13l3.74-1.5c1.14,4.64,6.46,10.45,7.5,14.64.1.41.22,1.22-.36,1.1-1.49-1.23-2.28-2.98-3.38-4.5-1.73-2.39-3.82-6.32-5.61-8.27-1.53-1.66-.9.08-1.89.77-1.31-.32-.06-1.75,0-2.25Z"/>
  <path class="st119" d="M77.37,151.88c1.59-.3,2.09-.05,1.5.75.65.25.65.5,0,.75-.71,1.5-9.32,10.52-10.06,10.57-.61.05-.78-.86-.44-1.57.62-1.33,1.56-3.19,2.25-4.5,1.66-2.32,3.41-4.32,5.25-6,.22-.47.47-.46.75,0,.21-.66.46-.64.75,0Z"/>
  <path class="st68" d="M66.12,137.63c1.61-.41,1.72,1.28,2.25,1.5-.51.74-.97,1.53-1.5,2.25-.19.26-1.34.45-1.44,1.2s1.13,1.87,1.38,2.99c.47,2.13.52,4.19.81,6.31.31.58.31,1.68-.12,1.73-.91.1-4.33-11.33-4.09-12.39,1.59-.89,2.5-2.09,2.71-3.59Z"/>
  <path class="st139" d="M66.12,137.63c1.67,3.24-.58,1.9-1.58,3.32-1.22,1.74,2.16,8.77,2.14,11.5l.94-.58c.1.74,1.42,2.27.74,3.75l-1.49-.75c-1.26-4.14-2.98-8.36-3.75-12.75-.07-.43-.78-1.17-.75-1.5,1.02-1.06,2.02-1.81,3-2.25.19-.17.18-.61.75-.75Z"/>
  <path class="st133" d="M79.62,154.13c-3.77,3.38-7.42,7.82-11.25,11.25-.21-1.62-1.02-.82,0-3,.31,1.5,1.91-.78,2.25-1.13,2.78-2.8,5.63-4.88,8.25-7.87,1.05-.99,1.44-.57.75.75Z"/>
  <path class="st23" d="M72.87,148.88c-.25,1.27-.34,1.08-.75,2.25-2.14,1.34-1.34.76-1.38-1.04-.08-3.65.28-7.4-.87-10.96.24.05.51-.06.75,0,2.06,2.12,2.81,5.37,2.25,9.75Z"/>
  <path class="st52" d="M74.37,166.13c3.1-.85,6.38-2.86,9.75-3,.33,1.9-.29,1.35-1.5,1.83-1.96.78-4.57,1.23-6.75,1.91l-1.5-.75Z"/>
  <path class="st67" d="M66.87,141.38c2.06,2.06,2.42,5.49,2.24,8.25l-2.24-8.25Z"/>
  <path class="st22" d="M58.62,67.88c-1.38.95-3.9,2.72-5.25,3.75-.86,1.29-7.2-3.23-7.5-3.74-.22-.37,7.35,4.34,6,5.24-.89.75-1.18,3.05-3,1.5-1.44-1.19-2.94-2.44-4.5-3.75-.72.22-.97-.03-.75-.75-1.02.85-1.45.49-.75-.75,2.21-.57.64-2.19.75-2.24.78-.37,3.34.25,4.5-.01.1-.63-3.54-1.49-3.75-1.49-.65-.21-.65-.46,0-.75,1.51-.15,3.62-.71,4.5-.75.22-.28.46-.52.74-.65.89-.39,8.13,3.24,9.01,4.4Z"/>
  <path class="st166" d="M52.62,58.88c2.07,1.06,4.07,2.06,6,3l1.51,4.5c1.88-1.13-.84-3.84,2.99-3l3,2.24c-1.68.5-5.41.88-6.75,1.51-2.67-.36-7.53-2.48-9-4.5.69-.34,1.68-.78,1.5-1.49-1.47-.67-5.53,2.35-6.75.74-.39-1.22.58-1.48,1.5-.75,1.04-.34,1.86-1.37,2.25-1.5.64-.83,2.73-1.35,3.75-.75Z"/>
  <path class="st22" d="M53.37,55.13c.52-.39,7.17,1.23,7.4,1.6.63,1,.21,3.38-.65,4.4-2.01.47-5.84-.57-6.75-2.25-1.47-.26-2.97-.26-4.5,0-.28-.22-.5-.49-.75-.75.36-.4,1-.63,1.5-.75,1.5-.53,2.75-1.28,3.75-2.25Z"/>
  <path class="st145" d="M36.12,67.88c.51-1.12,6.49-.97,6.75-.75.1.08-.81.69,0,2.25.12.23.54.46.75.75.68,3.94-1.95,2.32-3.75,0-.66,1.56-1.95,2.12-2.49.38l-1.26.37c-3.97-1.6,4.51-2.27,4.51-2.62-1.01-.59-3.38-.55-4.51-.38Z"/>
  <path class="st75" d="M50.37,62.63l9,4.5c-.38.18-.54.61-.75.75-2.75-.86-6.98-3.87-9.75-3.75-.23-2.23.2-.86,1.5-1.5Z"/>
  <path class="st156" d="M46.62,61.13c-.51.17-.99.59-1.5.75-.41.13-5.22,1.22-5.24,0,1.97.4,5.61-3.69,6.74-.76Z"/>
  <path class="st103" d="M44.37,64.88v.75c-.44,0-6.77,1.84-6.76.37,2.11-.98,4.51-.9,6.76-1.12Z"/>
  <path class="st145" d="M35.37,66.38c-.05.62-3.49,1.44,0,1.5-.25.08-1.4,1.12-1.5,1.5-1.12-.14-2.16-1.19-3-1.5-.34-.57.41-1.07,2.25-1.5.74-.08,1.51.05,2.25,0Z"/>
  <path class="st129" d="M53.37,58.88c-.14.66-.39.63-.75,0-.53.01-3.2.56-3.75.75v-.75c1.38-.31,3.63-1.53,4.5,0Z"/>
  <path class="st17" d="M44.37,139.88l-.75.74c3.86-.29,8.02-.64,11.64-2.23l.37,1.48c-2.41.34-6.3.73-8.43,1.7-1.97.89-1.38,1.92-3.57,2.06-1.72-.89-.78-3.51-.91-3.66-.33-.37-1.66.43-1.33-.83.94-.14,2.13.17,3,0,.65.21.65.46,0,.75Z"/>
  <path class="st162" d="M51.12,136.88c.58-.11,3.93-.5,3.75.74l-10.5,2.26v-.75c2.03-.43,5.01-1.92,6.75-2.25Z"/>
  <path class="st135" d="M55.62,142.13c.58-.1,3.25-.47,2.99.74-2.33.86-5.23.83-7.49,1.51-.41.12-2.16.67-2.25.75.09-.09-.24-.99.15-1.33.26-.22,5.72-1.51,6.6-1.67Z"/>
  <path class="st19" d="M48.12,142.88c-.2,1.88-1.8,3.6-3.75,3.75.19-2.66,2.01-2.85,3.75-3.75Z"/>
  <path class="st135" d="M51.87,141.38l5.25-.74v.73s-1.5,0-1.5,0c-1.42,1.66-3.46-.01-3.75,0Z"/>
  <path class="st68" d="M65.37,138.38c-.79.67-1.11,2.45-3,2.25.07-.73,1.65-2.34,2.25-3,.24.12.46.57.75.75Z"/>
  <g>
    <path class="st148" d="M688.62,118.5c1.04-9.94,0-23.38,0-33.75,0-.97-3.15-1.88-4.16-.41-.92,1.33.25,6.74-.71,6.79-7.53-12.47-28.4-10.29-33.41,3.33-6.54,17.76,11.65,32.08,27.74,23.24l6.04-5.57c2.7,16.36-9.9,23.41-24.41,18.04-3.76-1.39-6.37-6.36-8.59-.43,13.2,9.81,35.46,8.23,37.5-11.23ZM670.15,116.55c-19.84,1.89-23.11-27.31-4.21-29.73,22.29-2.86,25.39,27.71,4.21,29.73Z"/>
    <path class="st148" d="M540.12,91.13c-14.48-17.41-38.24-5.2-35.18,16.81,1.8,13,18.04,21.13,29.14,13.52,2.21-1.51,3.65-4.25,6.04-5.58v7.5s3.76,0,3.76,0v-57h-3.75v24.75ZM521.17,120.2c-16.05-2.74-16.46-31.17.77-33.37,24.74-3.17,23.91,37.59-.77,33.37Z"/>
    <path class="st148" d="M441.2,107.17c1.59,13.38,15.29,20.36,27.64,15.81,1.84-.68,7.78-4.93,7.47-6.63-.79-4.34-5.12.88-6.44,1.66-10.9,6.44-24,.18-24.26-12.63h32.25c2.56-31-40.36-29.24-36.67,1.79ZM445.62,101.63c.55-19.65,27.86-20.41,27.75,0h-27.75Z"/>
    <path class="st148" d="M588.85,117l-2.61-2.61c-10.18,10.99-27.72,6.84-28.87-9.01h32.25c3.42-28.67-36.37-30.35-36.81-1.87-.3,19.79,23.38,28.03,36.04,13.5ZM585.12,101.63h-27.75c1.07-19.7,27.81-20.47,27.75,0Z"/>
    <path class="st148" d="M347.74,82.81c-24.93.06-25.89,44.62,4.42,41.23,3.37-.38,10.76-3.44,12.13-6.67.17-.4-1.1-3.43-2.28-2.99-.77.29-2.57,2.77-3.89,3.62-10.19,6.5-24.99-.04-24.25-12.63h32.25c.44-11.55-5.66-22.59-18.37-22.57ZM333.87,101.63c.15-19.87,27.19-20.35,27.75,0h-27.75Z"/>
    <path class="st148" d="M183.73,94.37c-9.68,22.87,16.85,40.78,33.86,22.63l-2.61-2.61c-9.89,11.15-27.92,6.58-28.87-9.01h32.25c3.75-22.11-25.78-31.94-34.63-11.01ZM186.12,101.63c1.79-20.13,26.66-20.16,28.5,0h-28.5Z"/>
    <path class="st148" d="M286.99,82.88c-16.92-1.34-26.44,16.27-19.52,30.77,5.7,11.94,23.19,14.15,32.39,4.96,11.93-11.93,4.86-34.33-12.86-35.73ZM289.06,120.2c-23.37,3.97-26.5-30.6-6.38-33.37,21.98-3.02,24.82,30.24,6.38,33.37Z"/>
    <path class="st148" d="M729.87,96v27.38h3.75v-29.62c0-.28-2.25-4.24-2.67-4.83-6.24-8.58-19.61-7.7-26.21-.05-1.17-.76-.28-4.44-1.06-4.89-1.26-.72-3.81-.27-3.81.77v38.62h3.75c.89-11.37-4.29-35.36,12.38-36.76,5.7-.48,13.87,2.99,13.87,9.39Z"/>
    <path class="st148" d="M601.76,95.86c-3.21-10.49,9.55-10.05,16.01-7.76,3.61,1.28,4.48,4.91,6.34-1.46-8.11-5.49-27.06-5.89-27.05,7.11,0,13.51,24.17,9.16,24.1,19.5-.05,7.17-8.44,7.78-13.74,6.94-3.19-.5-11.02-6.46-11.76-2.35-.37,2.07,5.19,4.48,6.85,5,8.07,2.52,20.81,2.6,22.28-8.16,2.09-15.27-21.04-12.31-23.04-18.83Z"/>
    <path class="st148" d="M256.74,114.51c-.22.12-1.94,2.62-3.52,3.6-9.37,5.78-20.48,1.16-23.96-9-4.63-13.52,8.57-27.5,22.29-20.79,2.19,1.07,6.73,6.97,7.97,2.3.5-1.86-4.74-5.26-6.48-6.04-19.81-8.87-37.33,15.01-24.51,32.01,5.78,7.67,17.12,10.11,25.61,5.46.7-.38,5.71-4.31,5.89-4.64.93-1.72-1.9-3.68-3.31-2.88Z"/>
    <path class="st148" d="M319.62,68.25c0-1.15-3.43-1.32-4.5-1.12v56.25h4.5v-55.12Z"/>
    <rect class="st148" x="635.37" y="83.63" width="3.75" height="39.75"/>
    <path class="st148" d="M687.12,146.63v11.25c-4.52-2.85-6.08-11.5-12-11.25v16.5c.87.3,3-.33,3-1.12v-10.88l10.14,12c.64.28,1.86-.89,1.86-1.12v-15.38c0-.15-3-.15-3,0Z"/>
    <path class="st148" d="M443,160.88c-2.37-.1-4.77.07-7.14,0v-5.26h9.01s0-2.24,0-2.24h-9.01s0-4.07,0-4.07c.23-1.56,10.25,1.55,9.76-2.68h-12.75v15.38c0,1.51,11.23,1.96,12.74-.01.36-1.82-1.46-1.06-2.61-1.11Z"/>
    <path class="st148" d="M329.45,151.5c.02-6.69-8.24-4.59-12.83-4.88v16.5h2.25c.55-.52-1.99-10.15,4.56-4.94,1.23.98,3.36,7.15,5.94,4.93.9-.77-3.62-4.77-3.61-5.63,0-.94,3.69-2.14,3.7-5.99ZM318.86,154.88v-6.01c11.13-1.73,10.44,7.38,0,6.01Z"/>
    <path class="st148" d="M232.42,146.04c-9.91,1.91-8.79,18.06,2.73,17.06,11.53-1.01,8.71-19.27-2.73-17.06ZM238.35,159.11c-6.66,6.65-15.25-5.67-6.76-10.14,5.81-3.06,11.75,5.16,6.76,10.14Z"/>
    <path class="st148" d="M635.32,147.71l-6.7,15.42c4.04,1.14,3.29-2.58,4.46-3.41.82-.58,6.66-.59,7.79-.22,1.49.49,2.19,5.56,4.24,3.63,1.16-1.1-6.03-13.76-6.06-16.42-1.35-.34-2.84-.11-3.73,1.01ZM639.87,157.12h-6s3.01-7.49,3.01-7.49l2.82,5.05.18,2.45Z"/>
    <path class="st148" d="M184.62,146.63v15.38c0,.52,1.7,1.87,2.65.4.87-1.35.04-4.96.35-5.28.56-.57,7.8,1.71,9.94-3.18,3.4-7.78-7.92-7.87-12.93-7.31ZM187.66,154.83l-.79-5.95c10.38-1.87,11.68,7.1.79,5.95Z"/>
    <path class="st148" d="M282.87,146.63v11.62c0,.44-2.45,2.51-3.42,2.65-7.4,1.06-5.36-9.92-5.59-14.28h-2.25v11.63c0,2.31,4.7,4.94,7.12,4.94s7.12-2.63,7.12-4.94v-11.62c0-.15-3-.15-3,0Z"/>
    <path class="st148" d="M599.49,146.76c-.79.46-3.81,11.49-5.01,11.87l-5.72-11.9c-1.03-.15-3.39-.77-2.88,1,1.32,4.51,5.96,10.24,6.8,15.32,1.62.4,3.28.1,3.85-1.63l5.83-14.79c-.89.1-2.15-.29-2.87.13Z"/>
    <path class="st148" d="M521.47,146.74c-.58.35-4.46,11.01-4.61,12.64-3.02-1.16-4.9-11.88-6.12-12.62-.69-.42-3.34-.7-2.85.96.44,1.48,6.13,14.84,6.84,15.28.45.28,1.88.3,2.4.16,1.02-.28,6.22-14.36,7.23-16.53-.87.11-2.23-.3-2.89.1Z"/>
    <path class="st148" d="M396.12,146.63c-.54.1-3-.15-3,0v15.38c0,1.92,9.42.89,11.25,1.12v-2.24h-8.25v-14.25Z"/>
    <path class="st148" d="M733.62,146.63h-14.25c-.8,3.43,6,1.88,6,2.25v14.25h2.25v-14.25c0-.37,6.8,1.18,6-2.25Z"/>
    <path class="st148" d="M203.03,76.92c.97-.55,7.66-7.5,7.08-8.28l-4.5-1.19-6.75,10.18c1.62.16,2.7.12,4.16-.71Z"/>
    <path class="st148" d="M634.61,67.87v5.26s5.26,0,5.26,0c.53-4.84-.38-5.79-5.26-5.26Z"/>
    <path class="st148" d="M555.87,159.76c.18-4.36-.13-8.77,0-13.13h-1.5c.27,1.99-.52,15.49.38,15.75,1.74.5,1.08-1.61,1.12-2.62Z"/>
    <path class="st148" d="M427.62,67.5v22.88c-16.71-18.38-41.98-.18-33.15,22.27,4.34,11.04,17.85,14.75,27.85,8.8l6.05-5.57c-1.12,3.94-1.82,8.7,3.75,7.49v-57c-1.07-.2-4.5-.02-4.5,1.12ZM428.29,105.66c-.57,6.64-6.28,13.7-13.12,14.65-21.83,3.01-23.99-31.28-4.99-33.5,11.47-1.33,19.06,7.75,18.1,18.85Z"/>
  </g>
  <path class="st69" d="M68.37,49.88c1.11-1.12,2.32.26,1.5,1.5l3,3.75c.24-.65.49-.65.75,0,.26,4.07-4.54-2.23-5.24-1.5-1.17,1.22.91,1.6,1.4,1.94,1.78,1.24,3.92,1.94,5.34,3.69l-1.2.53-1.05,3.59c-3.55-.02-5.97.35-9.75-.75-.26-.77-1.37-.49-1.54-1.29-1.39-6.28,5.12-2.54,8.29-3.97-.45-1.94-7.21-1.96-7.49-2.24.48-4.75,1.75-2.04,3.29-2.36s2-2.76-.29-2.14l3-.74Z"/>
  <path class="st96" d="M68.37,46.13c1.8,2.7,3.43,4.71,6,6.75.53.91,2.49,4.25,2.25,4.5-1.7.43-1.86-1.45-3-2.25-.17-.12-.6.12-.75,0l-3-3.75c-.55-.62-.94-.96-1.5-1.5-.09-.09.25-1-.15-1.33-.78-.65-3.55-.07-4.36-1.31-.44-1.84,3.72-1.22,4.5-1.12Z"/>
  <path class="st111" d="M60.12,61.13c-.53.64-.6.72-1.5.75-1.52.05-6.62-.95-6-3,.25,0,.51-.02.75,0,2.35.18,4.45,1.85,6.75,2.25Z"/>
  <path class="st151" d="M93.12,185.63c1.4-.97,3.21-8.48,3-10.51,5.16-.68-.67,3.88,0,6.75,1.07-.4,1.93-2.89,2.4-3.97.38-.89.63-1.8.6-2.77.69.72,3.62,1.36,3.75,1.52.25.32-1.65,4.3-2.25,5.23-.79,1.2-2.32,2.17-3,3,.36-2,1.96-3.37,2.66-5.22.26-.69.98-2.45-.4-2.27-.8,3.78-3.8,6.48-5.62,9.76l-1.14-1.52Z"/>
  <path class="st14" d="M123.87,146.63c-.13,1.12-.09,1.97-.75,3-1.49-.34-.99-1.88-1.5-2.99h2.25Z"/>
  <path class="st101" d="M123.87,143.63c.04.24-.02.5,0,.75-1.25-.81-1.58-2.34-1.5-3.75,1.13.74,1.29,1.78,1.5,3Z"/>
  <path class="st10" d="M36.12,78.38c1.32.71,2.51,2.08,3.57,4.1l.93-.35c-.96-1.29-.56-1.69.75-.75,1.46-.46,1.85.4.75,1.5.53,2.05.86,3.11,0,5.25-.32.25-4.14-3.95-4.49-4.5-1.08-1.65-1.57-3.45-2.25-5.25.16.12.61-.12.75,0Z"/>
  <path class="st10" d="M33.12,76.88c.76-4.21,1.54-.39,2.25,1.5-.35-.27-1.05-.56-1.5-.75-.33-.14-.6-.72-.75-.75Z"/>
  <path class="st121" d="M53.37,55.13c-.85.64,1.11,1.13-3.75,2.25.72-1.31,2.99-1.5,3.75-2.25Z"/>
  <path class="st25" d="M31.62,115.13c2.79.35,5.54.72,8.25,1.5-.03.5.05,1,0,1.5-4.1-.01-8.73.09-12.76.75l-1.12-1.5c2-.05,4.01.09,6.01,0,.91-.04,2.79.57,2.61-.74l-9.75-.76c1.26-2.85,4.51-1.02,6.75-.74Z"/>
  <path class="st9" d="M36.12,119.63c-.04.39-.11.78-.27,1.11-.21.42-7.81,3.81-7.98,1.89-1.43.47-1.1-1.11-4.5,1.5-.05-.48.08-1.04,0-1.5,3.59-4.29,7.69-2.85,12.75-3Z"/>
  <path class="st32" d="M24.87,119.63l-1.5,2.25c0-.11-1.01-.4-.43-1.46,1.06-1.92,1.81-.76,1.93-.79Z"/>
  <path class="st78" d="M35.37,128.63c-2.47.86-4.29,2.25-7.5,1.49l7.5-1.49Z"/>
  <path class="st69" d="M27.12,124.13c.63.24.63.49,0,.75-.34.07-3.35,2.55-3.75,3,.15-2.07,2.13-3.11,3.38-4.49l.37.74Z"/>
  <path class="st136" d="M33.12,66.38l-2.25,1.5c-.5-.19-1.57.13-2.25,0v-.73c1.52-.16,2.97-.6,4.5-.76Z"/>
  <path class="st111" d="M16.62,107.63c.13-1.46.92-2.45,2.25-3-.95,1.57-1.75,2.23-2.25,3Z"/>
  <path class="st97" d="M49.61,136.13c.19,1.19-1.46.79-2.38.97-1.45.3-2.85.73-4.36.51-.19-1.19,1.46-.79,2.38-.97,1.45-.3,2.85-.73,4.36-.51Z"/>
  <path class="st154" d="M48.87,145.13c-.44.41-.7,3.64-3,2.99.42-1.45,2.06-2.12,3-2.99Z"/>
  <path class="st48" d="M39.87,70.13c3.84,1.87,5.34,4.12,4.5,6.75-.8.58-1.8.33-3-.75-.76.55-3.73-1.94-4.67-2.87-.28-.28,6.37,4.01,3.92,5.87.65.25.65.5,0,.75-2.01-.67-3.76-2.42-5.25-5.25-.75-2.5-1.16-2.71,2.25-3.01v-.73c-.47-.1-1.16.13-1.5,0,.5-1.04,2.71-.93,3.75-.75Z"/>
  <path class="st118" d="M40.62,79.88c1.28-.45,1.86.71.75,1.5-.36.08-.7.4-.75.75-1.7.42-3.45-2.92-3.75-4.5-.72-1.14-1.09-1.62-1.5-3l5.25,5.25Z"/>
  <path class="st146" d="M40.62,82.13c-.09.69.39,2.05-.37,2.25-2-1.29-2.61-4.65-4.13-6l.75-.75c1.04,1.64,2.54,2.99,3.75,4.5Z"/>
  <path class="st57" d="M36.12,119.63c.26-.07.62-.78,1.83-.83,3.56-.13,6.47,1.68,1.92,3.08-.77.32-.52.32.75,0,1,.02,2-.03,3,0-.03,1.63-3.1,1.19-4.5,1.49-2.67.58-5.46,1.39-8.14,1.83-1.17.2-2.71-.57-3.86-.33,0-.25-.05-.54,0-.75.07-.3.81-.91.75-1.5,2.23-.73,5.28-2.23,8.25-3Z"/>
  <path class="st111" d="M122.57,74.43c.41.65,2.17.61,2.66,2.21,1.03,3.3-.63,9.21,1.06,13.22,1.36,3.23,9.55,6.13,12.58,4.65,1.67-.81,1.99-3.81,2.33-4.05,1.04-.74,3.3,1.23,4.06-.04.96-1.59.38-9.45,4.47-8.28,2.5.71-.09,4.52-.2,5.8-.16,1.88.72,8.54-.87,9.62-.98.67-2.96-.1-4.19,1.06-1.46,1.37-.91,5.05-1.12,5.26-.46.46-5.54-.93-5.82,2.79-.09,1.28,1.07,2.78-.16,3.62-1,.67-2.23-.49-3.38-.41-4.08.26-1.18,8.74-2.95,11.32-.75,1.09-3.92.66-4.75,1.63s-.63,4.6-1.02,4.98c-.37.36-3.18-.06-4.42,1.21-1.11,1.14-.99,4.4-1.59,4.79-.67.44-9.48.82-8.9-1.77.31-1.38,4.13-1.11,5.08-2.05,1.22-1.2.38-5.36,2.01-5.64.52-.09,1.73.83,2.9.49,3.02-.86,1.67-8.29,2.06-10.77.32-2.01,2.08-3.6,2.2-5.35.16-2.35-1.83-3.31-2.21-5.22-.91-4.57.81-11.52-.71-15.04s-5.41-1.86-6.08-2.56c-.22-.23.76-2.26.69-3.28-.24-3.42-.95-8.68-.68-12.02.52-6.56,4.49-1.49,6.34,1.12.49.69.17,2.06.61,2.74Z"/>
  <path class="st4" d="M82.62,81.38c6.73,8.36,13.08,17.52,18,27-.24,1.99-.93,1.91-1.5,0-.79.59-1.11.19-.75-.75l-3-3.75c-2.4-3.26-6.04-8.03-9-9-1.94,1.36-12.35,9.56-13.14,9.74-.92.21-1.3-.58-1.84-1.12,3.93-3.64,8.41-6.49,12.38-10.15.59-.55,1.76-.64,1.85-.74.42-.47.13-2.01-1.11-1.48-2.69,1.15-9,7.83-12.02,9.74l-1.11-.37c1-.65,1.53-1.88,2.25-2.63,6.12-6.95,6.12-7.2,0-.75l-2.99,2.25c-.31-.24-.51-3.11-.76-3.75l4.5-14.25c4.09-.86,4.99.15,8.25,0Z"/>
  <path class="st63" d="M104.37,82.13c-.07,5.76,1.93,15.04,3,21,.16,1.29-.09,2.04-.75,2.25-1.47-3.7-2.47-7.45-3-11.25-2.65-9.47-4.84-26.54-10.5-33.75-2.01-3.06-5.26-4.31-9.75-3.75-1.99-.24-1.91-.93,0-1.5,1.84-.34.34-.59-4.5-.75v-.75c1.77-.56,17.28-2.46,18.03-1.94,1.01,4.06,3.45,9.07,4.4,12.89,1.42,5.71,1.65,11.84,3.08,17.55Z"/>
  <path class="st63" d="M108.87,54.38c.27-.23,3.53-1.65,3.74-1.5-.37,1.73,2.17,4.39,2.26,5.25,2.01,1.58,3.98,3.33,1.5,5.25-3.68.08-6.84,1.28-8.25-2.25-1.02-.78-1.27-.53-.75.75.12.35-.62,1.69-.49,2.49.77,4.51,1.87,8.45,1.24,13.26l1.56,1.15c-1.55,1.86-1.67,3.84-.81,6.35.53,1.95,1,4.23,0,6,.57,1.44,1.05,5.02-.75,4.5-.62-5.25-2.09-10.52-3-15.75-.63-3.59-3.71-16.39-2.62-18.74.26-.56,2.57-2.82,3.37-3.76.93-.52,1.68-1.27,2.25-2.25-1.06-1.06-.56-1.56.75-.75Z"/>
  <path class="st4" d="M144.12,67.13c1.66.82,3.46,3.44,3.75,5.25.51,1.01,1.14,1.78.38,2.95-4.41,5.48-7.74,10.98-14.26,14.28l-.37-2.98c1.82-2.4,4.27-4.89,6.75-6.75,3.16-2.5,2.91-2.5-.75,0-1.85,2.48-4.2,4.91-6.75,6.75-2.24-1.11-.84-4.39,0-6-.67-1.43,1.32-3.57,3-3-.14-1.06.36-2.06,1.5-3,1.64-2.26,3.14-4.51,4.5-6.75-.14-2.49.75-2.87,2.25-.75Z"/>
  <path class="st106" d="M147.87,60.38c1.99.33,1.89.9,0,1.5.43,2.86,1.43,5.61,3,8.25-.7,1.09.34,4.66-2.25,1.5-1.61-1.19-3-2.9-4.16-5.13l-.34.63c-.97-.23-1.51.35-2.25.75-1.23,2.19-2.73,4.44-4.5,6.75-.65,1.07-1.4,1.82-2.25,2.25-2.31,3.19-4.06,4.19-5.25,3-.08-.21.07-.51,0-.75,1.77-3.63,3.77-7.38,6-11.25,3.61-5.23,8.04-5.18,12-7.5Z"/>
  <path class="st30" d="M112.62,100.13c.72,2.13.47,3.13-.75,3-.14.84.33,4.5-1.12,4.48-1.06,0-1.77-5.57-1.88-6.73.11-.55.36-.8.75-.75.7-5.23.11-10.68-.47-15.91,0-.05.14.68-.28.91-1.6-1.78-.43-5.14-.75-7.5l1.49-5.25c.41,4.16,4.01,10.21,4.34,14.04.18,2.02-1,10.96-1.34,13.7Z"/>
  <path class="st86" d="M102.87,94.88c1.79,3.13,2.92,6.88,3,10.5,1.04-.32,1.96,1,1.76,2.02-1.36,7.1-5.61-5.04-5.51-7.27-2.03.68-3.95-2.29-2.25-3.75l-1.5-3.75c-.8-.88-1.3-1.88-1.5-3-2.45,2.49-5.34-5.13-3.75-6.75-1.63-.97-1.13-1.72,1.5-2.25,1.32.07,3.11-.47,4.14.74.58.68,3.46,11.43,4.11,13.51Z"/>
  <path class="st126" d="M110.37,118.88c3.1,1.59,1.17,3.23-1.69,2.66-1.15,1.83-2.59,3.45-4.31,4.84-1.93-3.45-1.57.33-2.22,1.12-.94,1.14-1.97,1.73-3.03,2.63-.8.61-1.18.31-1.5-.75l-.5-.47.5-1.78c-.77-.78-.31-1.17.75-.75.9-.36,2.05-.5,2.99-.76l-1.49-1.11,5.23-4.5c-3.49-3.58-1.57,4.4-5.99,1.12-.97-1.12-1.72-2.37-2.25-3.75-1.52-.28-4.62-1.08-4.5-3v-.75c.49-.95,1.49-.7,3,.75.43-.7.93-.45,1.5.75.95-1.31,1.95-.41,2.54.65.16-1.92,1.03-2.19,2.71-1.4-.28-1.14.22-1.64,1.5-1.5l.61-.57c2.17,2.2,4.22,4.39,6.14,6.57Z"/>
  <path class="st71" d="M95.37,103.88l3,3.75c.28.21.51.49.75.75,1.79.55,1.22,1.52-.49,2.34l-7.76-8.34c-5.45,3.19-10.59,7.69-15.31,11.93-.63-.27-1.01-.75-1.19-1.43,3.83-5.17,10.93-7.71,14.26-13.12-4.44,1.35-9.97,8.83-13.9,10.11-2.2.72-.25-2.12-.36-2.24,0-1.51,2.34-3.18,3.75-2.25.42-1.41,1.75-2.35,3-3,.32-.68.82-1.43,1.5-2.25-.11-1.03,2.48-2.81,3.75-3q.55.59,0,0c.3-.46.47-1.02.75-1.5,3.25,1.87,6,4.62,8.25,8.25Z"/>
  <path class="st93" d="M94.62,80.63l-1.5,2.25c-2.05,0-4.15-.01-6.3-.01l14.06,20.5c.09,1.52.5,2.94,1.24,4.27,2.09-.9,4.17,2.71,3,4.5,2.29-.35,3.48.66,3,3,.66.57,2.02.69,2.25,1.5,1.73,1.01,3.73,1.76,6,2.25-.23.89-1.54.93-2.25,1.5-2.07,1.54-2.93.59-3.75-1.5-1.98-.76-2.52-1.61-5.25-1.12-1.62-.87.91-1.77.72-2.93-.16-.95-1.99-1.57-2.22-1.96-2.27.2-4.25-2.51-3-4.5-6.2-8.82-11.96-18.07-18-27,3.89-.18,7.6-.99,12-.75Z"/>
  <path class="st69" d="M99.87,112.88c1.08,1.31.66,1.71-.75.75-1.22-.6-1.97-1.35-2.25-2.25-1.07.91-2.27-.37-1.5-1.5-2.64-1.85-4.89-1.85-6.75,0-1.41,1.4-2.91,2.65-4.5,3.75.32.65.03.87-.75.75-2.16,2.13-4.41,3.38-6.75,3.75v-.75c-.26-1.23.74-2.48,3-3.75q2.29-1.77,0,0c-3.67,3.66-5.28,3.75-4.83.25,5.34-3.3,10.34-7.15,15.01-11.53l1.07.03,7.31,7.87c1.7-.44,2.41.99,1.69,2.63Z"/>
  <path class="st78" d="M79.62,57.38c2.35-.33,8.12-1.11,10.19-.3,1.23.48,2.77,2.82,2.56,4.05.32.49,1.69,2.1,1.5,2.24-6.24-.66-12.49,0-18.75,0v-.75c1.43-.5,1.93-1,1.5-1.5-.23-.54-.74-.93-.75-1.49,1.38-1.65,11.15.7,13.49,1.49l-1.81-1.52c-1.39-.59-10.16-1.34-10.18-2.23.57-1.41,1.94-1.66,2.25,0Z"/>
  <path class="st86" d="M84.12,146.63c.31.14,1.03-.09,1.5,0-2.87,3.25-.18,2.1.75,2.99.33.31,4.42,10.13,0,6.75,1.73,9.12,2.55,3.1,3.37,3.01.57.21.88,1.37,1.12,1.49-.9-.31-3.42,10.66-6,8.25-.91-.85,4.49-4.38,0-10.5-1.26.89-1.69.55-.75-.75.07-1.71,1.93-1.05-.75-3-.12-.87-.37-1.12-.75-.75-1.49-.6-1.97-.93-3,0l-.75-.75c.12-.14-.12-.6,0-.75.93-2.05,2.91-5.62,5.25-6Z"/>
  <path class="st161" d="M145.62,56.63c-.84,1.55-3.06-.13-3,1.49l3.74.75c-3.67.84-8.11.8-10.49,4.14,1.99.93,3.8-3.17,6-1.5-3.28,1.38-4.29,3.93-6.01,6.37l-4.81,8.95c-.77,1.15-1.55,1.53-1.94.05-.03-.66-.12-1.7,0-2.25.82-2.91,2.08-5.79,3.78-8.66-.11-1.82.13-2.93.72-3.34-.9-1.07-.49-1.47.75-.75,1.84-3.42,4.34-5.17,7.5-5.25,1.16-.17,2.54.12,3.75,0Z"/>
  <path class="st86" d="M124.62,61.88c1.82-.52,3.71-.62,5.65-.31,1.87-2.2,3.17,2.4,2.56,4.59-.65,2.33-3.06,5.95-4.46,7.72-1.44-2.81-1.82-6.73-3.15-9.26-.62-1.18-2.51-.99-2.1-2.74.18-.64.43-.63.75,0,.25-.64.5-.64.75,0Z"/>
  <path class="st100" d="M92.37,109.13c1.59,1.29,1.29,1.71-.75,1.5.86.65-1.51,1.83-1.44,1.71,1.42-2.12,5.57-.12,5.19,2.04-.6-.24-2.48-.78-3-.75-3.27.16-8.13,6.58-12,8.25-.6-.42-1.1-.42-1.5,0-1.98-1.42-.98-1.6-1.5-3,1.83-1.49,3.83-2.99,6-4.5.26-.24.49-.51.75-.75l4.5-3.75c1.82-1.73,3.07-1.98,3.75-.75Z"/>
  <path class="st47" d="M114.12,120.38c-.88.71-2.39,2.82-1.5,3.74l-2.26.02c1.69,2.07-4,4.21-2.23,5.99-1.67,1.19-3.54-2.5-3.75-3.74-.59-3.41,2.15-3.54,2.9-4.61.16-.23-.71-1.29-.65-1.37,1.08-1.41,6.04,1.36,3.75-1.51,1.25.48,2.63.65,3.75,1.5Z"/>
  <path class="st102" d="M93.12,136.13c2.14-1.63,4.53-3.33,6.75-4.87.61-.42,1.46-2.02,2.24-.76-1.58,1.83-3.74,3.4-5.23,5.27-3.32,4.18-4.73,10.15-11.26,8.6l1.49-1.48-2.24-.38c1.8-1.83,4.39-2.63,6.38-4.13.91-.68,1.45-1.93,1.86-2.25Z"/>
  <path class="st53" d="M90.87,102.38c-3.77,3.98-9.35,6.67-13.14,10.48-.87.87-2.1,1.6-1.85,3.02,1.13-1.27,2.61-1.58,3.74-2.25-1.01,1.08-2.01,2.63-3,3.75-.47.53-1,1.01-1.5,1.5l-4.34-1.62c-3,.25-5.31-.46-6.91-2.13v-.75c3.25-.71,6.5-1.21,9.75-1.5.25.02.5,0,.75,0,1.19-.04,1.58-.03,2.64-.71,3.19-2.02,8.54-7.12,11.8-9.81.47-.39.68-.87.57-1.47.59-.36,1.15,1.2,1.49,1.49Z"/>
  <path class="st112" d="M69.7,101.79c.55.39,1.2,3.29.92,3.59-1.92-1-13.02-1.02-13.5-1.49-.22-.22.15-3.58,0-4.51.45-.45,12.06,2.04,12.58,2.41Z"/>
  <path class="st124" d="M105.87,139.88c.25,0,.5-.01.75,0,1.95.98,3.29.96,5.25,0,.27,1.41.02,2.91-.75,4.5-.6,1.4-1.76,2.6-1.51,4.5l-1.48-2.24-.77,7.49-2.26-9.75c-.33.1-.62.75-.74.76-1.21,2.62-3.29-.67-.75-1.5.03-3.04.78-4.29,2.25-3.75Z"/>
  <path class="st83" d="M60.87,91.13c2.36,1.24,4.61,2.74,6.75,4.5.03.21-.91,1.1-.69,1.42.12.17,3.74,1.34,2.18,3.08-.38.43-9.37-2.82-11.25-2.25,0-2.23,1.18-5.4,3-6.75Z"/>
  <path class="st58" d="M102.12,100.13c1.31,2.61,3.25,5.15,3.76,8.25,2.72-1.1.38-1.71,0-3,.21-.65.46-.65.75,0l.75-2.25c.28,1.53.5,2.97.75,4.5.86,4.74-.14,6.24-3,4.5-.87-1.04-2-3.16-3-4.5-1.15-2.14-3.17-7.95,0-7.5Z"/>
  <path class="st80" d="M73.62,112.88l-4.5,1.49,5.24,1.5c-3.51-.35-7.02-.93-10.5-1.5-.69-.11-1.52.08-2.25,0-.22-.64.74-1.27.75-1.49q2.39.71,0,0c.03-1.03-3.73-.26-1.87-2.26,4.12-.03,9.31,2.03,13.12,2.26Z"/>
  <path class="st166" d="M153.12,68.63c-.2.29-.54.48-.75.75-.44.17-.83.27-1.04.12-1.54-1.1-4.58-6.41-3.46-7.62-.08-.46.05-1.02,0-1.5.18-.11,2.85-2.8,3-3l2.25,11.25Z"/>
  <path class="st100" d="M79.62,139.13c2.92.58,2.67,2.83-.75,6.75,1.84,1.13.5,3.43-1.5,3-.31,1.25-.81,2.25-1.5,3-1.47,2.26-3.04,4.37-5.25,6,1.22-2.31,2.99-4.23,3.89-6.24,1.39-3.09,2.62-8.35,3.61-11.76.2-.03.77-.68,1.5-.75Z"/>
  <path class="st95" d="M91.62,118.88c-2.42-4.01,2.41-3.16,5.25-1.5,1.46.91,3.31,1.24,4.5,2.63.07.15-1.86.99-2.25,1.12-2.4.83-4.23.96-6.75.74l4.49-.75c.21-1-3.91-1.23-4.16-1.19-1.01.15-2.08,2.7-4.08,1.94.81-1.33,1.84-1.32,3-2.99Z"/>
  <path class="st69" d="M43.62,70.13c.2.28.53.48.75.75,1.76,1.15,3.39,2.7,4.5,4.5-.17,1.93-1.4,2.48-2.25,3.75-1.24.96-3.17-.8-2.25-2.25l-4.5-6.75c1.16.2,1.51,2.49,3.75,0Z"/>
  <path class="st40" d="M129.87,58.13c.52-1.44,2.02-1.44,4.5,0,.65.21.65.46,0,.75-.13,1.07-.38,2.32-.75,3.75-.25.96.19,2.34-.35,3.75-.89,2.32-3.72,6.26-4.15,8.25-.25-.23-.6-.46-.75-.75.72-1.9,4.51-7.76,4.32-9.23-.5-3.98-5.15-2.62-8.07-2.77-.71-1.38,3.96-1.54,5.29-1.29.1.02-1.85.13-1.54-.96-1.29.55-3.57.92-3-.75.54-1.14,3.2-1.18,3.75,0,.34-.04.67-.4.75-.75Z"/>
  <path class="st6" d="M113.37,101.63c.25-3.49.35-7.46.75-10.89.16-1.37-.23-1.21,1.5-1.11-1.26,3.35,1.63,4.51,1.55,6.3-.07,1.66-1.54,5.58-2.3,7.19-1.71,1.04-2.55.19-1.5-1.5Z"/>
  <path class="st161" d="M96.87,117.38l-2.21,1.13.71-1.11c-3.89-1.51-2.6-.18-3.75,1.48-2.96.56-4.91,4.36-8.25,2.63l9-7.13c1.53.94,2.97,2.05,4.5,3Z"/>
  <path class="st0" d="M69.87,95.63c-.16-.4-1.77-.45-1.5-3-.53-.28-.93-.54-.9-.74.26-1.68,1.63-4.5,2.4-6.01.62-3.5-.38-3.22,3.75-4.5-.51,4.74-1.76,9.49-3.75,14.25Z"/>
  <path class="st0" d="M84.12,142.88c-.07.5-.98.75-1.49.77-.35,1.3,1.07.42,1.48.78.48.42-.72,1.34-.73,1.46-.59.98-4.27,6.2-4.84,6.24-.4.03-.79-.1-1.16-.24-.23-.07-.51.05-.75,0-.17-.83.08-1.83.75-3,.26-.4,1.29-2.75,1.5-3,1.97-4.72,3.72-5.72,5.25-3Z"/>
  <path class="st32" d="M108.12,107.63c.2,1.21,1.42,3.22.76,5.25.77-.22,1.4-.67,2.24-.75.65.14,1.15.39,1.5.75,2.36.18,4.61.43,6.75.75-.13.82-.84,1.74-1.5,2.25-2.58-.91-5.52-1.08-8.25-.75-.5-.02-1,.01-1.5,0-1.24-1.07-1.94-1.72-3-3l1.01-.02c.5-2.2,1.88-.57,1.99-.73-.13-1.32-.98-2.57,0-3.75Z"/>
  <path class="st46" d="M112.62,109.13c2.12-1.54,5.26-2.27,7.49-3.75-.22,2.69,2.2,5.23-1.49,4.51l-.75,1.49c-1.02,1.06-6.8-.14-5.25-2.25Z"/>
  <path class="st91" d="M63.87,115.13c3.06.88,6.24,1.08,9.38,1.53,2.1.3,2.04-.74,1.87,2.22-.25.25-.51.49-.75.75-.38,1.34-3.42.5-3.75-.75l.38-.75c-2.42.23-6.21.04-7.57-2.27-.3-.5-.04-.56.44-.73Z"/>
  <path class="st123" d="M72.87,109.13c.68,2.33-2.62,1.58-4.12,1.49-2.13-.14-6.8-.61-8.67-1.12-1.34-.36-1.74-.23-1.46-1.87l14.25,1.5Z"/>
  <path class="st147" d="M82.62,100.13s.64-.13.74.38c.35,1.76-1.26.96-2.24,1.87-1.56.87-3.18,2.27-3,3-1.17.94-2.08,2.15-3.75,2.25-.09-.1-1.01.14-1.41-.06-1-1.26,5.08-5.11,6.3-5.93,1.08-.72,1.96-1.46,3.36-1.51Z"/>
  <path class="st155" d="M60.87,105.38c2.3.11,12.07.15,10.86,3.01-4.13-1.33-8.56-1.04-12.79-1.46-1.8-.18-.82-.88-1.08-1.56.82-.7,2.09-.47,3,0Z"/>
  <path class="st129" d="M115.62,58.13c2.83.39,5.9.38,9.2-.02l.55.77c.52,1.26,2.17.54,3,.75.79,1.37-4.11,1.83-4.5.75-2.43.78-4.27,1.53-6,3-.5.03-1-.01-1.5,0l.75-3h-3c-.2-.15.82-1.57.75-2.25h.75Z"/>
  <path class="st18" d="M66.87,85.13c.67.6,1.42.85,2.25.75h.75c-.36,2.03-1.33,5.14-1.5,6.75-.44-1.07-1.69-.53-2.25-.75-1.79-1.72-2.54-3.22-2.25-4.5,2.21-1.59,1.14-2.48,1.51-3.01.13-.19,1.37.8,1.49.76Z"/>
  <path class="st159" d="M73.62,97.88v-.75c2.05-3.29,6.1-8.04,9.76-9.37-2.24,4.08-6.66,6.88-9.76,10.12Z"/>
  <path class="st33" d="M74.37,140.63l-.6.51c-.29,2.53-.41,5.26-.9,7.74l-2.25-9.75c2.76.66,2.2.82,3.75,1.5Z"/>
  <path class="st74" d="M93.12,134.63c-.4-1.39-3.26.95-2.24-1.12.11-.22,2.79-3.63,2.98-3.77,1.79-1.43,1.41.87,1.6,1.02,1.24.94,1.89-1.27,2.16-1.38.29-.12.74.07,1.11,0l.39.74c-1.7,1.44-4.12,3.07-6,4.5Z"/>
  <path class="st9" d="M147.87,61.88c.41,2.37,2.75,5.95,4.5,7.5-.45.56-1.45.68-1.5.75-3.54-2.18-2.33-8.94-7.5-6.76l4.5-1.49Z"/>
  <path class="st11" d="M79.62,139.13c.72-.07,3.54-.13,3.71.04.13.13.82,3.52.79,3.71-2.59-.6-3.75,1.23-5.25,3,.7-2.5,2.14-4.09.75-6.75Z"/>
  <path class="st14" d="M135.12,76.88c.68-.19.93.06.75.75-1.02,1.52-1.56,1.95-3,3-.48.35-2.04,1.64-2.24,1.5.07-.86-.48-1.51-.76-2.25,2.4.52,3.57-5.15,4.49-4.49,0,.61.42,1.05.76,1.49Z"/>
  <path class="st130" d="M117.87,111.38c.33.17,1.4,1.18,1.5,1.5-.42.67-2.33.63-3,0l-5.25-.75c.44-1.78,0-1.91,1.5-3,1.17,1.78,3.76,1.51,5.25,2.25Z"/>
  <path class="st33" d="M123.87,60.38c2.1.35,1.79.59,0,1.5-.25-.02-.51.04-.75,0-.08-.02-.33-1.13-1.5-.75.57,3.3-1.19,2.12-3.75,2.25v-3c1.99-.02,4,.03,6,0Z"/>
  <path class="st0" d="M44.37,76.88c.72.65,1.33,1.69,2.25,2.25-.3.45-.44,1.07-.75,1.5-1.62.54-2.96-.99-3.75-2.25-1.29.19-1.78-1.5-.75-2.25l.37-1.5c.68.99,1.83,1.52,2.63,2.25Z"/>
  <path class="st97" d="M69.87,95.63l3.75-14.25c.21-.07.5.05.75,0,.19,1.48-.32,2.77-.73,4.14-.98,3.31-2.18,7.06-3.77,10.11Z"/>
  <path class="st67" d="M83.37,56.63c1.82-.04,5.58-.36,7,.12,1.15.39,1.94,2.6,2.75,3.63l-.75.75c-.62-.95-1.97-3.37-2.74-3.63-1.78-.6-7.58-.12-10.01-.12-1.19-1.93,2.94-2.13,3.75-.75Z"/>
  <path class="st152" d="M106.62,105.38h-.75c-1.06-3.47-1.92-7.03-3-10.5l.75-.75c1.04,3.71,2.8,7.31,3,11.25Z"/>
  <path class="st26" d="M66.87,85.13c.27-.08.77-2.13,2.25-1.5v2.25s-2.24,5.25-2.24,5.25v-6Z"/>
  <path class="st143" d="M109.62,115.13c.68-1.11,7.92-1,8.26-.75.12.09-.07,1.08,0,1.5-1.64,1.27-5.63-.63-8.25-.75Z"/>
  <path class="st123" d="M67.62,95.63c-2-1.17-6.87-2.3-6.75-4.5.11-.08.06-.61.35-.62,1.66.6,6.18,3.43,6.4,5.12Z"/>
  <path class="st60" d="M53.37,71.63c-.32.25-.9.99-1.5,1.5l-6-5.24,7.5,3.74Z"/>
  <path class="st41" d="M129.87,79.13c-.2-.71-.71-1.36-.75-2.25,1.61.35,1.62-.87,2.25-1.84,1.55-2.42,2.84-4.79,4.5-7.16-1.85,2.68-2.97,8.67-6,11.25Z"/>
  <path class="st124" d="M70.62,118.88c.71.09,2.86.56,3.75.75s2.28.35,2.25,1.5c-1.04.56-2.29.56-3.75,0-.85-.24-5.53-1.71-4.5-2.24.73.04,1.53-.1,2.25,0Z"/>
  <path class="st131" d="M140.37,79.88c-1.52,1.42-5.01,6.31-6.75,6.75-.14.04-.64.06-.75,0,1.75-2.73,4.43-4.58,6.75-6.75h.75Z"/>
  <path class="st75" d="M84.12,146.63c-2.08,1.7-3.55,3.96-5.25,6-.61.04-1.16-.65-1.5-.75,2.69-.13,3.25-4.86,6-6-.09.82.44.61.75.75Z"/>
  <path class="st163" d="M63.87,87.38c.98,1.51,2.59,2.47,2.25,4.5-.78-.31-4.49-2.95-4.48-3.38.43-1.09,1.88-.87,2.23-1.12Z"/>
  <path class="st141" d="M113.37,101.63c.43.62.69,1.26,1.5,1.5-.51,1.08-.54,2.6-2.24,3l-.76-3c.19-1.13.7-2.56.75-3-.05.72.42,1.04.75,1.5Z"/>
  <path class="st107" d="M148.62,71.63l-.75.75c-.77-1.51-3.01-3.44-3.75-5.25-1.23-1.31-.6-2.24.77-1.15.59.47,2.65,4.33,3.73,5.65Z"/>
  <path class="st165" d="M42.12,79.13c.89-.01,2.25,1.3,2.25,2.25-.19.42.16,1.61,0,2.25l-2.25-.75c-.12-.48-.61-1-.75-1.5-.2-.68-.54-1.03-.75-1.5-.09-.21.1-.55,0-.75.29-1.99.88-1.9,1.5,0Z"/>
  <path class="st96" d="M77.37,139.88l-2.26,5.99v-5.24c.13-.01,1.23-.59,2.26-.75Z"/>
  <path class="st38" d="M105.87,139.88c-2.61-.62-.72,2.12-2.25,3.75l-1.01-.12c-.52-1.52-1.43-2.98-2.74-4.38.25-.54.47-.98.75-1.5.03,1.17,4.4,2.22,5.25,2.25Z"/>
  <path class="st4" d="M134.37,93.38c-1.53-3.02,1.9-3.47,3.73-5.25.58.66-2.62,5-3.73,5.25Z"/>
  <path class="st53" d="M83.37,114.38c-1.77,1.65-3.44,4.02-6,4.5-.08-.22-.58-.47-.75-.75l6.75-3.75Z"/>
  <path class="st150" d="M116.37,118.88c-2.49.43-4.48-.77-6.69-1.59.05-.27.71-.61.69-.66,1.29.46,6.09.99,6,2.25Z"/>
  <path class="st30" d="M109.62,96.38c-.22,1.07-.47,2.07-.75,3-1.28-.65-.61-2.58-.75-3.75,1.26-.82.73-3.08.75-4.5,1.66.09,1.42,3.88.75,5.25Z"/>
  <path class="st38" d="M111.87,139.88l-2.62,3.01-2.63-3.01c1.08.05,3.5-.06,5.25,0Z"/>
  <path class="st51" d="M48.87,74.63c.05.19.02.54,0,.75-1.94-1.07-3.14-2.85-4.5-4.5,1.49,0,4.16,2.49,4.5,3.75Z"/>
  <path class="st37" d="M95.37,103.88c-3.05-2.75-5.19-5.9-8.25-8.25-.27-.21-.47-.54-.75-.75.15-.1.13-.66.44-.72.91-.2,6.92,6.59,7.85,7.84.55.74.53,1.63.71,1.88Z"/>
  <path class="st112" d="M93.12,136.13c-.16.19-4.31,2.41-4.5,2.24.69-2.13,3.12-2.69,4.5-3.74.07.26.05,1.44,0,1.5Z"/>
  <path class="st37" d="M78.87,121.88c.81-2.84,4.81-5.05,7.12-6.76-.24,2.07-3,3.36-4.47,4.53-.33.26-2.66,1.9-1.15,2.23-.18.08-.31.79-.98.68-.36-.1-.36-.56-.52-.68Z"/>
  <path class="st73" d="M116.37,112.88h3c.05.17.03.56,0,.75-2.68.11-4.28.27-6.75-.75.75-.92,2.69-.33,3.75,0Z"/>
  <path class="st48" d="M45.87,80.63c-.39.55-1.47.67-1.5.75-1.14-.12-1.89-2.04-2.25-2.25-.65-.21-.65-.46,0-.75l3.75,2.25Z"/>
  <path class="st140" d="M111.12,144.38c.22-1.51.27-3.01.75-4.5.25,0,.5,0,.75,0,.29,1.93-.9,3.09-1.5,4.5Z"/>
  <path class="st82" d="M107.37,61.88c-.13-.38-1.8-.45-1.13-1.5,1.8-2.83,1.67.21,1.88.75l-.75.75Z"/>
  <path class="st115" d="M97.62,127.13h-1.5c.81-2.17,4.2-3.53,2.25-.75-.31.12-.55.48-.75.75Z"/>
  <path class="st63" d="M109.62,100.13c-.05.35-.39.67-.75.75-.05-.49,0-1.01,0-1.5-.01-.98-.35-2.49.75-3,.44,1.03.44,2.28,0,3.75Z"/>
  <path class="st112" d="M60.87,105.38c-1-.05-2,.03-3,0-.02-.05-.88.1-.75-.74,1.17.08,3.11-.5,3.75.74Z"/>
  <path class="st53" d="M76.62,121.13c-.05,1.94-2.95.22-3.75,0h3.75Z"/>
  <path class="st157" d="M102.12,55.88l-.75-9,.75,1.48c1.58.22,3.94,1.76,5.25.02.81.3,2.25-.3,2.99,1.13l-2.23,2.25.75,2.62c-.32.26-.51.54-.75.75-.57,1.07-1.32,1.82-2.25,2.25l-3.76,1.87c1.78-2.91,2.74-5.97,3.75-9.36l-1.5,2.24-1.48-1.49c-.25,1.62.75,4.3-.76,5.25Z"/>
  <path class="st147" d="M133.62,50.63c1.41-.3,2.77-1.18,4.5-.76v-.73s-2.24-.75-2.24-.75c1.81-.21,3.93-.1,3.75,2.24-1.49-.59-1.83.52-2.25.75,1.24-.05,2.5.02,3.75,0l-2.24,1.48,3.74.02-2.25.74,3.01.75c-.17,1.39-1.42,1.13-2.25,1.49-2.46,2.59-4.71,3.34-6.75,2.25-1.19.59-1.83,1.77-2.99,2.25.64-2.71-1.37-2.1-1.51-2.25-.05-.05-.04-1.14,0-1.5-.62-1.38.53-.3.43-.27-1.89.57-4.71-4.79.98-2.26.74.33,2.74.43,3.09-1.21.5-.8,1.5-1.3,3-1.5-2.62.55-3.62,1.05-3,1.5-.05,2.12-3.86,1.55-5.29.67-.25.58-.51,1.04-.8,1.06-4.46.33-9.93-.16-14.16-.98-.1-.21-1.93-.94-1.5-1.49.76.23,1.61-.76,1.87-.76h11.25c2.65,0,5.01-.13,7.88-.75Z"/>
  <path class="st33" d="M124.62,48.38c4.3-.6,8.42-1.87,12.75-2.24-.79,1.42-4.58,2.68-6,2.99-4.49,1-13.85,1.46-18,0,3.68-.8,7.43-1.05,11.25-.75Z"/>
  <path class="st33" d="M130.62,45.38c.5.2,1.15.12,1.5.75-2.69.56-5.53,1.19-8.25,1.5l-.3.67c-3.5-.22-6.9.06-10.2.83-.36-.13-1.03.09-1.5,0-.44-.49,1.2-1.2,1.5-1.49.45-.43,1.34-.46,1.5-1.5,1.86-.66,4.09-.62,6,0,.19.01.88.8,2.47.73,1.77-.08,3.08-1.2,4.28-1.48.03-.82,1.03-.82,3,0Z"/>
  <path class="st127" d="M103.62,46.13l5.24-.75v1.5c-1.21-.1-2.56.15-3.74,0-1.01-.13-.94-.37-1.5-.75Z"/>
  <path class="st121" d="M135.87,128.63l-.75.75c-.74,1.61-1.74,2.11-3,1.5.43-1.07.62-2.58.76-3.75,1.52-.44,2.14,1.08,2.99,1.5Z"/>
  <path class="st77" d="M129.87,134.63c.14-3.07.86-2.26,2.25-3.75,1.66,1.33-.66,3.77-2.25,3.75Z"/>
  <path class="st166" d="M135.12,129.38c3.75,1.4,6.89,3.82,11.25,3.01l-3.75,1.5c.86,4.56,3.72-1.16,3,4.49-2.17-.42-5.86-.35-8.25-.75-.34,2.02.36,1.3,1.63,1.7,4.35,1.38,6.84-.45,5.86,5.79-.26.3-6.34-1.96-7.5-2.25-1.7-.43-2.06-1-4.5,0l.76-1.49c-1.69-.02-3.43-.54-4.51-1.9l5.25-7.11-4.12,3.75c-.65.04-.39-.99-.37-1.5,1.29-1.54,1.49-1.88,2.25-3.75.64-.68,1.52-2.05,1.63-2.12.35-.23.98.47,1.37.62Z"/>
  <path class="st51" d="M141.87,56.63c-.26.04-3,.96-3.01,1.12l3,1.12c-2.9-.51-5.18,1.48-7.5,3.01-.4-.42-.4-1.42,0-3v-.75c2.16-1.07,4.52-1.26,6.75-2.25l.75.75Z"/>
  <path class="st38" d="M123.87,47.63l.75.75c-.19.03-.82.68-1.82.78-2.99.3-6.39-.27-9.43-.03,2.59-2.66,7.13-1.12,10.5-1.5Z"/>
  <path class="st76" d="M127.62,45.38l-3.75-1.49,6.36-.78c3.4,1.06-2.32.19-1.86,1.52.94-.17,1.55.48,2.25.76-.92.13-2.18-.2-3,0Z"/>
  <path class="st29" d="M120.87,46.13c-1.98-.12-4.01.08-6,0,0-.05-.89-.28-.76-.74,2.07.27,5.13-.83,6.76.74Z"/>
  <path class="st91" d="M150.12,53.63c.02,1.79-1.43,3.76-2.99,4.5.09-1.61,1.65-3.7,2.99-4.5Z"/>
  <path class="st156" d="M78.87,54.38c3.64-.94,10.88.68,15,0,.18,1.31-1.7.71-2.61.74-2.61.11-5.27,0-7.88,0-.69.93-4.98,1.75-5.25,0,.22-.34.26-.62.75-.75Z"/>
  <path class="st47" d="M83.37,55.13v1.5c-1.2.03-3.12-.45-3.75.75h-2.25c0-.12.66-2.11.75-2.25h5.25Z"/>
  <path class="st69" d="M76.62,61.13c.19.46.95,1.33.75,1.49h-2.25c-1.57-.5.47-1.64,1.5-1.49Z"/>
  <path class="st90" d="M122.37,40.88c.99-.29,2.03-1.36,3.75-.74v.73c-1.24.03-2.5-.01-3.75,0Z"/>
  <path class="st142" d="M116.37,143.63l-3.74,4.49c-.32-1.08,2.73-5.44,3.74-4.49Z"/>
  <path class="st82" d="M116.37,157.88c1.02-.52,1.84-2.05,3.75-1.49.12,1.42-2.5,1.15-3.75,1.49Z"/>
  <path class="st11" d="M116.37,157.88c-.79.41-1.53,1.72-3,1.5h-.75c.84-.26,1.92-.99,3.75-1.5Z"/>
  <path class="st4" d="M99.87,139.13c.83.77,3.55.63,3.71.78.28.28-.06,2.81.04,3.72.04.37-.11.79,0,1.11.15.37.38.42.74.39l2.24,13.5-2.99-6c.25-.98-.54-1.64-.75-2.25-2.36-3.86-3.36-7.61-3-11.25Z"/>
  <path class="st39" d="M102.87,150.38c-1.5-2.01-3.69-6.67-4.15-8.96-.31-1.5.87-1.67,1.15-2.29-.44.57,2.47,9.72,3,11.25Z"/>
  <path class="st27" d="M99.87,157.13c-1.82-2.16-4.17-4.02-5.25-6.75.27-.23.51-.49.75-.75,1.69,2.06,3.88,4.97,4.5,7.5Z"/>
  <path class="st20" d="M96.12,167.63c-2.01-.88-4.74-1.81-6-3.74,2.43.33,4.72,1.71,6,3.74Z"/>
  <path class="st100" d="M108.12,162.38c-1.27.25-2.38.7-3.75.75,1-.69,2.54-2.63,3.75-.75Z"/>
  <path class="st15" d="M39.87,121.88c.25-.01.5,0,.75,0-1.89,1-4.96,1.35-7.11,1.53-.61.05-2.73.23-1.51-.78,2.7.06,5.18-.62,7.87-.75Z"/>
  <path class="st52" d="M84.87,158.63c-3.05,2.85-8.16,4.27-12,6l11.25-6.75c-.02.57.64.6.75.75Z"/>
  <path class="st56" d="M82.62,154.13c.41-.69,2.24-3.37,3-2.63,1.76,1.72-2.3,1.57-2.25,3.38-.28-.2-.55-.67-.75-.75Z"/>
  <path class="st11" d="M76.62,151.88h-.75c.26-.39.61-1.62,1.5-3l-.75,3Z"/>
  <path class="st88" d="M72.87,55.13c-1.31-1.08-2.9-1.69-3-3.75.93,1.05,3.11,1.6,3,3.75Z"/>
  <path class="st31" d="M41.37,76.13c.48.64.62,1.48.75,2.25v.75c-.25-.15-1.06.1-1.5,0-1.41-2.99-1.55-3.76-4.5-5.99,1.52-.42,4.49,1.97,5.25,2.99Z"/>
  <path class="st28" d="M90.87,102.38c2.73,2.41,5.38,4.84,7.88,7.5l.37-1.5h1.5c1.3,1.85,1.72,2.34,3,4.5.02,2.21-.78,1.01-1.5,1.5-2.03.98-2.71.86-2.25-1.5-3.03-2.94-6.98-6.97-9-10.5Z"/>
  <path class="st152" d="M81.12,83.63l-6.74,8.99c.81-2.28,2.88-5.37,4.36-7.25.69-.88.74-2.13,2.38-1.74Z"/>
  <path class="st93" d="M98.37,107.63c-2.42-1.81-1.8-2.05-3-3.75,1.21,1.09,2.99,1.65,3,3.75Z"/>
  <path class="st104" d="M96.11,53.62c-.33,3.59,2.73,6.23,3,9.75-2.83-1.99-2.94-6.5-4.48-9.39l1.48-.37Z"/>
  <path class="st162" d="M109.62,100.13c.16-1.08,0-2.57,0-3.75,0-1.63.54-4.24-.75-5.25.03-2-.03-4,0-6,.02-1.27-.67-4.82.74-5.25-.96,6.73,2.17,13.77,0,20.25Z"/>
  <path class="st53" d="M105.87,57.38c.68-.81,1.01-1.86,2.25-2.25-.27.24-.08,2.65-2.25,2.25Z"/>
  <path class="st141" d="M141.87,67.88c1.47,3.21-.06,1.77-1.12,2.97-1.3,1.47-1.75,2.34-3.38,3.78,1.52-2.7,1.78-5.29,4.5-6.75Z"/>
  <path class="st152" d="M139.62,79.88c2.29-2.14,4.18-4.76,7.12-6.01-.51,1.72-2.76,3.73-4.1,4.94-.85.76-2.1.91-2.27,1.07h-.75Z"/>
  <path class="st159" d="M135.87,77.63c-.27-.23-.53-.47-.75-.75.37-1.25,1.48-1.57,2.25-2.25-.52.92-.72,1.84-1.5,3Z"/>
  <path class="st166" d="M93.12,82.88c1.23,1.71,1.61,4.05,2.5,5.77.26.49,1.11.73,1.25.98.22,1.12.72,2.12,1.5,3l1.5,3.75c.77,1.43,1.52,2.3,2.25,3.75-1.22.47.55,2.28.76,3.37.36,1.92-.78.56-1.5.37l.74,3.76c-6.25-8.42-11.74-17.45-18-25.88,2.84-.37,7.09-1.5,9,1.13Z"/>
  <path class="st24" d="M99.87,96.38c-1.57-.9-1.11-2.6-1.5-3.75,1.13,1.85,1.07,2.96,1.5,3.75Z"/>
  <path class="st8" d="M98.37,92.63c-.39-.63-2.12-1.09-1.5-3,.69,1.24.93,1.32,1.5,3Z"/>
  <path class="st79" d="M95.37,109.88c.94.65,1.02,1.07,1.5,1.5.25.86,1,1.61,2.25,2.25.35.04.88-.29.75-.75.58.56,1.59.96,2.25,1.5-1.39.93-1.78.67-.76,2.23-3.41,1.8-3.05-.69-4.49-1.48-1.56-1.93-3.31-3.43-5.25-4.5.31-.31.46-1.08.75-1.5.72.06,1.72.31,3,.75Z"/>
  <path class="st51" d="M96.87,115.13c-.48-.26-1-.55-1.5-.75-3.82-5.16-3.86-.87-8.25,0,.89-1.68,3.22-2.45,4.5-3.74,2.14.62,5.04,2.06,5.25,4.5Z"/>
  <path class="st21" d="M86.37,97.13c.48-.07,1.53-.26,1.5.37l-3.75,2.62c-.16-.15,1.84-2.37,2.25-2.99Z"/>
  <path class="st67" d="M81.12,102.38c-1.03.96-1.59,1.87-3,3l-.74-.37c1.05-1.13,2.03-2.52,3.74-2.63Z"/>
  <path class="st145" d="M95.37,109.88c-1.13,1.4-2.03-.42-3-.75-1.6-.55-2.07-.04-3.75.75,3.12-3.33,3.04-2.56,6.75,0Z"/>
  <path class="st142" d="M90.86,106.11c-.16.19-3.77,2.15-4.49,2.26l4.13-3.74c.64-.1.44,1.39.36,1.48Z"/>
  <path class="st53" d="M88.62,109.88c-1.31,1.4-2.22,3.66-4.5,3.75,2-1.89,1.44-2.31,4.5-3.75Z"/>
  <path class="st40" d="M99.12,113.63c-1.49-.19-2.08-.71-2.99-1.88l.74-.37c.76.68,1.89,1.01,2.25,2.25Z"/>
  <path class="st64" d="M79.62,113.63c.9-.96,1.25-2.64,3-2.24-.3,1.74-2.14,1.73-3,2.24Z"/>
  <path class="st0" d="M134.37,58.88l1.51.38-1.51,2.62c-.33.22-.62.25-.75.75-3.38.21-.34-2.03.75-3.75Z"/>
  <path class="st106" d="M128.37,59.63c.97.24,2.06.22,2.25,1.49-.73.53-5.15-.91-6,.76-.25-.01-.5.02-.75,0v-1.5c1.42-.02,3.68.51,4.5-.75Z"/>
  <path class="st38" d="M107.36,148.87c-1.31.17-.7-1.7-.74-2.61-.08-1.62.04-3.27,0-4.88,1.31-.17.7,1.7.74,2.61.08,1.62-.04,3.27,0,4.88Z"/>
  <path class="st55" d="M62.37,112.88c1.48.43,5.33-.96,6,.74-1.72-.32-4.82.83-6-.74Z"/>
  <path class="st4" d="M115.62,58.13c2.95-1.3,7.51-.86,10.91-.75,1.44.05,3.01-.76,2.59,1.5-1.2.12-2.52-.04-3.75,0-2.21.06-7.36.9-8.48.78-.61-.07-.86-1.14-1.27-1.53Z"/>
  <path class="st111" d="M116.37,112.88h-3.75c-.44-.18-1.32.2-1.5-.75,1.51-.14,4.33-.43,5.25.75Z"/>
  <path class="st76" d="M134.37,52.88c3.03,1.2-3.13,2.35-4.08,2.29-.82-.05.12-1.88-1.16-1.54-1.04,2,1.53,2.45,1.5,2.61-.04.18-.74.25-.76.39h-1.5c-2.85-.97-7.07-1.36-12.66-1.17l-1.59-1.08c-.11-.17.1-.54,0-.75l13.51.74-.76-1.49c1.06-.74,6.03,2.12,7.51,0Z"/>
  <path class="st160" d="M137.37,51.38c-.82.46-2.06,1.37-3,1.5-.75.11-4.5.54-4.5-.74,2.56-.03,4.92-.66,7.5-.76Z"/>
  <path class="st76" d="M138.87,134.62l-3.75.75c.89-1.74,3.17-3.06,3.75-.75Z"/>
  <polygon class="st40" points="134.36 56.62 131.37 56.62 131.37 55.88 134.36 55.13 134.36 56.62"/>
  <path class="st161" d="M114.12,54.38c3.9.39,7.73.6,11.66.75,1.44.05,3.01-.76,2.59,1.5-2.61,0-12.79.57-13.92-.73-.37-.42-.17-1.26-.33-1.52Z"/>
  <path class="st95" d="M100.61,102.38c-1.8-2.14-4.16-5.46-4.49-8.25,1.12.41,2.07,2.67,2.63,3.74.73,1.4,1.81,2.92,1.86,4.51Z"/>
</svg>