<?xml version="1.0" encoding="UTF-8"?>
<svg id="Layer_1" xmlns="http://www.w3.org/2000/svg" version="1.1" viewBox="0 0 503.7 127.1">
  <!-- Generator: Adobe Illustrator 29.2.1, SVG Export Plug-In . SVG Version: 2.1.0 Build 116)  -->
  <path d="M457.6,8c11.9,1.5,22.4,10.1,27,20.9-8.9-1-15.1,1.1-21.9,6.6-20.9,16.9-7.2,49.1-34.5,61.3-5-5-4-11.8-5.7-17.9-8.3,3.7-11.8-18.7-9-22.4l4.1-.6c.7-4.3-1.1-8.4-1.1-12.5,0-17.2,12.7-33.3,30.1-35.4,2.6-.3,8.4-.3,11,0h0Z"/>
  <polygon points="16.6 29 31.6 29 31.6 65.9 45.1 47.9 63.6 47.9 43.9 71.4 64.6 96.8 46.1 96.8 31.6 76.8 31.6 96.8 16.6 96.8 16.6 29"/>
  <polygon points="492.6 61.9 492.6 62.9 452.6 62.4 492.6 61.9"/>
  <path d="M443.6,113.8c-.6-3,1.5-1.9,3.4-2,3-.1,6.1,0,9.1,0,1.9,0,4-1,3.4,2h-16,0Z"/>
  <path d="M121.6,47.9l6.8.2c3.3,10.5,3.7,3.8,9.8.9,7.1-3.3,17.9-2.5,21.9,4.9,6.8-5.4,12.6-8.7,21.5-5.5,3.9,1.4,9,7,9,11v37.4h-15v-32.4c0-6.1-12-5.1-12-1v33.4h-15v-33.4c0-4.4-12-4.4-12,0v33.4h-15v-48.9h0Z"/>
  <path d="M302.6,96.8c-7.1,1.1-8.1-1.1-10.5-7-11.9,12.7-32.8,11.1-37.8-7.2-4-14.6,0-35.7,18.8-35.7s9.8,2.9,14.5,5v-23c4.7.7,11.2-1.6,15,1.5v66.3h0ZM270.9,83.6c5.5,5.5,15.4,2,16.6-6.3,1.5-10.6-.6-19.8-13.4-17.3-7.5,1.4-7,19.9-3.2,23.6h0Z"/>
  <path d="M357.6,96.8h-6.9c0-.1-2.2-7-2.2-7-2.7-.8-1.9,1.7-3.4,3-10.5,9.3-35.6,6.6-35.4-10.5.2-15.3,22.1-13.6,32.8-15.5,2-10.8-16.5-12.5-16-2h-15c-2.4-20.9,34.8-22.3,42.8-10.3.6.8,3.2,6.4,3.2,6.8v35.4h0ZM342.6,76.9c-3.9.4-14.7.3-16.5,4l-.3,3.3c6,7.6,18.3,2.6,16.9-7.3h0Z"/>
  <path d="M220.4,47.2c21.2-1.2,28.4,12.8,26.1,32-2.8,23.4-39.6,25.7-46.7,4.9-5.9-17.4.2-35.7,20.6-36.9ZM219.3,60.1c-10.3,2.3-10.3,27.4,4.7,25.7,12.8-1.5,12.8-29.7-4.7-25.7Z"/>
  <path d="M86.4,47.2c23.6-1.4,34.3,21.6,23.6,40.5-9.3,16.4-41.8,13.6-45.1-7.6-2.6-16.9,2.6-31.8,21.6-32.9h0ZM85.3,60.1c-10.3,2.3-9.8,28,5.5,25.5,8.8-1.4,9-11.9,7.5-19-1.3-6.5-7.1-7.8-13.1-6.5h0Z"/>
  <rect x="366.6" y="29" width="15" height="67.8"/>
  <rect x="430.6" y="98.8" width="44" height="2"/>
  <rect x="435.6" y="94.8" width="42" height="2"/>
  <rect x="451.6" y="69.9" width="39" height="2"/>
  <rect x="450.6" y="73.9" width="39" height="2"/>
  <rect x="440.6" y="90.8" width="39" height="2"/>
  <path d="M491.6,56.9v2h-38c0-.7,1.3-2,1.5-2h36.5Z"/>
  <path d="M486.6,77.8v2h-37c0-.7,1.3-2,1.5-2h35.5Z"/>
  <rect x="454.6" y="52.9" width="33" height="2"/>
  <path d="M487.6,48.9v2h-29.5c-.2,0-1.6-1.3-1.5-2h31Z"/>
  <path d="M466.6,107.8c0,.7-1.3,2-1.5,2h-27.5v-2h29Z"/>
  <rect x="461.6" y="39.9" width="26" height="2"/>
  <rect x="466.6" y="35.9" width="21" height="2"/>
  <rect x="452.6" y="65.9" width="39" height="1"/>
  <rect x="432.6" y="103.8" width="39" height="1"/>
  <rect x="444.6" y="86.8" width="36" height="1"/>
  <rect x="446.6" y="82.8" width="35" height="1"/>
  <rect x="458.6" y="44.9" width="29" height="1"/>
</svg>