<?xml version="1.0" encoding="UTF-8"?>
<svg id="svg833" xmlns="http://www.w3.org/2000/svg" xmlns:svg="http://www.w3.org/2000/svg" xmlns:rdf="http://www.w3.org/1999/02/22-rdf-syntax-ns#" xmlns:dc="http://purl.org/dc/elements/1.1/" xmlns:cc="http://creativecommons.org/ns#" version="1.1" viewBox="0 0 800 323">
  <!-- Generator: Adobe Illustrator 29.2.1, SVG Export Plug-In . SVG Version: 2.1.0 Build 116)  -->
  <defs>
    <style>
      .st0 {
        fill: #4f4f4f;
      }

      .st1 {
        fill: #5c5c5c;
      }
    </style>
  </defs>
  <g id="g841">
    <g id="g11589">
      <g id="g10766">
        <path id="path3613" class="st0" d="M161.4,250.7l-.5.6-5.9,15.5s-.4.8-1.2.7c-.2,0-.4,0-1.1-.6-11.2-11.2-57.4-56.2-69.7-83.4-33.9-74.7,95.5-100.6,135-105.2,6.5-.8,9,.2,9.3.5,2.7,1.9,3.5,4.4,4.1,6.5,27.7,100.1,1.9,150.2-5,161.2-2.3,3.7-3.1,3.9-5.6,3.9h-58.6l-.8.3"/>
        <path id="path3617" class="st1" d="M181.5,170.1c-1.7,8.9-8.2,15.4-14.6,14.4-6.3-.9-12.8-7.1-14.6-13.8-1.7-6.7,4.8-13.1,14.6-14.4,9.8-1.3,16.3,4.9,14.6,13.8"/>
      </g>
      <g id="g11176">
        <path id="path2033" class="st0" d="M255.4,194.7c2.2,0,4-1.8,4-3.9s-1.8-3.9-4-3.9-4,1.7-4,3.9,1.8,3.9,4,3.9"/>
        <path id="path2037" class="st0" d="M253,207.2c2.3,0,4.2-1.9,4.2-4.2s-1.9-4.2-4.2-4.2-4.2,1.9-4.2,4.2,1.9,4.2,4.2,4.2"/>
        <path id="path2041" class="st0" d="M248.7,219c2.3,0,4.3-1.8,4.3-4.1,0-2.3-1.8-4.2-4.2-4.2-2.3,0-4.3,1.8-4.3,4.1,0,2.3,1.8,4.2,4.2,4.2"/>
        <path id="path2045" class="st0" d="M244.5,230.1c2.3,0,4.3-1.7,4.4-4.1s-1.8-4.2-4.1-4.3c-2.3,0-4.3,1.8-4.4,4.1,0,2.3,1.8,4.3,4.1,4.3"/>
        <path id="path2049" class="st0" d="M237.2,241.3c2,0,3.8-1.5,3.8-3.5,0-2-1.5-3.7-3.6-3.8-2.1,0-3.8,1.5-3.8,3.6,0,2,1.5,3.7,3.6,3.8"/>
        <path id="path2053" class="st0" d="M191.6,263.6c2.1,0,3.8-1.7,3.8-3.7s-1.7-3.7-3.8-3.7-3.8,1.7-3.8,3.7,1.7,3.7,3.8,3.7"/>
        <path id="path2057" class="st0" d="M204.2,260.3c1.9,0,3.4-1.5,3.4-3.4s-1.5-3.4-3.4-3.4-3.4,1.5-3.4,3.4,1.5,3.4,3.4,3.4"/>
        <path id="path2061" class="st0" d="M177.9,265.8c2.1,0,3.8-1.7,3.8-3.7s-1.7-3.7-3.8-3.7-3.8,1.7-3.8,3.7,1.7,3.7,3.8,3.7"/>
        <path id="path2065" class="st0" d="M164.7,265.4c2,0,3.6-1.6,3.6-3.5s-1.6-3.5-3.6-3.5-3.6,1.6-3.6,3.5,1.6,3.5,3.6,3.5"/>
        <path id="path2069" class="st0" d="M270.8,181.5c2,0,3.7-1.6,3.7-3.6s-1.6-3.6-3.7-3.6-3.7,1.6-3.7,3.6,1.6,3.6,3.7,3.6"/>
        <path id="path2073" class="st0" d="M269.9,194.1c2,0,3.7-1.6,3.7-3.6s-1.6-3.6-3.7-3.6-3.7,1.6-3.7,3.6,1.6,3.6,3.7,3.6"/>
        <path id="path2077" class="st0" d="M267.4,207.2c2.3,0,4.2-1.9,4.2-4.2s-1.9-4.2-4.2-4.2-4.2,1.9-4.2,4.2,1.9,4.2,4.2,4.2"/>
        <path id="path2081" class="st0" d="M263.3,219.2c2.3,0,4.3-1.8,4.3-4.1,0-2.3-1.8-4.2-4.2-4.2-2.3,0-4.3,1.8-4.3,4.1,0,2.3,1.8,4.2,4.2,4.2"/>
        <path id="path2085" class="st0" d="M257.4,229.4c1.7,0,3.1-1.3,3.2-3,0-1.7-1.3-3.1-3-3.1-1.7,0-3.1,1.3-3.2,3,0,1.7,1.3,3.1,3,3.1"/>
        <path id="path2089" class="st0" d="M251,241.7c2.1,0,3.8-1.5,3.9-3.6,0-2.1-1.5-3.8-3.6-3.9-2.1,0-3.8,1.5-3.9,3.6,0,2.1,1.5,3.8,3.6,3.9"/>
        <path id="path2093" class="st0" d="M221,266c2.2,0,4-1.8,4-3.9s-1.8-3.9-4-3.9-4,1.8-4,3.9,1.8,3.9,4,3.9"/>
        <path id="path2097" class="st0" d="M231.7,258.8c2.2,0,4-1.8,4-3.9s-1.8-3.9-4-3.9-4,1.8-4,3.9,1.8,3.9,4,3.9"/>
        <path id="path2101" class="st0" d="M209.3,271.9c2.3,0,4.2-1.9,4.2-4.2s-1.9-4.2-4.2-4.2-4.2,1.9-4.2,4.2,1.9,4.2,4.2,4.2"/>
        <path id="path2105" class="st0" d="M197,276c2.3,0,4.2-1.9,4.2-4.2s-1.9-4.2-4.2-4.2-4.2,1.9-4.2,4.2,1.9,4.2,4.2,4.2"/>
        <path id="path2109" class="st0" d="M184.2,278.5c2.4,0,4.2-1.9,4.2-4.2s-1.9-4.2-4.2-4.2-4.2,1.9-4.2,4.2,1.9,4.2,4.2,4.2"/>
        <path id="path2113" class="st0" d="M171.2,278.9c2.1,0,3.8-1.7,3.8-3.7s-1.7-3.7-3.8-3.7-3.8,1.7-3.8,3.7,1.7,3.7,3.8,3.7"/>
        <path id="path2117" class="st0" d="M159.1,278c2.1,0,3.8-1.7,3.8-3.7s-1.7-3.7-3.8-3.7-3.8,1.7-3.8,3.7,1.7,3.7,3.8,3.7"/>
        <path id="path2121" class="st0" d="M145.7,276.2c2.1,0,3.8-1.7,3.8-3.7s-1.7-3.7-3.8-3.7-3.8,1.7-3.8,3.7,1.7,3.7,3.8,3.7"/>
        <path id="path2125" class="st0" d="M133.1,272.2c2.5,0,4.5-2,4.5-4.5s-2-4.5-4.5-4.5-4.5,2-4.5,4.5,2,4.5,4.5,4.5"/>
        <path id="path2129" class="st0" d="M121.5,266.5c2.5,0,4.4-2,4.4-4.4s-2-4.4-4.4-4.4-4.4,2-4.4,4.4,2,4.4,4.4,4.4"/>
        <path id="path2133" class="st0" d="M110.6,259.5c2.4,0,4.4-2,4.4-4.4s-2-4.4-4.4-4.4-4.4,2-4.4,4.4,2,4.4,4.4,4.4"/>
        <path id="path2137" class="st0" d="M128,255c1.9,0,3.4-1.5,3.4-3.4s-1.5-3.4-3.4-3.4-3.4,1.5-3.4,3.4,1.5,3.4,3.4,3.4"/>
        <path id="path2141" class="st0" d="M117.4,246.3c1.9,0,3.4-1.5,3.4-3.4s-1.5-3.4-3.4-3.4-3.4,1.5-3.4,3.4,1.5,3.4,3.4,3.4"/>
        <path id="path2145" class="st0" d="M100.8,251.1c2.5,0,4.5-2,4.5-4.4s-2-4.4-4.5-4.4-4.4,2-4.4,4.4,2,4.4,4.4,4.4"/>
        <path id="path2149" class="st0" d="M92.3,241.5c2.5,0,4.4-2,4.4-4.4s-2-4.4-4.4-4.4-4.4,2-4.4,4.4,2,4.4,4.4,4.4"/>
        <path id="path2153" class="st0" d="M106.9,238.8c2.1,0,3.8-1.7,3.8-3.7s-1.7-3.7-3.8-3.7-3.8,1.7-3.8,3.7,1.7,3.7,3.8,3.7"/>
        <path id="path2157" class="st0" d="M99.3,229.5c2.3,0,4.2-2.1,4.2-4.7s-1.9-4.7-4.2-4.7-4.2,2.1-4.2,4.7,1.9,4.7,4.2,4.7"/>
        <path id="path2161" class="st0" d="M85,230.8c2.4,0,4.3-1.9,4.3-4.3s-1.9-4.3-4.3-4.3-4.4,1.9-4.4,4.3,2,4.3,4.4,4.3"/>
        <path id="path2165" class="st0" d="M79.3,219.8c2.6,0,4.7-2.1,4.7-4.7s-2.1-4.7-4.7-4.7-4.7,2.1-4.7,4.7,2.1,4.7,4.7,4.7"/>
        <path id="path2169" class="st0" d="M93.2,217.6c2.1,0,3.8-1.7,3.8-3.7s-1.7-3.7-3.8-3.7-3.8,1.7-3.8,3.7,1.7,3.7,3.8,3.7"/>
        <path id="path2173" class="st0" d="M87.9,205.7c2.1,0,3.8-1.7,3.8-3.7s-1.7-3.7-3.8-3.7-3.8,1.7-3.8,3.7,1.7,3.7,3.8,3.7"/>
        <path id="path2177" class="st0" d="M75.1,207.8c2.6,0,4.7-2.1,4.7-4.7s-2.1-4.7-4.7-4.7-4.7,2.1-4.7,4.7,2.1,4.7,4.7,4.7"/>
        <path id="path2181" class="st0" d="M72.6,195.3c2.6,0,4.7-2.1,4.7-4.7s-2.1-4.7-4.7-4.7-4.7,2.1-4.7,4.7,2.1,4.7,4.7,4.7"/>
        <path id="path2185" class="st0" d="M71.7,182.1c2.3,0,4.2-1.9,4.2-4.2s-1.9-4.2-4.2-4.2-4.2,1.9-4.2,4.2,1.9,4.2,4.2,4.2"/>
        <path id="path2189" class="st0" d="M72.6,169.4c2.3,0,4.2-1.9,4.2-4.2s-1.9-4.2-4.2-4.2-4.2,1.9-4.2,4.2,1.9,4.2,4.2,4.2"/>
        <path id="path2193" class="st0" d="M74.9,156.8c2.3,0,4.2-1.9,4.2-4.2s-1.9-4.2-4.2-4.2-4.2,1.9-4.2,4.2,1.9,4.2,4.2,4.2"/>
        <path id="path2197" class="st0" d="M241.6,112.8c2,0,3.7-1.6,3.7-3.6s-1.6-3.6-3.7-3.6-3.7,1.6-3.7,3.6,1.6,3.6,3.7,3.6"/>
        <path id="path2201" class="st0" d="M250.2,122.5c2.1,0,3.8-1.7,3.8-3.7s-1.7-3.7-3.8-3.7-3.8,1.7-3.8,3.7,1.7,3.7,3.8,3.7"/>
        <path id="path2205" class="st0" d="M257.4,132.2c2.1,0,3.8-1.7,3.8-3.7s-1.7-3.7-3.8-3.7-3.8,1.7-3.8,3.7,1.7,3.7,3.8,3.7"/>
        <path id="path2209" class="st0" d="M262.2,144.1c2.1,0,3.8-1.7,3.8-3.7s-1.7-3.7-3.8-3.7-3.8,1.7-3.8,3.7,1.7,3.7,3.8,3.7"/>
        <path id="path2213" class="st0" d="M267.4,156.9c2.5,0,4.4-2,4.4-4.4s-2-4.4-4.4-4.4-4.4,2-4.4,4.4,2,4.4,4.4,4.4"/>
        <path id="path2217" class="st0" d="M269.9,168.9c2.1,0,3.8-1.7,3.8-3.7s-1.7-3.7-3.8-3.7-3.8,1.7-3.8,3.7,1.7,3.7,3.8,3.7"/>
        <path id="path2221" class="st0" d="M283.2,181.6c2.1,0,3.8-1.7,3.8-3.7s-1.7-3.7-3.8-3.7-3.8,1.7-3.8,3.7,1.7,3.7,3.8,3.7"/>
        <path id="path2225" class="st0" d="M282.5,193.8c1.9,0,3.4-1.5,3.4-3.3s-1.5-3.4-3.4-3.4-3.4,1.5-3.4,3.4,1.5,3.3,3.4,3.3"/>
        <path id="path2229" class="st0" d="M280.2,207c2.2,0,4-1.8,4-3.9s-1.8-3.9-4-3.9-4,1.8-4,3.9,1.8,3.9,4,3.9"/>
        <path id="path2233" class="st0" d="M276.6,218.9c2.1,0,3.8-1.6,3.8-3.7,0-2.1-1.6-3.7-3.7-3.8-2.1,0-3.8,1.6-3.8,3.7,0,2.1,1.6,3.8,3.7,3.8"/>
        <path id="path2237" class="st0" d="M271.2,229.7c1.7,0,3.1-1.2,3.1-2.9,0-1.7-1.3-3-2.9-3.1-1.7,0-3.1,1.3-3.1,2.9,0,1.6,1.3,3,2.9,3.1"/>
        <path id="path2241" class="st0" d="M264.9,241.4c1.7,0,3.1-1.2,3.1-2.9,0-1.6-1.2-3-2.9-3.1-1.7,0-3.1,1.2-3.1,2.9s1.3,3,2.9,3.1"/>
        <path id="path2245" class="st0" d="M257,251c1.6,0,2.8-1.3,2.8-2.8s-1.3-2.8-2.8-2.8-2.8,1.3-2.8,2.8,1.3,2.8,2.8,2.8"/>
        <path id="path2249" class="st0" d="M248.1,260.5c1.7,0,3-1.3,3-3s-1.3-3-3-3-3,1.3-3,3,1.3,3,3,3"/>
        <path id="path2253" class="st0" d="M242.7,252c2,0,3.7-1.6,3.7-3.6s-1.6-3.6-3.7-3.6-3.7,1.6-3.7,3.6,1.7,3.6,3.7,3.6"/>
        <path id="path2257" class="st0" d="M203.4,286.9c2.3,0,4.2-1.9,4.2-4.2s-1.9-4.2-4.2-4.2-4.2,1.9-4.2,4.2,1.9,4.2,4.2,4.2"/>
        <path id="path2261" class="st0" d="M190.7,289.7c2.3,0,4.1-1.8,4.1-4.1s-1.9-4.1-4.1-4.1-4.1,1.8-4.1,4.1,1.9,4.1,4.1,4.1"/>
        <path id="path2265" class="st0" d="M177.7,289.9c1.6,0,2.8-1.3,2.8-2.8s-1.3-2.8-2.8-2.8-2.8,1.3-2.8,2.8,1.3,2.8,2.8,2.8"/>
        <path id="path2269" class="st0" d="M164.7,291.3c2.3,0,4.2-1.9,4.2-4.2s-1.9-4.2-4.2-4.2-4.2,1.9-4.2,4.2,1.9,4.2,4.2,4.2"/>
        <path id="path2273" class="st0" d="M151.8,289.4c2.1,0,3.8-1.7,3.8-3.7s-1.7-3.7-3.8-3.7-3.8,1.7-3.8,3.7,1.7,3.7,3.8,3.7"/>
        <path id="path2277" class="st0" d="M139.1,286.6c2.2,0,4-1.8,4-3.9s-1.8-3.9-4-3.9-3.9,1.8-3.9,3.9,1.8,3.9,3.9,3.9"/>
        <path id="path2281" class="st0" d="M126.9,282.1c2.1,0,3.8-1.7,3.8-3.7s-1.7-3.7-3.8-3.7-3.8,1.7-3.8,3.7,1.7,3.7,3.8,3.7"/>
        <path id="path2285" class="st0" d="M115.2,277.1c2.5,0,4.5-2,4.5-4.5s-2-4.5-4.5-4.5-4.5,2-4.5,4.5,2,4.5,4.5,4.5"/>
        <path id="path2289" class="st0" d="M104.4,269.4c2.1,0,3.8-1.7,3.8-3.7s-1.7-3.7-3.8-3.7-3.8,1.7-3.8,3.7,1.7,3.7,3.8,3.7"/>
        <path id="path2293" class="st0" d="M238.4,269.9c2.5,0,4.5-2,4.5-4.5s-2-4.5-4.5-4.5-4.5,2-4.5,4.5,2,4.5,4.5,4.5"/>
        <path id="path2297" class="st0" d="M227.3,276.4c2.3,0,4.1-1.8,4.1-4.1s-1.9-4.1-4.1-4.1-4.2,1.8-4.2,4.1,1.9,4.1,4.2,4.1"/>
        <path id="path2301" class="st0" d="M215.3,282c2.3,0,4.2-1.9,4.2-4.2s-1.9-4.2-4.2-4.2-4.2,1.9-4.2,4.2,1.9,4.2,4.2,4.2"/>
        <path id="path2305" class="st0" d="M94.4,262.1c2.6,0,4.6-2,4.6-4.6s-2.1-4.6-4.6-4.6-4.6,2.1-4.6,4.6,2.1,4.6,4.6,4.6"/>
        <path id="path2309" class="st0" d="M85.5,252.9c2.6,0,4.7-2.1,4.7-4.7s-2.1-4.7-4.7-4.7-4.7,2.1-4.7,4.7,2.1,4.7,4.7,4.7"/>
        <path id="path2313" class="st0" d="M77.7,242.3c2.4,0,4.3-1.9,4.3-4.3s-1.9-4.3-4.3-4.3-4.3,1.9-4.3,4.3,1.9,4.3,4.3,4.3"/>
        <path id="path2317" class="st0" d="M71.2,231.3c2.4,0,4.3-1.9,4.3-4.3s-1.9-4.3-4.3-4.3-4.3,1.9-4.3,4.3,1.9,4.3,4.3,4.3"/>
        <path id="path2321" class="st0" d="M66,219.6c2.4,0,4.3-1.9,4.3-4.3s-1.9-4.3-4.3-4.3-4.3,1.9-4.3,4.3,1.9,4.3,4.3,4.3"/>
        <path id="path2325" class="st0" d="M62.3,207.8c2.6,0,4.7-2.1,4.7-4.7s-2.1-4.7-4.7-4.7-4.7,2.1-4.7,4.7,2.1,4.7,4.7,4.7"/>
        <path id="path2329" class="st0" d="M60,195c2.4,0,4.4-2,4.4-4.4s-2-4.4-4.4-4.4-4.4,2-4.4,4.4,2,4.4,4.4,4.4"/>
        <path id="path2333" class="st0" d="M59.3,182.6c2.6,0,4.7-2.1,4.7-4.7s-2.1-4.7-4.7-4.7-4.7,2.1-4.7,4.7,2.1,4.7,4.7,4.7"/>
        <path id="path2337" class="st0" d="M60,169.7c2.5,0,4.5-2,4.5-4.5s-2-4.5-4.5-4.5-4.5,2-4.5,4.5,2,4.5,4.5,4.5"/>
        <path id="path2341" class="st0" d="M62.3,157.1c2.5,0,4.5-2,4.5-4.5s-2-4.5-4.5-4.5-4.5,2-4.5,4.5,2,4.5,4.5,4.5"/>
        <path id="path2345" class="st0" d="M66,144.6c2.4,0,4.3-1.9,4.3-4.3s-1.9-4.3-4.3-4.3-4.3,1.9-4.3,4.3,1.9,4.3,4.3,4.3"/>
        <path id="path2349" class="st0" d="M71.1,133c2.4,0,4.4-1.8,4.4-4.2,0-2.4-1.9-4.3-4.2-4.4-2.4,0-4.4,1.8-4.4,4.2,0,2.4,1.9,4.3,4.2,4.4"/>
        <path id="path2353" class="st0" d="M77.7,122.5c2.6,0,4.7-2.1,4.7-4.7s-2.1-4.7-4.7-4.7-4.7,2.1-4.7,4.7,2.1,4.7,4.7,4.7"/>
        <path id="path2357" class="st0" d="M85.5,112.1c2.5,0,4.5-2,4.5-4.5s-2-4.5-4.5-4.5-4.5,2-4.5,4.5,2,4.5,4.5,4.5"/>
        <path id="path2361" class="st0" d="M94.4,102.3c2.2,0,4-1.8,4-3.9s-1.8-3.9-4-3.9-3.9,1.8-3.9,3.9,1.8,3.9,3.9,3.9"/>
        <path id="path2365" class="st0" d="M79,144.4c2.3.3,4.5-1.3,4.8-3.6.3-2.3-1.3-4.4-3.6-4.7-2.3-.3-4.5,1.3-4.8,3.5-.3,2.3,1.3,4.4,3.6,4.8"/>
        <path id="path2369" class="st0" d="M85.8,133.1c2.3.4,4.4-1.2,4.8-3.4.4-2.3-1.2-4.4-3.4-4.8-2.3-.4-4.4,1.2-4.8,3.4-.4,2.3,1.2,4.4,3.4,4.8"/>
        <path id="path2373" class="st0" d="M92.7,121.8c2.3.4,4.5-1.2,4.8-3.5.4-2.3-1.2-4.4-3.5-4.8-2.3-.4-4.5,1.2-4.8,3.5-.4,2.3,1.2,4.4,3.5,4.8"/>
        <path id="path2377" class="st0" d="M100.6,111.4c2.1.3,4-1.1,4.3-3.2.3-2-1.1-3.9-3.2-4.2s-4,1.1-4.3,3.2c-.3,2,1.1,3.9,3.2,4.2"/>
        <path id="path2381" class="st0" d="M110.8,103.5c2.1.3,4-1.1,4.3-3.2.3-2-1.1-3.9-3.2-4.2-2.1-.3-4,1.1-4.3,3.2-.3,2,1.1,3.9,3.2,4.2"/>
        <path id="path2385" class="st0" d="M104.4,94.4c2.3,0,4.2-1.9,4.2-4.2s-1.9-4.2-4.2-4.2-4.2,1.9-4.2,4.2,1.9,4.2,4.2,4.2"/>
        <path id="path2389" class="st0" d="M115.2,87.4c2.3,0,4.2-1.9,4.2-4.2s-1.9-4.2-4.2-4.2-4.2,1.9-4.2,4.2,1.9,4.2,4.2,4.2"/>
        <path id="path2393" class="st0" d="M126.9,82.1c2.6,0,4.6-2.1,4.6-4.6s-2.1-4.6-4.6-4.6-4.6,2.1-4.6,4.6,2.1,4.6,4.6,4.6"/>
        <path id="path2397" class="st0" d="M139.1,77.7c2.6,0,4.6-2,4.6-4.6s-2.1-4.6-4.6-4.6-4.6,2.1-4.6,4.6,2.1,4.6,4.6,4.6"/>
        <path id="path2401" class="st0" d="M122.4,97.2c2.4.2,4.5-1.5,4.7-3.8.3-2.4-1.5-4.5-3.9-4.7-2.4-.2-4.5,1.5-4.7,3.8-.2,2.4,1.5,4.5,3.9,4.7"/>
        <path id="path2405" class="st0" d="M158.6,84.8c2.2.2,4.1-1.4,4.4-3.5.2-2.2-1.4-4.1-3.5-4.3-2.2-.2-4.1,1.4-4.4,3.5-.2,2.2,1.4,4.1,3.5,4.3"/>
        <path id="path2409" class="st0" d="M184,82.7c1.6.2,3-1,3.2-2.6s-1-3-2.6-3.1c-1.6-.2-3,1-3.2,2.6-.2,1.6,1,3,2.6,3.1"/>
        <path id="path2413" class="st0" d="M170.8,83.1c2.1.2,3.9-1.3,4.2-3.3.2-2.1-1.3-3.9-3.4-4.1-2.1-.2-3.9,1.3-4.2,3.4-.2,2.1,1.3,3.9,3.4,4.1"/>
        <path id="path2417" class="st0" d="M133.7,91.9c2.3.2,4.4-1.4,4.6-3.8.2-2.3-1.5-4.4-3.8-4.6-2.3-.2-4.4,1.4-4.7,3.7-.2,2.3,1.5,4.4,3.8,4.6"/>
        <path id="path2421" class="st0" d="M146.3,87.7c2.3.2,4.4-1.4,4.7-3.8.2-2.3-1.5-4.4-3.8-4.6-2.3-.2-4.4,1.5-4.6,3.8-.2,2.3,1.5,4.4,3.8,4.6"/>
        <path id="path2425" class="st0" d="M151.8,74.8c2.6,0,4.6-2,4.6-4.6s-2.1-4.6-4.6-4.6-4.6,2.1-4.6,4.6,2.1,4.6,4.6,4.6"/>
        <path id="path2429" class="st0" d="M164.7,73.1c2.4,0,4.4-2,4.4-4.4s-2-4.4-4.4-4.4-4.5,2-4.5,4.4,2,4.4,4.5,4.4"/>
        <path id="path2433" class="st0" d="M177.7,73c2.4,0,4.4-1.9,4.4-4.3s-1.9-4.3-4.4-4.3-4.3,1.9-4.3,4.3,1.9,4.3,4.3,4.3"/>
        <path id="path2437" class="st0" d="M190.7,74.5c2.4,0,4.4-1.9,4.4-4.3s-1.9-4.3-4.4-4.3-4.4,1.9-4.4,4.3,2,4.3,4.4,4.3"/>
        <path id="path2441" class="st0" d="M203.4,76.9c2.1,0,3.8-1.7,3.8-3.7s-1.7-3.7-3.8-3.7-3.8,1.7-3.8,3.7,1.7,3.7,3.8,3.7"/>
        <path id="path2445" class="st0" d="M215.6,80.9c1.9,0,3.4-1.5,3.4-3.4s-1.5-3.4-3.4-3.4-3.4,1.5-3.4,3.4,1.5,3.4,3.4,3.4"/>
        <path id="path2449" class="st0" d="M238.1,93.7c2,0,3.6-1.6,3.6-3.5s-1.6-3.5-3.6-3.5-3.6,1.6-3.6,3.5,1.6,3.5,3.6,3.5"/>
        <path id="path2453" class="st0" d="M248.1,101.5c1.8,0,3.2-1.4,3.2-3.2s-1.4-3.2-3.2-3.2-3.2,1.4-3.2,3.2,1.4,3.2,3.2,3.2"/>
        <path id="path2457" class="st0" d="M257,110.8c1.8,0,3.2-1.4,3.2-3.2s-1.4-3.2-3.2-3.2-3.2,1.4-3.2,3.2,1.4,3.2,3.2,3.2"/>
        <path id="path2461" class="st0" d="M264.8,120.3c1.4,0,2.5-1.1,2.5-2.5s-1.1-2.5-2.5-2.5-2.5,1.1-2.5,2.5,1.1,2.5,2.5,2.5"/>
        <path id="path2465" class="st0" d="M280.2,154.9c1.4,0,2.5-1.1,2.5-2.5s-1.1-2.5-2.5-2.5-2.5,1.1-2.5,2.5,1.1,2.5,2.5,2.5"/>
        <path id="path2469" class="st0" d="M282.5,168.1c1.7,0,3-1.3,3-3s-1.4-3-3-3-3,1.3-3,3,1.3,3,3,3"/>
        <path id="path2473" class="st0" d="M295.7,180.7c1.6,0,2.9-1.3,2.9-2.9s-1.3-2.9-2.9-2.9-2.9,1.3-2.9,2.9,1.3,2.9,2.9,2.9"/>
        <path id="path2477" class="st0" d="M295,193.4c1.6,0,3-1.3,3-2.9s-1.3-2.9-3-2.9-3,1.3-3,2.9,1.3,2.9,3,2.9"/>
        <path id="path2481" class="st0" d="M292.9,207.4c2.4,0,4.4-2,4.4-4.4s-2-4.4-4.4-4.4-4.4,2-4.4,4.4,2,4.4,4.4,4.4"/>
        <path id="path2485" class="st0" d="M289.7,219.7c2.5,0,4.5-1.9,4.5-4.3,0-2.4-1.9-4.4-4.4-4.4-2.4,0-4.5,1.9-4.5,4.3,0,2.4,1.9,4.4,4.4,4.4"/>
        <path id="path2489" class="st0" d="M284.8,230.9c2.1,0,3.8-1.6,3.9-3.6,0-2.1-1.6-3.8-3.7-3.8-2.1,0-3.8,1.6-3.9,3.6,0,2.1,1.6,3.8,3.7,3.8"/>
        <path id="path2493" class="st0" d="M271.9,252.7c1.9,0,3.4-1.5,3.4-3.4s-1.5-3.4-3.4-3.4-3.4,1.5-3.4,3.4,1.5,3.4,3.4,3.4"/>
        <path id="path2497" class="st0" d="M263.7,262.2c1.7,0,3-1.3,3-3s-1.4-3-3-3-3,1.3-3,3,1.4,3,3,3"/>
        <path id="path2501" class="st0" d="M254.5,271.2c1.7,0,3-1.3,3-3s-1.3-3-3-3-3,1.3-3,3,1.4,3,3,3"/>
        <path id="path2505" class="st0" d="M244.4,279.2c1.7,0,3-1.3,3-3s-1.4-3-3-3-3,1.3-3,3,1.4,3,3,3"/>
        <path id="path2509" class="st0" d="M233.5,286.1c1.7,0,3-1.3,3-3s-1.3-3-3-3-3,1.3-3,3,1.4,3,3,3"/>
        <path id="path2513" class="st0" d="M221.8,293.2c2.4,0,4.3-1.9,4.3-4.3s-2-4.3-4.3-4.3-4.3,1.9-4.3,4.3,1.9,4.3,4.3,4.3"/>
        <path id="path2517" class="st0" d="M209.7,296c1.4,0,2.5-1.1,2.5-2.5s-1.1-2.5-2.5-2.5-2.5,1.1-2.5,2.5,1.1,2.5,2.5,2.5"/>
        <path id="path2521" class="st0" d="M197.1,301.2c2.4,0,4.4-2,4.4-4.4s-2-4.4-4.4-4.4-4.4,2-4.4,4.4,2,4.4,4.4,4.4"/>
        <path id="path2525" class="st0" d="M184.3,301.1c1.3,0,2.3-1,2.3-2.3s-1-2.3-2.3-2.3-2.3,1-2.3,2.3,1,2.3,2.3,2.3"/>
        <path id="path2529" class="st0" d="M171.3,302c1.4,0,2.5-1.1,2.5-2.5s-1.1-2.5-2.5-2.5-2.5,1.1-2.5,2.5,1.1,2.5,2.5,2.5"/>
        <path id="path2533" class="st0" d="M158.3,301.6c1.6,0,2.8-1.3,2.8-2.8s-1.3-2.8-2.8-2.8-2.8,1.3-2.8,2.8,1.3,2.8,2.8,2.8"/>
        <path id="path2537" class="st0" d="M145.4,300.5c2.1,0,3.8-1.7,3.8-3.7s-1.7-3.7-3.8-3.7-3.8,1.7-3.8,3.7,1.7,3.7,3.8,3.7"/>
        <path id="path2541" class="st0" d="M132.8,297.7c2.3,0,4.2-1.9,4.2-4.2s-1.9-4.2-4.2-4.2-4.2,1.9-4.2,4.2,1.9,4.2,4.2,4.2"/>
        <path id="path2545" class="st0" d="M120.6,293.1c2.3,0,4.2-1.9,4.2-4.1s-1.9-4.1-4.2-4.1-4.2,1.8-4.2,4.1,1.9,4.1,4.2,4.1"/>
        <path id="path2549" class="st0" d="M109,286.9c2.1,0,3.8-1.7,3.8-3.7s-1.7-3.7-3.8-3.7-3.8,1.7-3.8,3.7,1.7,3.7,3.8,3.7"/>
        <path id="path2553" class="st0" d="M98.1,280.7c2.5,0,4.5-2,4.5-4.5s-2-4.5-4.5-4.5-4.5,2-4.5,4.5,2,4.5,4.5,4.5"/>
        <path id="path2557" class="st0" d="M88,272.1c2.2,0,4-1.7,4-3.9s-1.8-3.9-4-3.9-4,1.8-4,3.9,1.8,3.9,4,3.9"/>
        <path id="path2561" class="st0" d="M78.8,262.4c1.8,0,3.2-1.4,3.2-3.2s-1.4-3.2-3.2-3.2-3.2,1.4-3.2,3.2,1.4,3.2,3.2,3.2"/>
        <path id="path2565" class="st0" d="M70.6,252.5c1.8,0,3.2-1.4,3.2-3.2s-1.4-3.2-3.2-3.2-3.2,1.4-3.2,3.2,1.4,3.2,3.2,3.2"/>
        <path id="path2569" class="st0" d="M63.5,241.9c1.8,0,3.2-1.4,3.2-3.2s-1.4-3.2-3.2-3.2-3.2,1.4-3.2,3.2,1.4,3.2,3.2,3.2"/>
        <path id="path2573" class="st0" d="M57.6,230.7c1.9,0,3.4-1.5,3.4-3.4s-1.5-3.4-3.4-3.4-3.4,1.5-3.4,3.4,1.5,3.4,3.4,3.4"/>
        <path id="path2577" class="st0" d="M52.9,218.8c1.9,0,3.4-1.5,3.4-3.4s-1.5-3.4-3.4-3.4-3.4,1.5-3.4,3.4,1.5,3.4,3.4,3.4"/>
        <path id="path2581" class="st0" d="M49.5,206.7c2,0,3.6-1.6,3.6-3.5s-1.6-3.5-3.6-3.5-3.6,1.6-3.6,3.5,1.6,3.5,3.6,3.5"/>
        <path id="path2585" class="st0" d="M47.5,194.9c2.4,0,4.3-1.9,4.3-4.3s-1.9-4.3-4.3-4.3-4.3,1.9-4.3,4.3,1.9,4.3,4.3,4.3"/>
        <path id="path2589" class="st0" d="M46.8,182c2.3,0,4.1-1.8,4.1-4.1s-1.9-4.1-4.1-4.1-4.1,1.8-4.1,4.1,1.9,4.1,4.1,4.1"/>
        <path id="path2593" class="st0" d="M47.5,169.6c2.5,0,4.4-2,4.4-4.4s-2-4.4-4.4-4.4-4.4,2-4.4,4.4,2,4.4,4.4,4.4"/>
        <path id="path2597" class="st0" d="M49.5,157c2.5,0,4.4-2,4.4-4.4s-2-4.4-4.4-4.4-4.5,2-4.5,4.4,2,4.4,4.5,4.4"/>
        <path id="path2601" class="st0" d="M52.9,144.7c2.5,0,4.4-2,4.4-4.4s-2-4.4-4.4-4.4-4.4,2-4.4,4.4,2,4.4,4.4,4.4"/>
        <path id="path2605" class="st0" d="M57.5,132.8c2.5,0,4.5-1.9,4.5-4.3,0-2.4-1.9-4.4-4.4-4.5-2.5,0-4.5,1.9-4.5,4.3,0,2.4,1.9,4.4,4.4,4.5"/>
        <path id="path2609" class="st0" d="M63.5,121.6c2.5,0,4.4-2,4.4-4.4s-2-4.4-4.4-4.4-4.4,2-4.4,4.4,2,4.4,4.4,4.4"/>
        <path id="path2613" class="st0" d="M70.6,111.2c2.6,0,4.7-2.1,4.7-4.7s-2.1-4.7-4.7-4.7-4.7,2.1-4.7,4.7,2.1,4.7,4.7,4.7"/>
        <path id="path2617" class="st0" d="M78.8,100.3c2.1,0,3.8-1.7,3.8-3.7s-1.7-3.7-3.8-3.7-3.8,1.7-3.8,3.7,1.7,3.7,3.8,3.7"/>
        <path id="path2621" class="st0" d="M88,91.3c2.1,0,3.8-1.7,3.8-3.7s-1.7-3.7-3.8-3.7-3.8,1.7-3.8,3.7,1.7,3.7,3.8,3.7"/>
        <path id="path2625" class="st0" d="M98.1,83.8c2.3,0,4.2-1.9,4.2-4.2s-1.9-4.2-4.2-4.2-4.2,1.9-4.2,4.2,1.9,4.2,4.2,4.2"/>
        <path id="path2629" class="st0" d="M109,76.4c2.1,0,3.8-1.7,3.8-3.7s-1.7-3.7-3.8-3.7-3.8,1.7-3.8,3.7,1.7,3.7,3.8,3.7"/>
        <path id="path2633" class="st0" d="M120.6,70.6c2.1,0,3.8-1.7,3.8-3.7s-1.7-3.7-3.8-3.7-3.8,1.7-3.8,3.7,1.7,3.7,3.8,3.7"/>
        <path id="path2637" class="st0" d="M132.8,66.5c2.3,0,4.2-1.9,4.2-4.2s-1.9-4.2-4.2-4.2-4.2,1.9-4.2,4.2,1.9,4.2,4.2,4.2"/>
        <path id="path2641" class="st0" d="M145.4,62.8c2.1,0,3.8-1.7,3.8-3.7s-1.7-3.7-3.8-3.7-3.8,1.7-3.8,3.7,1.7,3.7,3.8,3.7"/>
        <path id="path2645" class="st0" d="M158.2,61.3c2.3,0,4.2-1.9,4.2-4.2s-1.9-4.2-4.2-4.2-4.2,1.9-4.2,4.2,1.9,4.2,4.2,4.2"/>
        <path id="path2649" class="st0" d="M171.2,60.6c2.3,0,4.2-1.9,4.2-4.2s-1.9-4.2-4.2-4.2-4.2,1.9-4.2,4.2,1.9,4.2,4.2,4.2"/>
        <path id="path2653" class="st0" d="M184.2,61.3c2.3,0,4.2-1.9,4.2-4.2s-1.9-4.2-4.2-4.2-4.2,1.9-4.2,4.2,1.9,4.2,4.2,4.2"/>
        <path id="path2657" class="st0" d="M197.1,63.3c2.3,0,4.2-1.9,4.2-4.2s-1.9-4.2-4.2-4.2-4.2,1.9-4.2,4.2,1.9,4.2,4.2,4.2"/>
        <path id="path2661" class="st0" d="M209.7,65.5c1.8,0,3.2-1.4,3.2-3.2s-1.4-3.2-3.2-3.2-3.2,1.4-3.2,3.2,1.4,3.2,3.2,3.2"/>
        <path id="path2665" class="st0" d="M221.8,70.1c1.8,0,3.2-1.4,3.2-3.2s-1.4-3.2-3.2-3.2-3.2,1.4-3.2,3.2,1.4,3.2,3.2,3.2"/>
        <path id="path2669" class="st0" d="M233.5,75.8c1.7,0,3.1-1.4,3.1-3.1s-1.4-3.1-3.1-3.1-3.1,1.4-3.1,3.1,1.4,3.1,3.1,3.1"/>
        <path id="path2673" class="st0" d="M244.4,83.6c2.3,0,4.1-1.8,4.1-4s-1.8-4-4.1-4-4.1,1.8-4.1,4,1.8,4,4.1,4"/>
        <path id="path2677" class="st0" d="M254.5,91.6c2.2,0,4.1-1.8,4.1-4s-1.8-4-4.1-4-4.1,1.8-4.1,4,1.8,4,4.1,4"/>
        <path id="path2681" class="st0" d="M263.7,99.8c1.8,0,3.2-1.4,3.2-3.2s-1.4-3.2-3.2-3.2-3.2,1.4-3.2,3.2,1.4,3.2,3.2,3.2"/>
        <path id="path2685" class="st0" d="M271.9,109.7c1.8,0,3.2-1.4,3.2-3.2s-1.4-3.2-3.2-3.2-3.2,1.4-3.2,3.2,1.4,3.2,3.2,3.2"/>
        <path id="path2689" class="st0" d="M279,119.9c1.5,0,2.7-1.2,2.7-2.7s-1.2-2.7-2.7-2.7-2.7,1.2-2.7,2.7,1.2,2.7,2.7,2.7"/>
        <path id="path2693" class="st0" d="M292.9,155.1c1.5,0,2.6-1.2,2.6-2.6s-1.2-2.6-2.6-2.6-2.6,1.2-2.6,2.6,1.2,2.6,2.6,2.6"/>
        <path id="path2697" class="st0" d="M295,168.9c2.1,0,3.8-1.7,3.8-3.7s-1.7-3.7-3.8-3.7-3.8,1.7-3.8,3.7,1.7,3.7,3.8,3.7"/>
        <path id="path2701" class="st0" d="M308.1,180.1c1.3,0,2.3-1,2.3-2.3s-1-2.3-2.3-2.3-2.3,1-2.3,2.3,1,2.3,2.3,2.3"/>
        <path id="path2705" class="st0" d="M307.5,192.8c1.3,0,2.3-1,2.3-2.3s-1-2.3-2.3-2.3-2.3,1-2.3,2.3,1,2.3,2.3,2.3"/>
        <path id="path2709" class="st0" d="M305.6,205.8c1.6,0,2.8-1.3,2.8-2.8s-1.3-2.8-2.8-2.8-2.8,1.3-2.8,2.8,1.3,2.8,2.8,2.8"/>
        <path id="path2713" class="st0" d="M302.7,218.3c1.6,0,2.8-1.2,2.9-2.8,0-1.6-1.2-2.8-2.8-2.8-1.6,0-2.8,1.2-2.9,2.8,0,1.5,1.2,2.8,2.8,2.8"/>
        <path id="path2717" class="st0" d="M298.3,231.2c2.1,0,3.8-1.6,3.9-3.6,0-2-1.6-3.8-3.6-3.8-2.1,0-3.8,1.6-3.9,3.6,0,2.1,1.6,3.8,3.6,3.8"/>
        <path id="path2721" class="st0" d="M286.4,253c1.6,0,2.8-1.2,2.8-2.8s-1.3-2.8-2.8-2.8-2.8,1.3-2.8,2.8,1.3,2.8,2.8,2.8"/>
        <path id="path2725" class="st0" d="M278.8,263.5c1.7,0,3-1.3,3-3s-1.3-3-3-3-3,1.3-3,3,1.3,3,3,3"/>
        <path id="path2729" class="st0" d="M270.3,272.8c1.5,0,2.6-1.2,2.6-2.6s-1.2-2.6-2.6-2.6-2.6,1.2-2.6,2.6,1.2,2.6,2.6,2.6"/>
        <path id="path2733" class="st0" d="M260.9,281.9c1.7,0,3-1.3,3-3s-1.3-3-3-3-3,1.3-3,3,1.3,3,3,3"/>
        <path id="path2737" class="st0" d="M239.7,296.7c1.7,0,3.1-1.4,3.1-3s-1.4-3-3.1-3-3,1.4-3,3,1.4,3,3,3"/>
        <path id="path2741" class="st0" d="M228.1,301.8c1.3,0,2.3-1,2.3-2.3s-1-2.3-2.3-2.3-2.3,1-2.3,2.3,1,2.3,2.3,2.3"/>
        <path id="path2745" class="st0" d="M216,308c2.1,0,3.8-1.7,3.8-3.7s-1.7-3.7-3.8-3.7-3.8,1.7-3.8,3.7,1.7,3.7,3.8,3.7"/>
        <path id="path2749" class="st0" d="M203.5,311.6c2.1,0,3.8-1.7,3.8-3.7s-1.7-3.7-3.8-3.7-3.8,1.7-3.8,3.7,1.7,3.7,3.8,3.7"/>
        <path id="path2753" class="st0" d="M190.8,312.8c1.4,0,2.5-1.1,2.5-2.5s-1.1-2.5-2.5-2.5-2.5,1.1-2.5,2.5,1.1,2.5,2.5,2.5"/>
        <path id="path2757" class="st0" d="M177.8,313.8c1.3,0,2.3-1,2.3-2.3s-1-2.3-2.3-2.3-2.3,1-2.3,2.3,1,2.3,2.3,2.3"/>
        <path id="path2761" class="st0" d="M164.7,313.7c1.3,0,2.3-1,2.3-2.3s-1-2.3-2.3-2.3-2.3,1-2.3,2.3,1,2.3,2.3,2.3"/>
        <path id="path2765" class="st0" d="M151.8,313c1.6,0,2.8-1.3,2.8-2.8s-1.3-2.8-2.8-2.8-2.8,1.3-2.8,2.8,1.3,2.8,2.8,2.8"/>
        <path id="path2769" class="st0" d="M139,310.6c1.6,0,2.8-1.3,2.8-2.8s-1.3-2.8-2.8-2.8-2.8,1.3-2.8,2.8,1.3,2.8,2.8,2.8"/>
        <path id="path2773" class="st0" d="M126.5,306.5c1.2,0,2.1-1,2.1-2.2s-.9-2.2-2.1-2.2-2.1,1-2.1,2.2.9,2.2,2.1,2.2"/>
        <path id="path2777" class="st0" d="M114.4,302c1.4,0,2.5-1.1,2.5-2.5s-1.1-2.5-2.5-2.5-2.5,1.1-2.5,2.5,1.1,2.5,2.5,2.5"/>
        <path id="path2781" class="st0" d="M102.6,297.2c2.1,0,3.8-1.7,3.8-3.7s-1.7-3.7-3.8-3.7-3.8,1.7-3.8,3.7,1.7,3.7,3.8,3.7"/>
        <path id="path2785" class="st0" d="M91.9,291.3c2.2,0,4-2,4-4.5s-1.8-4.5-4-4.5-4,2-4,4.5,1.8,4.5,4,4.5"/>
        <path id="path2789" class="st0" d="M81.6,281.4c1.4,0,2.5-1.1,2.5-2.5s-1.1-2.5-2.5-2.5-2.5,1.1-2.5,2.5,1.1,2.5,2.5,2.5"/>
        <path id="path2793" class="st0" d="M72.2,272.8c1.5,0,2.6-1.2,2.6-2.6s-1.2-2.6-2.6-2.6-2.6,1.2-2.6,2.6,1.2,2.6,2.6,2.6"/>
        <path id="path2797" class="st0" d="M63.7,263.4c1.6,0,2.9-1.3,2.9-2.8s-1.3-2.9-2.9-2.9-2.9,1.3-2.9,2.9,1.3,2.8,2.9,2.8"/>
        <path id="path2801" class="st0" d="M56.1,252.6c1.4,0,2.5-1.1,2.5-2.4s-1.1-2.4-2.5-2.4-2.5,1.1-2.5,2.4,1.1,2.4,2.5,2.4"/>
        <path id="path2805" class="st0" d="M49.6,242c1.6,0,2.8-1.3,2.8-2.8s-1.3-2.8-2.8-2.8-2.8,1.3-2.8,2.8,1.3,2.8,2.8,2.8"/>
        <path id="path2809" class="st0" d="M44.2,230.4c1.6,0,2.8-1.2,2.8-2.8s-1.3-2.8-2.8-2.8-2.8,1.3-2.8,2.8,1.3,2.8,2.8,2.8"/>
        <path id="path2813" class="st0" d="M39.9,218c1.4,0,2.5-1.1,2.5-2.5s-1.1-2.5-2.5-2.5-2.5,1.1-2.5,2.5,1.1,2.5,2.5,2.5"/>
        <path id="path2817" class="st0" d="M37.3,206.1c1.4,0,2.5-1.1,2.5-2.5s-1.1-2.5-2.5-2.5-2.5,1.1-2.5,2.5,1.1,2.5,2.5,2.5"/>
        <path id="path2821" class="st0" d="M35,195.3c2.6,0,4.7-2.1,4.7-4.7s-2.1-4.7-4.7-4.7-4.7,2.1-4.7,4.7,2.1,4.7,4.7,4.7"/>
        <path id="path2825" class="st0" d="M34.4,182.3c2.5,0,4.4-2,4.4-4.4s-2-4.4-4.4-4.4-4.5,2-4.5,4.4,2,4.4,4.5,4.4"/>
        <path id="path2829" class="st0" d="M35,168.8c2,0,3.6-1.6,3.6-3.5s-1.6-3.5-3.6-3.5-3.6,1.6-3.6,3.5,1.6,3.5,3.6,3.5"/>
        <path id="path2833" class="st0" d="M84.7,193.8c2.1,0,3.8-1.7,3.8-3.7s-1.7-3.7-3.8-3.7-3.8,1.7-3.8,3.7,1.7,3.7,3.8,3.7"/>
        <path id="path2837" class="st0" d="M36.8,156.2c2,0,3.6-1.6,3.6-3.5s-1.6-3.5-3.6-3.5-3.6,1.6-3.6,3.5,1.6,3.5,3.6,3.5"/>
        <path id="path2841" class="st0" d="M39.9,143.8c2,0,3.6-1.6,3.6-3.5s-1.6-3.5-3.6-3.5-3.6,1.6-3.6,3.5,1.6,3.5,3.6,3.5"/>
        <path id="path2845" class="st0" d="M44.1,131.7c2,0,3.6-1.5,3.6-3.5,0-2-1.5-3.6-3.5-3.6-2,0-3.6,1.5-3.7,3.5,0,2,1.5,3.6,3.5,3.6"/>
        <path id="path2849" class="st0" d="M49.6,119.5c1.6,0,2.8-1.3,2.8-2.8s-1.3-2.8-2.8-2.8-2.8,1.3-2.8,2.8,1.3,2.8,2.8,2.8"/>
        <path id="path2853" class="st0" d="M56.1,109.4c2.1,0,3.8-1.7,3.8-3.7s-1.7-3.7-3.8-3.7-3.8,1.7-3.8,3.7,1.7,3.7,3.8,3.7"/>
        <path id="path2857" class="st0" d="M63.7,99.7c2.5,0,4.4-2,4.4-4.4s-2-4.4-4.4-4.4-4.5,2-4.5,4.4,2,4.4,4.5,4.4"/>
        <path id="path2861" class="st0" d="M72.2,90.1c2.4,0,4.4-2,4.4-4.4s-2-4.4-4.4-4.4-4.4,2-4.4,4.4,2,4.4,4.4,4.4"/>
        <path id="path2865" class="st0" d="M81.6,80.6c2.1,0,3.8-1.7,3.8-3.7s-1.7-3.7-3.8-3.7-3.8,1.7-3.8,3.7,1.7,3.7,3.8,3.7"/>
        <path id="path2869" class="st0" d="M91.9,73.3c2.4,0,4.3-1.9,4.3-4.3s-1.9-4.3-4.3-4.3-4.3,1.9-4.3,4.3,1.9,4.3,4.3,4.3"/>
        <path id="path2873" class="st0" d="M102.8,66.4c2.3,0,4.2-1.9,4.2-4.2s-1.9-4.2-4.2-4.2-4.2,1.9-4.2,4.2,1.9,4.2,4.2,4.2"/>
        <path id="path2877" class="st0" d="M114.4,60.8c2.5,0,4.5-2,4.5-4.5s-2-4.5-4.5-4.5-4.5,2-4.5,4.5,2,4.5,4.5,4.5"/>
        <path id="path2881" class="st0" d="M126.5,55.7c2.3,0,4.1-1.8,4.1-4.1s-1.9-4.1-4.1-4.1-4.1,1.8-4.1,4.1,1.9,4.1,4.1,4.1"/>
        <path id="path2885" class="st0" d="M139,52.2c2.3,0,4.2-1.9,4.2-4.2s-1.9-4.2-4.2-4.2-4.2,1.9-4.2,4.2,1.9,4.2,4.2,4.2"/>
        <path id="path2889" class="st0" d="M151.8,49.3c2.1,0,3.8-1.7,3.8-3.7s-1.7-3.7-3.8-3.7-3.8,1.7-3.8,3.7,1.7,3.7,3.8,3.7"/>
        <path id="path2893" class="st0" d="M164.7,47.8c1.9,0,3.4-1.5,3.4-3.4s-1.5-3.4-3.4-3.4-3.4,1.5-3.4,3.4,1.5,3.4,3.4,3.4"/>
        <path id="path2897" class="st0" d="M177.8,47.8c1.9,0,3.4-1.5,3.4-3.4s-1.5-3.4-3.4-3.4-3.4,1.5-3.4,3.4,1.5,3.4,3.4,3.4"/>
        <path id="path2901" class="st0" d="M190.7,49c1.9,0,3.4-1.5,3.4-3.4s-1.5-3.4-3.4-3.4-3.4,1.5-3.4,3.4,1.5,3.4,3.4,3.4"/>
        <path id="path2905" class="st0" d="M203.5,51.7c2.1,0,3.8-1.7,3.8-3.7s-1.7-3.7-3.8-3.7-3.8,1.7-3.8,3.7,1.7,3.7,3.8,3.7"/>
        <path id="path2909" class="st0" d="M216,55c1.9,0,3.5-1.5,3.5-3.4s-1.6-3.4-3.5-3.4-3.5,1.5-3.5,3.4,1.6,3.4,3.5,3.4"/>
        <path id="path2913" class="st0" d="M228.1,59.8c1.9,0,3.5-1.5,3.5-3.4s-1.5-3.4-3.5-3.4-3.5,1.5-3.5,3.4,1.6,3.4,3.5,3.4"/>
        <path id="path2917" class="st0" d="M239.7,65.3c1.8,0,3.2-1.4,3.2-3.1s-1.4-3.1-3.2-3.1-3.2,1.4-3.2,3.1,1.4,3.1,3.2,3.1"/>
        <path id="path2921" class="st0" d="M250.6,72.2c1.7,0,3.2-1.4,3.2-3.1s-1.4-3.1-3.2-3.1-3.2,1.4-3.2,3.1,1.4,3.1,3.2,3.1"/>
        <path id="path2925" class="st0" d="M260.9,80.9c2.2,0,4.1-1.8,4.1-4s-1.8-4-4.1-4-4.1,1.8-4.1,4,1.8,4,4.1,4"/>
        <path id="path2929" class="st0" d="M270.3,89.7c2.3,0,4.1-1.8,4.1-4s-1.8-4-4.1-4-4.1,1.8-4.1,4,1.8,4,4.1,4"/>
        <path id="path2933" class="st0" d="M278.8,99.3c2.2,0,4.1-1.8,4.1-4s-1.8-4-4.1-4-4.1,1.8-4.1,4,1.8,4,4.1,4"/>
        <path id="path2937" class="st0" d="M286.4,109.2c2,0,3.6-1.6,3.6-3.5s-1.6-3.5-3.6-3.5-3.6,1.6-3.6,3.5,1.6,3.5,3.6,3.5"/>
        <path id="path2941" class="st0" d="M292.9,120.2c2,0,3.6-1.6,3.6-3.5s-1.6-3.5-3.6-3.5-3.6,1.6-3.6,3.5,1.6,3.5,3.6,3.5"/>
        <path id="path2945" class="st0" d="M298.3,132c2,0,3.6-1.6,3.6-3.5s-1.6-3.5-3.6-3.5-3.6,1.6-3.6,3.5,1.6,3.5,3.6,3.5"/>
        <path id="path2949" class="st0" d="M303.4,143.9c2,0,3.6-1.6,3.6-3.5s-1.6-3.5-3.6-3.5-3.6,1.6-3.6,3.5,1.6,3.5,3.6,3.5"/>
        <path id="path2953" class="st0" d="M305.6,155.4c1.6,0,3-1.3,3-2.9s-1.3-2.9-3-2.9-3,1.3-3,2.9,1.3,2.9,3,2.9"/>
        <path id="path2957" class="st0" d="M307.5,167.4c1.3,0,2.3-1,2.3-2.2s-1-2.2-2.3-2.2-2.3,1-2.3,2.2,1,2.2,2.3,2.2"/>
        <path id="path2961" class="st0" d="M320.6,180.3c1.4,0,2.5-1.1,2.5-2.5s-1.1-2.5-2.5-2.5-2.5,1.1-2.5,2.5,1.1,2.5,2.5,2.5"/>
        <path id="path2965" class="st0" d="M320,192.9c1.4,0,2.5-1.1,2.5-2.5s-1.1-2.5-2.5-2.5-2.5,1.1-2.5,2.5,1.1,2.5,2.5,2.5"/>
        <path id="path2969" class="st0" d="M318.3,205.5c1.4,0,2.5-1.1,2.5-2.5s-1.1-2.5-2.5-2.5-2.5,1.1-2.5,2.5,1.1,2.5,2.5,2.5"/>
        <path id="path2973" class="st0" d="M315.6,218.1c1.4,0,2.5-1.1,2.5-2.5,0-1.4-1.1-2.5-2.5-2.5-1.4,0-2.5,1.1-2.5,2.4,0,1.4,1.1,2.5,2.5,2.5"/>
        <path id="path2977" class="st0" d="M300.7,253.4c1.4,0,2.5-1.1,2.5-2.5s-1.1-2.5-2.5-2.5-2.5,1.1-2.5,2.5,1.1,2.5,2.5,2.5"/>
        <path id="path2981" class="st0" d="M293.7,264.1c1.4,0,2.5-1.1,2.5-2.5s-1.1-2.5-2.5-2.5-2.5,1.1-2.5,2.5,1.1,2.5,2.5,2.5"/>
        <path id="path2985" class="st0" d="M308.7,265.1c1.4,0,2.5-1.1,2.5-2.5s-1.1-2.5-2.5-2.5-2.5,1.1-2.5,2.5,1.1,2.5,2.5,2.5"/>
        <path id="path2989" class="st0" d="M285.7,274.2c1.4,0,2.5-1.1,2.5-2.5s-1.1-2.5-2.5-2.5-2.5,1.1-2.5,2.5,1.1,2.5,2.5,2.5"/>
        <path id="path2993" class="st0" d="M276.8,283.6c1.4,0,2.6-1.2,2.6-2.6s-1.2-2.6-2.6-2.6-2.6,1.2-2.6,2.6,1.2,2.6,2.6,2.6"/>
        <path id="path2997" class="st0" d="M267.2,292.1c1.4,0,2.5-1.1,2.5-2.5s-1.1-2.5-2.5-2.5-2.5,1.1-2.5,2.5,1.1,2.5,2.5,2.5"/>
        <path id="path3001" class="st0" d="M256.9,299.9c1.4,0,2.5-1.1,2.5-2.5s-1.1-2.5-2.5-2.5-2.5,1.1-2.5,2.5,1.1,2.5,2.5,2.5"/>
        <path id="path3005" class="st0" d="M245.9,306.7c1.4,0,2.5-1.1,2.5-2.5s-1.1-2.5-2.5-2.5-2.5,1.1-2.5,2.5,1.1,2.5,2.5,2.5"/>
        <path id="path3009" class="st0" d="M234.3,312.6c1.4,0,2.5-1.1,2.5-2.5s-1.1-2.5-2.5-2.5-2.5,1.1-2.5,2.5,1.1,2.5,2.5,2.5"/>
        <path id="path3013" class="st0" d="M222.3,317.4c1.4,0,2.5-1.1,2.5-2.5s-1.1-2.5-2.5-2.5-2.5,1.1-2.5,2.5,1.1,2.5,2.5,2.5"/>
        <path id="path3045" class="st0" d="M120.2,317.8c1.6,0,2.8-1.3,2.8-2.8s-1.3-2.8-2.8-2.8-2.8,1.3-2.8,2.8,1.3,2.8,2.8,2.8"/>
        <path id="path3049" class="st0" d="M108.1,312.5c1.3,0,2.5-1.1,2.5-2.4s-1.1-2.4-2.5-2.4-2.5,1.1-2.5,2.4,1.1,2.4,2.5,2.4"/>
        <path id="path3053" class="st0" d="M96.6,306.5c1.2,0,2.3-1,2.3-2.2s-1-2.2-2.3-2.2-2.3,1-2.3,2.2,1,2.2,2.3,2.2"/>
        <path id="path3057" class="st0" d="M85.4,300.9c2.1,0,3.8-1.7,3.8-3.7s-1.7-3.7-3.8-3.7-3.8,1.7-3.8,3.7,1.7,3.7,3.8,3.7"/>
        <path id="path3061" class="st0" d="M75.3,293.4c2.1,0,3.8-1.7,3.8-3.7s-1.7-3.7-3.8-3.7-3.8,1.7-3.8,3.7,1.7,3.7,3.8,3.7"/>
        <path id="path3065" class="st0" d="M65.9,283.5c1.3,0,2.3-1,2.3-2.3s-1-2.3-2.3-2.3-2.3,1-2.3,2.3,1,2.3,2.3,2.3"/>
        <path id="path3069" class="st0" d="M56.9,274.1c1.4,0,2.5-1.1,2.5-2.5s-1.1-2.5-2.5-2.5-2.5,1.1-2.5,2.5,1.1,2.5,2.5,2.5"/>
        <path id="path3073" class="st0" d="M48.9,264.1c1.4,0,2.5-1.1,2.5-2.5s-1.1-2.5-2.5-2.5-2.5,1.1-2.5,2.5,1.1,2.5,2.5,2.5"/>
        <path id="path3077" class="st0" d="M42.1,253.4c1.4,0,2.5-1.1,2.5-2.5s-1.1-2.5-2.5-2.5-2.5,1.1-2.5,2.5,1.1,2.5,2.5,2.5"/>
        <path id="path3081" class="st0" d="M36,242.5c1.6,0,2.9-1.3,2.9-2.9s-1.3-2.9-2.9-2.9-2.9,1.3-2.9,2.9,1.3,2.9,2.9,2.9"/>
        <path id="path3085" class="st0" d="M31.1,230.4c1.4,0,2.5-1.1,2.5-2.5s-1.1-2.5-2.5-2.5-2.5,1.1-2.5,2.5,1.1,2.5,2.5,2.5"/>
        <path id="path3089" class="st0" d="M27,218.2c1.4,0,2.5-1.1,2.5-2.5s-1.1-2.5-2.5-2.5-2.5,1.1-2.5,2.5,1.1,2.5,2.5,2.5"/>
        <path id="path3093" class="st0" d="M24.8,206.3c1.4,0,2.5-1.1,2.5-2.5s-1.1-2.5-2.5-2.5-2.5,1.1-2.5,2.5,1.1,2.5,2.5,2.5"/>
        <path id="path3097" class="st0" d="M22.5,194.6c2.2,0,4-1.8,4-3.9s-1.8-3.9-4-3.9-4,1.7-4,3.9,1.8,3.9,4,3.9"/>
        <path id="path3101" class="st0" d="M21.9,181.7c2.2,0,4-1.7,4-3.7s-1.8-3.7-4-3.7-4,1.7-4,3.7,1.8,3.7,4,3.7"/>
        <path id="path3105" class="st0" d="M22.5,168.6c1.9,0,3.4-1.5,3.4-3.4s-1.5-3.4-3.4-3.4-3.4,1.5-3.4,3.4,1.5,3.4,3.4,3.4"/>
        <path id="path3109" class="st0" d="M24.2,156c1.9,0,3.4-1.5,3.4-3.4s-1.5-3.4-3.4-3.4-3.4,1.5-3.4,3.4,1.5,3.4,3.4,3.4"/>
        <path id="path3113" class="st0" d="M27,143.4c1.7,0,3.1-1.4,3.1-3.1s-1.4-3.1-3.1-3.1-3.1,1.4-3.1,3.1,1.4,3.1,3.1,3.1"/>
        <path id="path3117" class="st0" d="M30.9,131c1.7,0,3.1-1.3,3.2-3,0-1.7-1.3-3.1-3-3.1-1.7,0-3.1,1.3-3.2,3,0,1.7,1.3,3.1,3,3.1"/>
        <path id="path3121" class="st0" d="M35.9,119.7c1.9,0,3.4-1.5,3.4-3.4s-1.5-3.4-3.4-3.4-3.4,1.5-3.4,3.4,1.5,3.4,3.4,3.4"/>
        <path id="path3125" class="st0" d="M41.9,108.7c2.1,0,3.8-1.7,3.8-3.7s-1.7-3.7-3.8-3.7-3.8,1.7-3.8,3.7,1.7,3.7,3.8,3.7"/>
        <path id="path3129" class="st0" d="M48.9,98.6c2.4,0,4.3-1.9,4.3-4.3s-1.9-4.3-4.3-4.3-4.3,1.9-4.3,4.3,2,4.3,4.3,4.3"/>
        <path id="path3133" class="st0" d="M56.9,87.9c2.1,0,3.8-1.7,3.8-3.7s-1.7-3.7-3.8-3.7-3.8,1.7-3.8,3.7,1.7,3.7,3.8,3.7"/>
        <path id="path3137" class="st0" d="M65.7,78.8c2.2,0,4.1-1.8,4.1-4s-1.8-4-4.1-4-4,1.8-4,4,1.8,4,4,4"/>
        <path id="path3141" class="st0" d="M75.3,69.9c2.1,0,3.8-1.7,3.8-3.7s-1.7-3.7-3.8-3.7-3.8,1.7-3.8,3.7,1.7,3.7,3.8,3.7"/>
        <path id="path3145" class="st0" d="M85.6,62.2c2.1,0,3.8-1.7,3.8-3.7s-1.7-3.7-3.8-3.7-3.8,1.7-3.8,3.7,1.7,3.7,3.8,3.7"/>
        <path id="path3149" class="st0" d="M96.6,55.4c2.1,0,3.8-1.7,3.8-3.7s-1.7-3.7-3.8-3.7-3.8,1.7-3.8,3.7,1.7,3.7,3.8,3.7"/>
        <path id="path3153" class="st0" d="M108.1,49.5c2.1,0,3.8-1.7,3.8-3.7s-1.7-3.7-3.8-3.7-3.8,1.7-3.8,3.7,1.7,3.7,3.8,3.7"/>
        <path id="path3157" class="st0" d="M120.2,44.6c2.1,0,3.8-1.7,3.8-3.7s-1.7-3.7-3.8-3.7-3.8,1.7-3.8,3.7,1.7,3.7,3.8,3.7"/>
        <path id="path3161" class="st0" d="M132.6,40.8c2.1,0,3.8-1.7,3.8-3.7s-1.7-3.7-3.8-3.7-3.8,1.7-3.8,3.7,1.7,3.7,3.8,3.7"/>
        <path id="path3165" class="st0" d="M145.3,38c2.1,0,3.8-1.7,3.8-3.7s-1.7-3.7-3.8-3.7-3.8,1.7-3.8,3.7,1.7,3.7,3.8,3.7"/>
        <path id="path3169" class="st0" d="M158.2,36.4c2.1,0,3.8-1.7,3.8-3.7s-1.7-3.7-3.8-3.7-3.8,1.7-3.8,3.7,1.7,3.7,3.8,3.7"/>
        <path id="path3173" class="st0" d="M171.2,35.8c2.1,0,3.8-1.7,3.8-3.7s-1.7-3.7-3.8-3.7-3.8,1.7-3.8,3.7,1.7,3.7,3.8,3.7"/>
        <path id="path3177" class="st0" d="M184.3,36.4c2.1,0,3.8-1.7,3.8-3.7s-1.7-3.7-3.8-3.7-3.8,1.7-3.8,3.7,1.7,3.7,3.8,3.7"/>
        <path id="path3181" class="st0" d="M197.2,38c2.1,0,3.8-1.7,3.8-3.7s-1.7-3.7-3.8-3.7-3.8,1.7-3.8,3.7,1.7,3.7,3.8,3.7"/>
        <path id="path3185" class="st0" d="M209.9,40.5c1.9,0,3.5-1.5,3.5-3.5s-1.6-3.4-3.5-3.4-3.5,1.5-3.5,3.4,1.6,3.5,3.5,3.5"/>
        <path id="path3189" class="st0" d="M222.6,43.7c1.4,0,2.5-1.1,2.5-2.5s-1.1-2.5-2.5-2.5-2.5,1.1-2.5,2.5,1.1,2.5,2.5,2.5"/>
        <path id="path3193" class="st0" d="M234.3,49.4c2,0,3.7-1.6,3.7-3.7s-1.6-3.7-3.7-3.7-3.7,1.6-3.7,3.7,1.7,3.7,3.7,3.7"/>
        <path id="path3197" class="st0" d="M256.9,62.9c2.4,0,4.4-2,4.4-4.4s-2-4.4-4.4-4.4-4.4,2-4.4,4.4,2,4.4,4.4,4.4"/>
        <path id="path3201" class="st0" d="M267.2,70.6c2.5,0,4.4-2,4.4-4.4s-2-4.4-4.4-4.4-4.4,2-4.4,4.4,2,4.4,4.4,4.4"/>
        <path id="path3205" class="st0" d="M276.8,78.9c2.3,0,4.1-1.8,4.1-4.1s-1.9-4.1-4.1-4.1-4.1,1.8-4.1,4.1,1.8,4.1,4.1,4.1"/>
        <path id="path3209" class="st0" d="M285.6,88.9c2.6,0,4.7-2.1,4.7-4.7s-2.1-4.7-4.7-4.7-4.7,2.1-4.7,4.7,2.1,4.7,4.7,4.7"/>
        <path id="path3213" class="st0" d="M293.6,98.3c2.2,0,4.1-1.8,4.1-4s-1.8-4-4.1-4-4.1,1.8-4.1,4,1.8,4,4.1,4"/>
        <path id="path3217" class="st0" d="M300.5,109.4c2.4,0,4.4-2,4.4-4.4s-2-4.4-4.4-4.4-4.4,2-4.4,4.4,2,4.4,4.4,4.4"/>
        <path id="path3221" class="st0" d="M306.6,120.7c2.4,0,4.4-2,4.4-4.4s-2-4.4-4.4-4.4-4.4,2-4.4,4.4,2,4.4,4.4,4.4"/>
        <path id="path3225" class="st0" d="M315.7,254.1c1.4,0,2.5-1.1,2.5-2.5s-1.1-2.5-2.5-2.5-2.5,1.1-2.5,2.5,1.1,2.5,2.5,2.5"/>
        <path id="path3229" class="st0" d="M300.7,275.4c1.4,0,2.5-1.1,2.5-2.5s-1.1-2.5-2.5-2.5-2.5,1.1-2.5,2.5,1.1,2.5,2.5,2.5"/>
        <path id="path3233" class="st0" d="M292.4,285.3c1.4,0,2.5-1.1,2.5-2.5s-1.1-2.5-2.5-2.5-2.5,1.1-2.5,2.5,1.1,2.5,2.5,2.5"/>
        <path id="path3237" class="st0" d="M252.1,317.2c1.4,0,2.5-1.1,2.5-2.5s-1.1-2.5-2.5-2.5-2.5,1.1-2.5,2.5,1.1,2.5,2.5,2.5"/>
        <path id="path3257" class="st0" d="M90.5,317.1c1.2,0,2.3-1,2.3-2.2s-1-2.2-2.3-2.2-2.3,1-2.3,2.2,1,2.2,2.3,2.2"/>
        <path id="path3261" class="st0" d="M79.1,311.1c1.2,0,2.3-1,2.3-2.2s-1-2.2-2.3-2.2-2.3,1-2.3,2.2,1,2.2,2.3,2.2"/>
        <path id="path3265" class="st0" d="M68.7,303.1c1.6,0,2.8-1.3,2.8-2.8s-1.3-2.8-2.8-2.8-2.8,1.2-2.8,2.8,1.3,2.8,2.8,2.8"/>
        <path id="path3269" class="st0" d="M59,294.6c1.2,0,2.3-1,2.3-2.2s-1-2.2-2.3-2.2-2.3,1-2.3,2.2,1,2.2,2.3,2.2"/>
        <path id="path3273" class="st0" d="M50.2,285.2c1.4,0,2.5-1.1,2.5-2.5s-1.1-2.5-2.5-2.5-2.5,1.1-2.5,2.5,1.1,2.5,2.5,2.5"/>
        <path id="path3277" class="st0" d="M41.9,275.3c1.4,0,2.5-1.1,2.5-2.5s-1.1-2.5-2.5-2.5-2.5,1.1-2.5,2.5,1.1,2.5,2.5,2.5"/>
        <path id="path3281" class="st0" d="M34.5,264.6c1.2,0,2.2-1,2.2-2.2s-1-2.2-2.2-2.2-2.2,1-2.2,2.2,1,2.2,2.2,2.2"/>
        <path id="path3285" class="st0" d="M28,254.3c1.6,0,3-1.3,3-2.9s-1.3-2.9-3-2.9-3,1.3-3,2.9,1.3,2.9,3,2.9"/>
        <path id="path3289" class="st0" d="M22.7,242.7c1.2,0,2.2-1,2.2-2.2s-1-2.2-2.2-2.2-2.2,1-2.2,2.2,1,2.2,2.2,2.2"/>
        <path id="path3293" class="st0" d="M17.7,231c1.5,0,2.8-1.2,2.8-2.8s-1.2-2.8-2.8-2.8-2.8,1.2-2.8,2.8,1.3,2.8,2.8,2.8"/>
        <path id="path3297" class="st0" d="M13.8,219c1.6,0,3-1.3,3-2.9s-1.3-2.9-3-2.9-3,1.3-3,2.9,1.3,2.9,3,2.9"/>
        <path id="path3301" class="st0" d="M10.6,208c2.1,0,3.8-1.7,3.8-3.7s-1.7-3.7-3.8-3.7-3.8,1.7-3.8,3.7,1.7,3.7,3.8,3.7"/>
        <path id="path3305" class="st0" d="M10.6,154.8c1.3,0,2.3-1,2.3-2.3s-1-2.3-2.3-2.3-2.3,1-2.3,2.3,1.1,2.3,2.3,2.3"/>
        <path id="path3309" class="st0" d="M13.7,142.8c1.4,0,2.5-1.1,2.5-2.5s-1.1-2.5-2.5-2.5-2.5,1.1-2.5,2.5,1.1,2.5,2.5,2.5"/>
        <path id="path3313" class="st0" d="M21.6,118.2c1.4,0,2.5-1.1,2.5-2.5s-1.1-2.5-2.5-2.5-2.5,1.1-2.5,2.5,1.1,2.5,2.5,2.5"/>
        <path id="path3317" class="st0" d="M28,107.9c1.9,0,3.4-1.5,3.4-3.4s-1.5-3.4-3.4-3.4-3.4,1.5-3.4,3.4,1.5,3.4,3.4,3.4"/>
        <path id="path3321" class="st0" d="M34.5,96.6c1.7,0,3.2-1.4,3.2-3.1s-1.4-3.1-3.2-3.1-3.2,1.4-3.2,3.1,1.4,3.1,3.2,3.1"/>
        <path id="path3325" class="st0" d="M41.9,85.7c1.5,0,2.7-1.2,2.7-2.7s-1.2-2.7-2.7-2.7-2.7,1.2-2.7,2.7,1.2,2.7,2.7,2.7"/>
        <path id="path3329" class="st0" d="M50.2,76c1.6,0,2.8-1.3,2.8-2.8s-1.3-2.8-2.8-2.8-2.8,1.3-2.8,2.8,1.3,2.8,2.8,2.8"/>
        <path id="path3333" class="st0" d="M59.2,66.8c1.6,0,2.8-1.3,2.8-2.8s-1.3-2.8-2.8-2.8-2.8,1.3-2.8,2.8,1.3,2.8,2.8,2.8"/>
        <path id="path3337" class="st0" d="M68.9,58.4c1.6,0,2.8-1.3,2.8-2.8s-1.3-2.8-2.8-2.8-2.8,1.3-2.8,2.8,1.3,2.8,2.8,2.8"/>
        <path id="path3341" class="st0" d="M79.4,51.4c2,0,3.6-1.6,3.6-3.5s-1.6-3.5-3.6-3.5-3.6,1.6-3.6,3.5,1.6,3.5,3.6,3.5"/>
        <path id="path3345" class="st0" d="M90.4,43.9c1.6,0,2.8-1.3,2.8-2.8s-1.3-2.8-2.8-2.8-2.8,1.3-2.8,2.8,1.3,2.8,2.8,2.8"/>
        <path id="path3349" class="st0" d="M101.9,38.4c1.8,0,3.2-1.4,3.2-3.2s-1.4-3.2-3.2-3.2-3.2,1.4-3.2,3.2,1.4,3.2,3.2,3.2"/>
        <path id="path3353" class="st0" d="M113.9,33c1.6,0,2.8-1.3,2.8-2.8s-1.3-2.8-2.8-2.8-2.8,1.3-2.8,2.8,1.3,2.8,2.8,2.8"/>
        <path id="path3357" class="st0" d="M126.2,29.2c1.7,0,3-1.3,3-3s-1.3-3-3-3-3,1.3-3,3,1.4,3,3,3"/>
        <path id="path3361" class="st0" d="M138.9,26.5c1.9,0,3.4-1.5,3.4-3.3s-1.5-3.3-3.4-3.3-3.4,1.5-3.4,3.3,1.5,3.3,3.4,3.3"/>
        <path id="path3365" class="st0" d="M151.7,24.5c1.9,0,3.4-1.5,3.4-3.4s-1.5-3.3-3.4-3.3-3.4,1.5-3.4,3.3,1.5,3.4,3.4,3.4"/>
        <path id="path3369" class="st0" d="M164.7,23.5c1.9,0,3.5-1.5,3.5-3.5s-1.6-3.5-3.5-3.5-3.5,1.6-3.5,3.5,1.6,3.5,3.5,3.5"/>
        <path id="path3373" class="st0" d="M177.8,23.6c2,0,3.6-1.6,3.6-3.5s-1.6-3.5-3.6-3.5-3.6,1.6-3.6,3.5,1.6,3.5,3.6,3.5"/>
        <path id="path3377" class="st0" d="M190.7,24.6c1.9,0,3.5-1.6,3.5-3.5s-1.6-3.5-3.5-3.5-3.5,1.6-3.5,3.5,1.6,3.5,3.5,3.5"/>
        <path id="path3381" class="st0" d="M203.6,26.5c1.9,0,3.4-1.5,3.4-3.4s-1.5-3.4-3.4-3.4-3.4,1.5-3.4,3.4,1.5,3.4,3.4,3.4"/>
        <path id="path3385" class="st0" d="M216.5,28.9c1.4,0,2.5-1.1,2.5-2.4s-1.1-2.4-2.5-2.4-2.4,1.1-2.4,2.4,1.1,2.4,2.4,2.4"/>
        <path id="path3389" class="st0" d="M228.9,32.9c1.4,0,2.4-1.1,2.4-2.4s-1.1-2.4-2.4-2.4-2.5,1.1-2.5,2.4,1.1,2.4,2.5,2.4"/>
        <path id="path3393" class="st0" d="M240.6,39.5c2.4,0,4.3-1.9,4.3-4.3s-1.9-4.3-4.3-4.3-4.3,1.9-4.3,4.3,1.9,4.3,4.3,4.3"/>
        <path id="path3397" class="st0" d="M263.1,52.2c2.4,0,4.3-1.9,4.3-4.3s-1.9-4.3-4.3-4.3-4.3,1.9-4.3,4.3,1.9,4.3,4.3,4.3"/>
        <path id="path3401" class="st0" d="M273.5,59.8c2.4,0,4.3-1.9,4.3-4.2s-1.9-4.2-4.3-4.2-4.3,1.9-4.3,4.2,1.9,4.2,4.3,4.2"/>
        <path id="path3405" class="st0" d="M283.3,68.6c2.6,0,4.6-2.1,4.6-4.6s-2.1-4.6-4.6-4.6-4.6,2-4.6,4.6,2.1,4.6,4.6,4.6"/>
        <path id="path3409" class="st0" d="M302.6,84.8c1.4,0,2.5-1.1,2.5-2.4s-1.1-2.4-2.5-2.4-2.4,1.1-2.4,2.4,1.1,2.4,2.4,2.4"/>
        <path id="path3413" class="st0" d="M294.1,75.3c1.4,0,2.5-1.1,2.5-2.4s-1.1-2.4-2.5-2.4-2.4,1.1-2.4,2.4,1.1,2.4,2.4,2.4"/>
        <path id="path3417" class="st0" d="M309.7,94.8c1.4,0,2.5-1.1,2.5-2.4s-1.1-2.4-2.5-2.4-2.4,1.1-2.4,2.4,1.1,2.4,2.4,2.4"/>
        <path id="path3421" class="st0" d="M316.3,108.3c2.1,0,3.8-1.7,3.8-3.7s-1.7-3.7-3.8-3.7-3.8,1.7-3.8,3.7,1.7,3.7,3.8,3.7"/>
        <path id="path3425" class="st0" d="M285.7,133.1c2.6,0,4.6-2,4.6-4.6s-2.1-4.6-4.6-4.6-4.6,2-4.6,4.6,2.1,4.6,4.6,4.6"/>
        <path id="path3429" class="st0" d="M270.6,132.9c2.5,0,4.5-2,4.5-4.4s-2-4.4-4.5-4.4-4.4,2-4.4,4.4,2,4.4,4.4,4.4"/>
        <path id="path3433" class="st0" d="M275.8,144.7c2.5,0,4.4-2,4.4-4.4s-2-4.4-4.4-4.4-4.4,2-4.4,4.4,2,4.4,4.4,4.4"/>
        <path id="path3437" class="st0" d="M290.1,144.9c2.5,0,4.6-2,4.6-4.6s-2.1-4.6-4.6-4.6-4.6,2-4.6,4.6,2.1,4.6,4.6,4.6"/>
        <path id="path3441" class="st0" d="M278.9,243c2.2,0,4-1.7,4.1-3.9,0-2.3-1.6-4.2-3.8-4.3-2.2,0-4.1,1.7-4.1,4s1.6,4.2,3.9,4.2"/>
        <path id="path3445" class="st0" d="M20.4,95.4c1.4,0,2.6-1.1,2.6-2.6s-1.2-2.6-2.6-2.6-2.6,1.2-2.6,2.6,1.2,2.6,2.6,2.6"/>
        <path id="path3449" class="st0" d="M27.1,84.7c1.4,0,2.5-1.1,2.5-2.5s-1.1-2.5-2.5-2.5-2.5,1.1-2.5,2.5,1.1,2.5,2.5,2.5"/>
        <path id="path3453" class="st0" d="M35.2,74.4c1.4,0,2.5-1.1,2.5-2.5s-1.1-2.5-2.5-2.5-2.5,1.1-2.5,2.5,1.1,2.5,2.5,2.5"/>
        <path id="path3457" class="st0" d="M53,55.4c1.6,0,2.8-1.3,2.8-2.8s-1.3-2.8-2.8-2.8-2.8,1.3-2.8,2.8,1.3,2.8,2.8,2.8"/>
        <path id="path3461" class="st0" d="M44,64.1c1.3,0,2.4-1.1,2.4-2.4s-1.1-2.4-2.4-2.4-2.5,1.1-2.5,2.4,1.1,2.4,2.5,2.4"/>
        <path id="path3465" class="st0" d="M73.4,39.7c1.7,0,3-1.3,3-3s-1.3-3-3-3-3,1.3-3,3,1.3,3,3,3"/>
        <path id="path3469" class="st0" d="M84.3,33.2c1.6,0,2.8-1.2,2.8-2.8s-1.3-2.8-2.8-2.8-2.8,1.2-2.8,2.8,1.3,2.8,2.8,2.8"/>
        <path id="path3473" class="st0" d="M96.2,27.4c1.6,0,2.8-1.3,2.8-2.8s-1.3-2.8-2.8-2.8-2.8,1.2-2.8,2.8,1.3,2.8,2.8,2.8"/>
        <path id="path3477" class="st0" d="M9.7,179.8c.8-1.2.5-2.7-.7-3.5-1.2-.8-2.8-.4-3.6.8-.8,1.2-.5,2.7.7,3.5,1.2.8,2.8.4,3.5-.8"/>
        <path id="path3481" class="st0" d="M11.3,166.7c.9-1.3.5-3-.8-3.9s-3.1-.5-3.9.8c-.9,1.3-.5,3,.8,3.9,1.3.8,3.1.5,3.9-.8"/>
        <path id="path3485" class="st0" d="M108,22.4c1.6,0,2.8-1.3,2.8-2.8s-1.3-2.8-2.8-2.8-2.8,1.3-2.8,2.8,1.3,2.8,2.8,2.8"/>
        <path id="path3489" class="st0" d="M120.2,17.9c1.6,0,2.8-1.3,2.8-2.8s-1.3-2.8-2.8-2.8-2.8,1.3-2.8,2.8,1.3,2.8,2.8,2.8"/>
        <path id="path3493" class="st0" d="M132.5,14.9c1.6,0,2.8-1.3,2.8-2.8s-1.3-2.8-2.8-2.8-2.8,1.3-2.8,2.8,1.3,2.8,2.8,2.8"/>
        <path id="path3497" class="st0" d="M145.3,12.5c1.6,0,2.8-1.3,2.8-2.8s-1.3-2.8-2.8-2.8-2.8,1.3-2.8,2.8,1.3,2.8,2.8,2.8"/>
        <path id="path3501" class="st0" d="M158.2,10.9c1.5,0,2.6-1.2,2.6-2.6s-1.2-2.6-2.6-2.6-2.6,1.2-2.6,2.6,1.2,2.6,2.6,2.6"/>
        <path id="path3505" class="st0" d="M171.2,10.6c1.6,0,2.8-1.3,2.8-2.8s-1.3-2.8-2.8-2.8-2.8,1.3-2.8,2.8,1.3,2.8,2.8,2.8"/>
        <path id="path3509" class="st0" d="M184.3,11.1c1.6,0,2.8-1.3,2.8-2.8s-1.3-2.8-2.8-2.8-2.8,1.3-2.8,2.8,1.3,2.8,2.8,2.8"/>
        <path id="path3513" class="st0" d="M197.2,12.3c1.5,0,2.6-1.2,2.6-2.6s-1.2-2.6-2.6-2.6-2.6,1.2-2.6,2.6,1.2,2.6,2.6,2.6"/>
        <path id="path3517" class="st0" d="M210,14.9c1.6,0,2.8-1.3,2.8-2.8s-1.3-2.8-2.8-2.8-2.8,1.3-2.8,2.8,1.3,2.8,2.8,2.8"/>
        <path id="path3521" class="st0" d="M222.6,18.1c1.6,0,2.8-1.2,2.8-2.8s-1.3-2.8-2.8-2.8-2.8,1.3-2.8,2.8,1.3,2.8,2.8,2.8"/>
        <path id="path3525" class="st0" d="M234.9,22.7c1.8,0,3.2-1.4,3.2-3.2s-1.4-3.2-3.2-3.2-3.2,1.4-3.2,3.2,1.4,3.2,3.2,3.2"/>
        <path id="path3529" class="st0" d="M246.8,27.8c1.8,0,3.2-1.4,3.2-3.2s-1.4-3.2-3.2-3.2-3.2,1.4-3.2,3.2,1.4,3.2,3.2,3.2"/>
        <path id="path3533" class="st0" d="M270.1,39.7c1.7,0,3-1.3,3-3s-1.4-3-3-3-3,1.3-3,3,1.4,3,3,3"/>
        <path id="path3537" class="st0" d="M280.5,48c2.1,0,3.8-1.7,3.8-3.7s-1.7-3.7-3.8-3.7-3.8,1.7-3.8,3.7,1.7,3.7,3.8,3.7"/>
        <path id="path3541" class="st0" d="M291.4,56.4c1.8,0,3.2-1.4,3.2-3.2s-1.4-3.2-3.2-3.2-3.2,1.4-3.2,3.2,1.4,3.2,3.2,3.2"/>
        <path id="path3545" class="st0" d="M301.6,67c2.1,0,3.8-1.7,3.8-3.7s-1.7-3.7-3.8-3.7-3.8,1.7-3.8,3.7,1.7,3.7,3.8,3.7"/>
        <path id="path3549" class="st0" d="M7.9,194.4c1.6,0,2.9-1.3,2.9-2.9s-1.3-2.9-2.9-2.9-2.9,1.3-2.9,2.9,1.3,2.9,2.9,2.9"/>
        <path id="path3553" class="st0" d="M63.1,47.3c1.8,0,3.2-1.4,3.2-3.2s-1.4-3.2-3.2-3.2-3.2,1.4-3.2,3.2,1.4,3.2,3.2,3.2"/>
        <path id="path3557" class="st0" d="M249.9,290.3c2.3,0,4.1-1.8,4.1-4.1s-1.9-4.1-4.1-4.1-4.1,1.8-4.1,4.1,1.9,4.1,4.1,4.1"/>
        <path id="path3561" class="st0" d="M262.2,310.6c1.7,0,3-1.3,3-3s-1.4-3-3-3-3,1.3-3,3,1.3,3,3,3"/>
        <path id="path3565" class="st0" d="M273.7,303.2c1.7,0,3-1.3,3-3s-1.3-3-3-3-3,1.3-3,3,1.3,3,3,3"/>
        <path id="path3569" class="st0" d="M283.9,294.8c1.7,0,3-1.3,3-3s-1.4-3-3-3-3,1.3-3,3,1.4,3,3,3"/>
        <path id="path3573" class="st0" d="M318.9,241.8c.8,1.5,2.6,2,4.1,1.3,1.5-.8,2.1-2.6,1.3-4-.8-1.5-2.6-2-4.1-1.3-1.5.8-2.1,2.6-1.3,4"/>
        <path id="path3577" class="st0" d="M304.2,241.7c1,1.8,3.2,2.5,5.1,1.6,1.9-1,2.6-3.2,1.6-5-1-1.8-3.2-2.5-5.1-1.6-1.8,1-2.6,3.2-1.6,5"/>
        <path id="path3581" class="st0" d="M288.8,241.4c1.1,2.1,3.8,3,6,1.9,2.2-1.1,3-3.8,1.9-5.9-1.1-2.1-3.8-3-6-1.8-2.2,1.1-3,3.8-1.9,5.9"/>
        <path id="path3585" class="st0" d="M241.2,53.2c1.2,2.1,4,2.9,6.1,1.7,2.2-1.2,3-4,1.7-6.1-1.2-2.2-4-2.9-6.2-1.7-2.2,1.2-2.9,4-1.7,6.1"/>
        <path id="path3589" class="st0" d="M248.3,42.4c1,1.8,3.3,2.4,5.1,1.4,1.8-1,2.5-3.3,1.4-5.1-1-1.8-3.3-2.4-5.1-1.4-1.8,1-2.5,3.3-1.4,5.1"/>
        <path id="path3593" class="st0" d="M254.7,31.9c1,1.8,3.3,2.4,5.1,1.4,1.8-1,2.5-3.3,1.4-5.1-1-1.8-3.3-2.4-5.1-1.4-1.8,1-2.5,3.3-1.4,5.1"/>
        <path id="path3597" class="st0" d="M256.1,182.3c-2.3.2-4.4-1.6-4.6-3.9-.2-2.3,1.6-4.3,3.9-4.5,2.3-.2,4.4,1.6,4.5,3.9.2,2.3-1.6,4.3-3.9,4.5"/>
        <path id="path3601" class="st0" d="M256.1,169.5c-2.4.2-4.6-1.6-4.8-4.1-.2-2.4,1.6-4.5,4.1-4.7,2.4-.2,4.6,1.6,4.8,4.1.2,2.4-1.7,4.5-4.1,4.7"/>
        <path id="path3605" class="st0" d="M253.9,156.8c-2.4.2-4.6-1.6-4.8-4-.2-2.4,1.6-4.5,4.1-4.7,2.4-.2,4.6,1.6,4.8,4,.2,2.4-1.6,4.5-4.1,4.7"/>
        <path id="path3609" class="st0" d="M249.1,143.7c-1.9.1-3.5-1.2-3.6-3.1-.2-1.8,1.3-3.5,3.1-3.6,1.9-.1,3.5,1.2,3.6,3.1.1,1.9-1.3,3.5-3.1,3.6"/>
        <path id="path3621" class="st0" d="M312.6,229.6c1.4,0,2.5-1.1,2.5-2.5,0-1.4-1.1-2.5-2.5-2.5-1.4,0-2.5,1.1-2.5,2.4,0,1.4,1.1,2.5,2.5,2.5"/>
      </g>
      <g id="g10789">
        <path id="path3625" class="st0" d="M374.3,158.1l-3.8-24.7c-.8-4.9-1.3-8.7-1.7-12.3h-.2c-.7,3.3-1.6,7-2.9,11l-8.5,26h-10.2l-8.1-24c-1.4-4.2-2.8-8.9-3.4-13h-.2c-.3,4.6-.9,8.7-1.5,13.2l-3,23.8h-10.4l8.2-51.7h12l8.9,26.6c1.3,3.7,2.2,7.2,2.9,10.9h.2c.8-4,1.7-6.9,3-10.7l9.2-26.7h11.9l8.3,51.7h-10.8Z"/>
        <path id="path3629" class="st0" d="M407.1,115l-3.5-5.6,13.9-8.4,4.2,6.7-14.6,7.3ZM410,126.4c-4.2,0-7.1,3-7.7,7.6h14.5c.2-4.8-2.5-7.6-6.8-7.6M426.5,140.6h-24.4c0,7.1,3.6,10.6,10.8,10.6s8.1-.8,11.5-2.4l1,7.6c-4.2,1.6-9.2,2.5-14.1,2.5-12.5,0-19.5-6-19.5-19.5s6.6-20.2,18.4-20.2,16.5,7.6,16.5,17,0,2.8-.3,4.4"/>
        <path id="path3633" class="st0" d="M450.8,158.9c-8.7,0-11.4-3.1-11.4-12v-19.3h-6.8v-7.6h6.7v-11.7l10.1-2.6v14.3h9.6v7.6h-9.6v16.7c0,4.9,1.2,6.3,4.7,6.3s3.5-.2,4.9-.6v7.9c-2.5.6-5.5,1-8.2,1"/>
        <path id="path3637" class="st0" d="M490.8,128.8c-7.3-1.5-10.9,3.1-10.9,13.7v15.6h-10.1v-38.1h9.6c0,1.9-.2,5-.7,7.7h.2c1.9-4.8,5.7-9.1,12.5-8.5l-.5,9.7Z"/>
        <path id="path3641" class="st0" d="M514.1,127.5c-4.5,0-8.9,3.4-8.9,11.2s2.9,11.8,8.8,11.8,8.8-3.9,8.8-11.6-2.7-11.3-8.6-11.3M513.1,158.9c-11.2,0-18.4-5.6-18.4-19.2s8.2-20.5,20.1-20.5,18.4,6,18.4,19.1-8.3,20.5-20.1,20.5"/>
        <path id="path3645" class="st0" d="M561.5,127.3c-5.3,0-8.5,6-8.5,12.5v10.6c1.6.5,3.2.7,5.3.7,5.7,0,9.9-3.5,9.9-13s-2.1-10.8-6.7-10.8M558.1,158.7c-1.9,0-3.4,0-5.1-.3v18.2h-10.1v-56.6h9.4c0,1.8,0,4.4-.4,6.4h.2c2.2-4.4,6.4-7.1,12.3-7.1,9.3,0,14.4,6.5,14.4,17.8s-7.1,21.6-20.7,21.6"/>
        <path id="path3649" class="st0" d="M605.3,127.5c-4.5,0-8.9,3.4-8.9,11.2s2.9,11.8,8.8,11.8,8.8-3.9,8.8-11.6-2.7-11.3-8.6-11.3M604.2,158.9c-11.1,0-18.3-5.6-18.3-19.2s8.1-20.5,20.1-20.5,18.4,6,18.4,19.1-8.3,20.5-20.1,20.5"/>
        <path id="path3651" class="st0" d="M634.1,158.1h10.1v-55.9h-10.1v55.9Z"/>
        <path id="path3655" class="st0" d="M672,126.4c-4.2,0-7.1,3-7.7,7.6h14.5c.2-4.7-2.5-7.6-6.8-7.6M688.6,140.7h-24.4c0,7.1,3.5,10.6,10.8,10.6s8.1-.8,11.5-2.4l1,7.6c-4.2,1.6-9.2,2.5-14.1,2.5-12.5,0-19.5-6-19.5-19.5s6.6-20.2,18.4-20.2,16.5,7.6,16.5,17,0,2.8-.3,4.4"/>
        <path id="path3659" class="st0" d="M439.6,191.6c-4.3-1.6-9.2-2.6-14.2-2.6-10.5,0-18.1,6.4-18.1,18s6.2,17.4,17,17.4,4.7-.3,6.8-.9v-18h10.3v24.7c-5.3,2.1-11.9,3.2-18.3,3.2-16.9,0-27-9.7-27-25.4s11.4-27.8,29.9-27.8,10.5.9,15.1,2.2l-1.6,9.3Z"/>
        <path id="path3663" class="st0" d="M474.8,203.3c-7.3-1.5-10.9,3.1-10.9,13.7v15.6h-10.1v-38.1h9.6c0,1.9-.2,5-.7,7.7h.2c1.9-4.8,5.7-9.1,12.5-8.5l-.5,9.7Z"/>
        <path id="path3667" class="st0" d="M502.7,215.8c-10.7,0-13,3-13,6s1.7,4.1,4.7,4.1c5,0,8.4-4.6,8.4-9.2v-.9ZM503.5,232.6c0-2.2,0-4.4.4-6.4h0c-1.9,4.2-6.7,7.2-12.6,7.2s-11.2-3.9-11.2-10c0-9.1,9.3-14,22.7-14v-2.1c0-4-2-6.1-7.7-6.1s-8.3,1.2-11.6,3l-.9-8.2c4-1.4,9-2.4,14.1-2.4,12.6,0,16.2,5,16.2,13.3v15.9c0,3.1,0,6.7.2,9.8h-9.6Z"/>
        <path id="path3671" class="st0" d="M547.6,232.6v-24.4c0-4-1.1-6.4-4.8-6.4s-9.2,5.7-9.2,12.3v18.4h-10.1v-38.1h9.6c0,1.8-.2,4.8-.6,6.7h0c2.4-4.4,7-7.6,13.4-7.6s11.7,5.5,11.7,12.2v26.7h-10.1Z"/>
        <path id="path3675" class="st0" d="M593.3,202.2c-1.8-.4-3.6-.6-5.3-.6-5.8,0-9.9,3.5-9.9,12.9s2.1,10.8,6.7,10.8,8.5-6,8.5-12.5v-10.7ZM593.9,232.6c0-1.8.2-4.3.5-6.4h-.1c-2.1,4.2-6.4,7.2-12.4,7.2-9.6,0-14.3-7-14.3-17.9s7.8-21.8,20.8-21.8,3.2,0,5,.3v-17.5h10v55.9h-9.4Z"/>
        <path id="path3679" class="st0" d="M648,188.7c-1.3,0-2.5,0-3.6,0v17.2c1,.2,2.1.2,3,.2,6.3,0,10.7-3.5,10.7-9s-3.1-8.5-10-8.5M647.8,214.5c-.9,0-2.2,0-3.5-.2v18.2h-10.3v-51.7c4.4-.2,9.1-.3,14.3-.3,13.1,0,20.3,5.9,20.3,16s-7.9,17.9-20.9,17.9"/>
        <path id="path3683" class="st0" d="M694.7,215.8c-10.7,0-13,3-13,6s1.7,4.1,4.7,4.1c5,0,8.4-4.6,8.4-9.2v-.9ZM695.4,232.6c0-2.2,0-4.4.4-6.4h0c-1.9,4.2-6.7,7.2-12.6,7.2s-11.2-3.9-11.2-10c0-9.1,9.3-14,22.7-14v-2.1c0-4-2-6.1-7.7-6.1s-8.3,1.2-11.6,3l-.9-8.2c4-1.4,9-2.4,14.1-2.4,12.7,0,16.2,5,16.2,13.3v15.9c0,3.1,0,6.7.2,9.8h-9.6Z"/>
        <path id="path3687" class="st0" d="M738.5,203.3c-7.3-1.5-10.9,3.1-10.9,13.7v15.6h-10.1v-38.1h9.6c0,1.9-.2,5-.7,7.7h.2c1.9-4.8,5.7-9.1,12.5-8.5l-.5,9.7Z"/>
        <path id="path3689" class="st0" d="M748,194.5h10.1v38.1h-10.1v-38.1ZM753.1,189.6c-3.5,0-6.2-2.7-6.2-6s2.8-5.9,6.2-5.9,6.3,2.6,6.3,5.9-2.8,6-6.3,6"/>
        <path id="path3693" class="st0" d="M777.4,233.4c-2.8,0-5.7-.3-8.2-.7l.2-8c2.5.6,5.5,1.1,8.5,1.1s6.4-1.5,6.4-4.1c0-6.7-15.9-2.9-15.9-15.9s5.6-12.2,16.7-12.2,4.8.3,7.2.7l-.3,7.7c-2.2-.6-4.8-1-7.3-1-4,0-5.9,1.5-5.9,3.9,0,6.2,16.1,3.4,16.1,15.8s-6.8,12.6-17.6,12.6"/>
        <path id="path3697" class="st0" d="M349.6,191.3c-1-.2-2-.3-3-.3-3.3,0-5.6,2-5.6,7.4s1.2,6.1,3.8,6.1,4.8-3.4,4.8-7.1v-6.1ZM350,208.6c0-1,0-2.4.3-3.6h0c-1.2,2.4-3.6,4.1-7.1,4.1-5.4,0-8.1-4-8.1-10.1s4.4-12.4,11.8-12.4,1.9,0,2.8.2v-9.9h5.7v31.8h-5.3Z"/>
        <path id="path3701" class="st0" d="M375,208.6c0-1,0-2.7.3-3.8h0c-1.4,2.5-3.9,4.3-7.6,4.3s-6.7-3.1-6.7-6.9v-15.2h5.7v13.8c0,2.3.6,3.6,2.8,3.6s5.2-3.2,5.2-7v-10.4h5.8v21.6h-5.4Z"/>
      </g>
    </g>
  </g>
</svg>