<?xml version="1.0" encoding="UTF-8"?>
<svg id="Calque_1" xmlns="http://www.w3.org/2000/svg" xmlns:xlink="http://www.w3.org/1999/xlink" version="1.1" viewBox="0 0 389.5 167.1">
  <!-- Generator: Adobe Illustrator 29.2.1, SVG Export Plug-In . SVG Version: 2.1.0 Build 116)  -->
  <defs>
    <style>
      .st0 {
        fill: #4d4d4d;
      }
    </style>
  </defs>
  <polygon class="st0" points="72.9 0 62.7 9 75.3 14.8 85.3 5.3 72.9 0"/>
  <polygon class="st0" points="145.6 135.6 145.6 167.1 178 167 178 135.6 145.6 135.6"/>
  <polygon class="st0" points="71.6 19.6 65.9 31.6 49.6 29.2 55.9 17.4 71.6 19.6"/>
  <polygon class="st0" points="65.8 57.2 72.5 70.7 53.9 78.5 47.8 64.4 65.8 57.2"/>
  <polygon class="st0" points="77.2 76.4 90.7 87.7 75.3 101.3 61.7 89.2 77.2 76.4"/>
  <polygon class="st0" points="98.3 91.9 117.2 98.6 108.5 116.7 88.9 109.4 98.3 91.9"/>
  <polygon class="st0" points="64.5 37.4 64.4 50.9 45.8 53.1 46.6 39.5 64.5 37.4"/>
  <polygon class="st0" points="19.1 18.1 38.9 23.6 50.2 9.4 31.1 4.4 19.1 18.1"/>
  <polygon class="st0" points="5.4 48.5 30.3 48.6 35.1 30.9 11.5 30.8 5.4 48.5"/>
  <polygon class="st0" points="3.7 64 6.3 84.4 34.1 76.7 30 57.2 3.7 64"/>
  <polygon class="st0" points="38.3 85.6 52.8 104.2 26.6 121.4 12.7 101.1 38.3 85.6"/>
  <polygon class="st0" points="61.7 111.7 86.1 125.3 67.7 151.5 42.5 136.2 61.7 111.7"/>
  <polygon class="st0" points="91.6 160.3 124 165.9 129 134.6 98.8 129.7 91.6 160.3"/>
  <g>
    <path class="st0" d="M111.9,29.4c8.3,0,12.9-5.9,12.9-11.5h-8.6c-.5,2.6-.5,4.6-4.6,4.6s-5.4-3.9-5.4-7.6,1.8-7.6,5.4-7.6,4.4,3.1,4.6,4.1h8.5c-.8-7-5.1-11-12.8-11s-14.3,6.3-14.3,14.5,6,14.5,14.3,14.5Z"/>
    <polygon class="st0" points="150.2 21.7 135.1 21.7 135.1 18.2 148.4 18.2 148.4 11.6 135.1 11.6 135.1 8.2 149.7 8.2 149.7 1.1 126.3 1.1 126.3 28.8 150.2 28.8 150.2 21.7"/>
    <path class="st0" d="M161.3,19.1h4.6c3.4,0,3.7,2.8,3.9,5.4,0,1.4.3,2.8.7,4.2h8.7c-.7-1.3-.8-4.5-.9-5.9-.3-3.5-1.7-6-4.1-6.9,2.9-1,4.2-1.7,4.2-6.9s-4.2-7.9-9.2-7.9h-16.6v27.6h8.7v-9.6ZM161.3,13.1v-5.5h4.1c3.3,0,4.3.3,4.3,2.8s-2.2,2.8-3.8,2.8h-4.6Z"/>
    <path class="st0" d="M193.1,29.4c3.1,0,6.1-1.1,8-3.5h0c0,.1.3,2.9.3,2.9h5.5v-15.2h-11.6v5.9h3.8c-.4,2.1.8,3.1-4.5,3.1s-6.4-5.2-6.4-7.1-.2-8.1,5.8-8.1,3.8,1.4,4.1,3.4h8.3c-1.2-6.5-6.7-10.3-13-10.3s-13.9,6.8-13.9,14.7,5.1,14.2,13.5,14.2Z"/>
    <polygon class="st0" points="214.7 28.8 223.4 28.8 223.4 18.6 233.6 1.1 224 1.1 219.1 11.3 214.4 1.1 204.8 1.1 214.7 18.6 214.7 28.8"/>
    <rect class="st0" x="229" y="15.2" width="11" height="6.4"/>
    <path class="st0" d="M114.1,32.4h-14.5v27.5h8.7v-8.3h5.1c6.5,0,11.1-3.1,11.1-9.8s-2.7-9.4-10.4-9.4ZM111.7,45.1h-3.4v-5.6h3.9c2.1,0,4.1-.1,4.1,2.7s-2.4,2.9-4.6,2.9Z"/>
    <polygon class="st0" points="99.5 32.4 99.6 32.4 99.6 32.3 99.5 32.4"/>
    <path class="st0" d="M139.9,60.8c8.6,0,14.3-6,14.3-14.5s-5.7-14.5-14.3-14.5-14.3,6-14.3,14.5,5.7,14.5,14.3,14.5ZM139.9,38.6c2.2,0,5.6,1.4,5.6,7.6s-3.4,7.6-5.6,7.6-5.6-1.5-5.6-7.6,3.4-7.6,5.6-7.6Z"/>
    <polygon class="st0" points="164.8 45 164.9 45 173.6 60.1 182 60.1 182 32.4 173.8 32.4 173.8 47.2 173.7 47.2 165.5 32.4 156.6 32.4 156.6 60.1 164.8 60.1 164.8 45"/>
    <polygon class="st0" points="184.3 39.5 192.2 39.5 192.2 60.1 200.9 60.1 200.9 39.5 208.8 39.5 208.8 32.4 184.3 32.4 184.3 39.5"/>
    <path class="st0" d="M222.8,60.8c8.6,0,14.3-6,14.3-14.5s-5.7-14.5-14.3-14.5-14.3,6-14.3,14.5,5.7,14.5,14.3,14.5ZM222.8,38.6c2.2,0,5.6,1.4,5.6,7.6s-3.4,7.6-5.6,7.6-5.6-1.5-5.6-7.6,3.4-7.6,5.6-7.6Z"/>
    <rect class="st0" x="239.4" y="40" width="7.8" height="20.1"/>
    <rect class="st0" x="239.4" y="32.4" width="7.8" height="5.4"/>
    <path class="st0" d="M262.2,54.6c-1.6,0-3.5-.3-4.1-2-.2-.5-.3-1.1-.3-1.8h-8.8c0,8.8,6.1,9.9,12.4,9.9s13.1-2.3,13.1-9.5-4-6.9-8-8c-4-1.1-8-1.5-8.2-3.5,0-1.6,2.2-1.9,3.1-1.9s1.9.2,2.6.7,1.2,1.1,1,2.2h8.3c-.3-6.7-6-9-11.8-9s-11.4,3.6-11.4,9.2,5.1,6.8,9.6,8c4.9,1.4,6.1,1.2,6.1,3.2s-2,2.5-3.6,2.5Z"/>
    <polygon class="st0" points="299.7 53 284.7 53 284.7 49.5 297.9 49.5 297.9 43 284.7 43 284.7 39.5 299.3 39.5 299.3 32.4 276.1 32.4 276.1 60.1 299.7 60.1 299.7 53"/>
    <path class="st0" d="M180,87.4c0-9.1.2-18.5-23.3-18.5s-24.7,2.2-25.3,15.5h17.4c.1-2,1.2-4.8,7-4.8s6.2,1.4,6.2,4.4-2.5,3.7-5.1,4.2c-9.5,1.7-27.7,1.1-27.7,16.1s7.8,14.3,17.3,14.3,11.8-1.3,15.8-5.7h.2c-.1,1.3.2,3.2.7,4.5h19.1c-2.1-3-2.3-7-2.3-10.6v-19.4ZM162.1,100.5c-.3,4.9-4.5,7.4-7.9,7.4s-5.9-1.2-5.9-4.4,2.1-4.2,6.3-5.1c2.6-.6,5.1-1.2,7.4-2.3h0v4.4Z"/>
    <path class="st0" d="M239.9,70.1h-18.7v5.7h-.2c-2.2-4.8,1.1-6.9-12.9-6.9s-21.3,9.9-21.3,22.6,6.5,23.1,21,23.1,10.2-2.4,13.2-6.6h.2v4.4c0,3.9-1.3,10.8-7.4,10.8s-4.4-1.9-5.5-3.5c-.3-.5-.8-1.1-1-1.6h-18.5c1.7,12.8,2.6,15.8,25.6,15.8s25.6-13.2,25.6-22.6h-.1s0-41.2,0-41.2ZM214.1,103c-6.7,0-8.4-6.2-8.4-11.6s2.5-9.4,8-9.4,8.1,4,8.1,9.3-.8,11.7-7.7,11.7Z"/>
    <path class="st0" d="M299.5,70.1h-18.7v5.7h-.2c-2.2-4.8,1.1-6.9-12.9-6.9s-21.3,9.9-21.3,22.6,6.5,23.1,21,23.1,10.2-2.4,13.2-6.6h.2v4.4c0,3.9-1.3,10.8-7.4,10.8s-4.4-1.9-5.5-3.5c-.3-.5-.8-1.1-1-1.6h-18.5c1.7,12.8,2.6,15.8,25.6,15.8s25.6-13.2,25.6-22.6h-.1s0-41.2,0-41.2ZM273.7,103c-6.7,0-8.4-6.2-8.4-11.6s2.5-9.4,8-9.4,8.1,4,8.1,9.3-.8,11.7-7.7,11.7Z"/>
    <rect class="st0" x="310.3" y="32.8" width="18" height="84.6"/>
    <path class="st0" d="M362.7,118.6c18.5,0,26.8-11.8,26.8-24.9s-8.3-24.8-26.8-24.8-26.8,11.7-26.8,24.8,8.3,24.9,26.8,24.9ZM362.7,82c7.1,0,8,6.7,8,11.7s-.9,11.8-8,11.8-8-6.8-8-11.8.9-11.7,8-11.7Z"/>
  </g>
</svg>