<?xml version="1.0" encoding="UTF-8"?>
<svg id="Layer_1" xmlns="http://www.w3.org/2000/svg" version="1.1" viewBox="0 0 106 28">
  <!-- Generator: Adobe Illustrator 29.2.1, SVG Export Plug-In . SVG Version: 2.1.0 Build 116)  -->
  <defs>
    <style>
      .st0 {
        fill: #262626;
      }
    </style>
  </defs>
  <path class="st0" d="M4.9.6H.4C.2.6,0,.7,0,.9v26.3c0,.2.2.3.3.3h4.6c.2,0,.3-.1.3-.3V.9c0-.2-.2-.3-.3-.3Z"/>
  <path class="st0" d="M30.5.6h-4.5c-.2,0-.3.1-.3.3v17.6L14.5.7c0-.1-.2-.2-.3-.2h-4.6c-.2,0-.3.1-.3.3v26.3c0,.2.1.3.3.3h4.6c.2,0,.3-.1.3-.3V9.7l11.1,17.7c0,.1.2.1.3.1h4.6c.2,0,.3-.1.3-.3V.9c0-.2-.1-.3-.3-.3"/>
  <path class="st0" d="M49.7,16.2c1.4-.7,2.5-1.6,3.4-2.7.9-1.2,1.3-2.8,1.3-4.6,0-2.7-.9-4.7-2.6-6.2-1.7-1.4-4.1-2.1-7.2-2.1h-9.2c-.2,0-.3.1-.3.3v26.3c0,.2.2.3.3.3h4.6c.2,0,.3-.1.3-.3v-9.8h4.6l5.2,9.9c0,.1.2.2.3.2h4.9c.2,0,.3-.1.3-.3v-.2c0,0,0-.1,0-.2l-5.7-10.6h0ZM48,12c-.8.7-1.9,1.1-3.4,1.1h-4.4V4.9h4.5c1.5,0,2.6.4,3.4,1.1.7.7,1.1,1.7,1.1,3s-.4,2.2-1.2,3"/>
  <path class="st0" d="M71.8,18.4h0c0,.1-7.7.1-7.7.1l.6-1.7,3.2-9.3,3.8,10.9ZM92.1,4.9c1.2,0,2.3.2,3.3.6-2.7,5-7,8.8-12.2,11-.2-.8-.3-1.6-.3-2.5,0-5.1,4.1-9.2,9.2-9.2h0ZM105.9,14.1c0-1.9-.4-3.7-1.1-5.4-.1-.2-.3,0-.3,0l-2.7,4.3c-.2.4-.4.7-.5,1.8,0,0,0,.1,0,.2-.4,4.6-4.4,8.3-9.1,8.3s-1.8-.1-2.6-.4c-1.5-.4-2.8-1.2-3.9-2.3,0,0,0,0-.1-.1,5.8-2.6,10.7-7.1,13.8-12.7.7-1.2,1.3-2.5,1.8-3.8,0-.1,0-.3,0-.4-1-.9-2.2-1.6-3.4-2.1-1.7-.8-3.6-1.1-5.5-1.1h0c-4.7,0-8.9,2.4-11.4,6-1.5,2.2-2.4,4.9-2.4,7.8s.2,2.6.6,3.8c-.6.1-1.3.2-1.9.3L70.4.8c0-.1-.2-.2-.3-.2h-4.1c-.1,0-.3,0-.3.2l-9.9,26.3c0,0,0,.2,0,.3,0,0,.2.1.3.1h4.8c.1,0,.3,0,.3-.2l1.6-4.6h10.7c0,.1,1.6,4.6,1.6,4.6,0,.1.2.2.3.2h4.8c.1,0,.2,0,.3-.1s0-.2,0-.3l-1.7-4.6c.7-.1,1.5-.3,2.2-.5,0,0,0,0,0,0,0,0,0,0,0,0,.9,1.3,2,2.3,3.3,3.2,2.3,1.6,5.1,2.5,7.9,2.5h0c7.6,0,13.8-6.2,13.8-13.8"/>
</svg>