<?xml version="1.0" encoding="UTF-8"?>
<svg id="svg833" xmlns="http://www.w3.org/2000/svg" xmlns:svg="http://www.w3.org/2000/svg" xmlns:rdf="http://www.w3.org/1999/02/22-rdf-syntax-ns#" xmlns:dc="http://purl.org/dc/elements/1.1/" xmlns:cc="http://creativecommons.org/ns#" version="1.1" viewBox="0 0 600 432.9">
  <!-- Generator: Adobe Illustrator 29.2.1, SVG Export Plug-In . SVG Version: 2.1.0 Build 116)  -->
  <defs>
    <style>
      .st0 {
        fill: #c5c5c5;
      }

      .st1 {
        fill: #4a4a4a;
      }

      .st2 {
        fill: #f2f2f2;
      }

      .st3 {
        fill: #555;
      }
    </style>
  </defs>
  <g id="g1198">
    <g id="g1121">
      <path id="path945" class="st0" d="M502,383.7c-1.2,0-2.2-1.1-2.5-1.8-3.5-2.8-6.2-5.6-8.5-9.7-4.9,0,.5-6.6-4.6-7.4-1.2-3.5-5.5-3.9-6.2-7.2-2.7-.7-3.1-4.2-5.5-4.9-1.9-4.6-7.6-4.5-7.9-10.2-4.2-3.8-6.9-9.1-11.1-13.3-.8-1-.9-2.6-2.3-3-.7-2.3-2.8-3.5-4.6-4.7-.3-3.2-4.3-4.2-5.2-7.1-4.6-3.7-7.7-8.7-11.8-12.8-.9-1.4-1.5-2.4-1.6-1.5-2.1-.8-4.2-7-5.9-8.9-5.5-5.5-7.7-13-14.3-17.7-4.2-.5-7.4,1.5-10.7,3.1-2.2,2.2.3,6.9-2.4,8.6,2.5,3.6,1.7,8.6,5.8,11.5,1,3,3.4,4,5.3,6.6l4.9,6.4c0,2.2,2.5,2.8,1.9,5.1,3.1-.6,1.4,3.4,3.9,3.6.9,3.1,3.8,4.7,4.4,7.9,2.9,1.2,3.3,4.5,5.5,6.2-.4,1.4,4.3,7.1,5.4,7.7.4,2.2,1.9,4,3.9,5.1,1.6,3.8,6.3,2.6,8.5,5.9,3.3,1.7,3.6,6.3,7.5,7,7.3,7.8,16,14.3,23.4,22.4,1.7,1.3,3.4,3.1,6,3.2,3,3.3,6.7,4.3,9.2,7.9,1.7-1.4,0-3.7.6-5.2,3.4-1.4,5.6,1.8,8.8,1.1,1.2-.9,0-2.3,0-3.5"/>
      <path id="path947" class="st0" d="M443.6,4.1c-.5,0-.2.6-.3.9h2c1.3,3.3-2.4,3.7-1.8,6.6-1.8.6.4,3.6-2.2,3.4-1,2.7-1,5.9-3.1,8,0,2.7-2.8,2.3-3.1,4.8-1.1,2.5,2.2,6.4-1.9,6.3-.5,2.9-3.2,5-3.7,7.9-1,2.2-3.3,3.1-3,5.8-3.5,1.2-1.7,5.3-4.7,6.6.7,1.9-2.3,2.2-1.5,4.1-2.7,3.1-5.3,6.2-5.4,10.5-2.2,1.5-4.1,4.3-4.4,7.2-3.3,1.6-2.9,5.7-5.7,8-.3,3.7-2.4,6.8-4.2,9.8-.3,1.7-3.5,2.3-2.9,4.2-2,4.2-3.3,8.8-6.5,11.8l-.2,2.5c-.4-.1-.5.3-.7.5.6,2-1.5,3.6-2.9,5-1.4,1.1-.9,3.3-2.6,4.3-2.1-1-4.7-3.9-7.2-1.4-.5.6-1.7.9-2.1.2,2.8-4.6-3.5-10.3,1.3-14.8,2.1-6.8,6.3-12.6,7.9-19.6,2.7-2.5,2.2-6.3,5-8.7,1.6-4.1,4.9-6.8,6.7-10.7,1.5-6.1,7.4-10.2,9.6-15.9,3.1-5.4,6.6-10.8,10.1-15.8-.5-1.4,1-2.2,1.8-2.5.4-3.6,3.9-5.8,6.2-7.9-1.3-2.9,2.6-2.8,2.8-5.3,1.6-1.1,4.9-2,4.4-5,3.1-2.1,5.2-5.3,6.3-8.7,1.5-1.6,3.2-2.8,3.9-5,1,.5.9-.8,1.3-1.2,1.1.9,1.9,2.6,1.2,4.1"/>
      <path id="path949" class="st0" d="M270.3,1.5c.5,2.3.7,4.7,2.4,6.7.8-2,2-4.2.1-6.1.5-1.2,1.3,0,2,0,2.8,1.1-.5,5.1,2.6,5.4,1.1,2.4,1,5.4,2.7,7.6.5,2.6.7,6.1,1.6,9.1,1.7,1.6.9,4.3,2.1,6.1.5,5.5,3.7,9.9,3.8,15.6,3.7,1.8,1.8,7.1,4.3,10-.8,1.7,1.2,1.9,1.4,3.1.4,1.7-1.1,4.7,1.7,4.8-1.5,4.5,3.2,6.6,2.5,10.7.3,2.5,4,3.6,3.2,6.3.2,1.1.3,2.4,1.4,3.3.5,3.4.8,6.7,2.9,9.4,0,1-.5,1.6-.4,2.5,3.3,1-.3,5.5,2.9,6.1,1.4.9.5,2.5.7,3.8,3.2-1.2,1.2,3.1,3.5,3.5-.9,3.3,3.1,3.3,2.6,6.4h.5c.4,1.9,1.1,4,2.2,5.1,0,.6,0,1.6.9,1.8,0,2.2,1.2,6-1.1,7,.2,2.7-3.4,2.1-3.7,4.2-1.7,1.3-3.7.6-5.8,1.5-1.1-4.2-6.6-3.1-6.9-7.7-1.1-1.5-3.5-2.3-3.2-4.4-3.5-2.6-2.2-7.1-4.9-10-1.5-3.3-2.9-6.6-3.6-10.1-2.6-1.2-2.2-4.5-2.2-7.1-2.9-.5-.5-4-1.9-5.6-1.9-4.4-4.2-8.8-4.8-13.6-.3-2.3-1.4-4.4-.9-6.9-3.3-1.1-1.1-5.3-3.7-7.1l-1.1-7.6c-.9-2.4,0-5.4-1.3-7.9,1.3-1.9-1.4-3.7-.4-5.8l-1.2-1.1c.8-5-1.3-8.6.2-13.3-1.8-1.3.3-3.2-.6-4.7-2.8-1.8.9-5.3-2.4-6.7,1.2-2.1-1.3-4.3.1-5.8.3-2.8-.3-5.8.7-8.6h.7Z"/>
      <path id="path951" class="st0" d="M598.5,95.1c-2.5,0-2.8,2.6-4.4,3.9l.2,1.8c-3.6-.5-5.7,2.6-9.4,2-1.6,2.1-5.3,0-6.4,2.9.6.3,1.5-.2,2.1.6-1,2.1-4.3.8-4.7,3.2-3.8,1.8-8,.3-11.8,2.1-2.6-.8-3.7,2-6.1,1.7-2.5,3.3-6.2-.6-8.4,3.1-7.8-.8-14.3,3.2-21,5.9-2.4.9-6.1-1.5-7.4,2.1-3.4.7-6.2,2.6-9.6,3.2-1,1.3-2.8.2-4.1.9-7.4,2.5-14.2,6.6-21.8,8.8-2.4,3.3-6.8,2.6-9.5,5.8-2,3.6-7.5.7-8.2,5.6-1.4,1.4-2.2,3.3-4.6,3.5-3.7,1.8-4.9,9-10.2,6.7-.9,1.5-2.7,1.1-3.8,1.2-2.4-2.3-1.2-5.9-4.2-8,.3-3.7,5.8-5.5,4.8-9.5,2.1-2.1,4-4.6,5.2-7.2.5-1.5,2.9,0,2.8-2,4.7-5,11.3-7.1,16.1-11.5,5-1.5,9.5-3.9,14.5-5.3,6.3-3.7,13.5-4.6,20.1-7.5,3.8-2.6,9.6-.6,13.1-4,3.2-.2,5.8-1.7,9.2-1.4,1.6-1.4,4.4,0,5.8-2.1,3.2-1.1,6.9-.7,9.9-2.1l-.3-.2c4.4-2.1,10.5-.5,15-3.1,5,0,9.5-2.3,14.4-2,2.2-1,4.7-1.3,7.3-1.4,4.8-.6,9.5-1.4,14.4-1.8.8,0,1.8-1.4,2.5-.2-.6,1.4-2.1,2.4-1.5,4.3"/>
      <path id="path955" class="st0" d="M466.2,211.1c1.8,1.3,4.5-.4,4.8,2.6,3.4-1.4,3.9,3.6,7.5,2.7-.1,2.3,1.8.8,3,1.6,1.3.7,2.5,1.9,4.2,1.6,1.5,4.5,6.4,1.2,8.5,5.2,2.9.1,4.6,3.3,7.7,2.9,0,.5.2,1.1-.2,1.3,1.7,1.3,3.6-.4,4.8,1.9,2.6,1.1,6.1.2,7.9,3.2,1.3,0,1.9,1.1,2.3,2,3.7-1.7,6.9,1.1,9.5,2.7,3.6-.1,4.8,5.5,9.1,3.4,0,2.5,2.8,1.5,3.9,2.9,2.7-1.7,3.3,2.5,5.5,2.6,2.7.4,4.9,2.3,7.7,2.3.9.4.3,1.4.5,2.1,1.6-.2,3-2.3,4.5,0,1.6.4,3.7.8,5.6,1,1.8,1.8,4.8,1.6,6.5,4.2,1.5,2.7,5.6-.2,6,3.6,3.9.8,4.9,3.7,8.7,4.5.2.3.7.5.5,1.1-1,1.1-2.8-.4-3.6,1.2.2,2.2,2.1,2.3,2.8,4.2,2.5-1.5,3.2,1.7,5.2,2.4-.4.2-.2.8-.2,1.3l.7.5,1-1.2c1.5-.2,1.4,2.6,3,1.3l2.5,2.3-.5.5c-5.1-2.5-11.1-3.3-16.3-6.1-2.1-1.5-3.5,1.8-5.5,0-2.1,2.2-4.8.1-6.9-.3-.7-1.5-2.3-1.3-3.6-.9-2.5-2.2-5.4-1.4-8-3.4-2.8-2.2-6.9-1-9.7-3.2-4.6,1.2-7.3-3.6-12-3-1.4-.9-2.4-2.5-4.1-2.6l-.5,1c-1.1-.2-1.4-1.5-2.2-2.4-4.1.3-6-4-10.4-3.2-2.6-1.6-6.4-.8-8.5-3.6-1.7,1.7-3.3.3-5.1.3-3.5-3-7.8-4.6-12.3-5.3-3.4-2.3-7.7-2.8-11-5.5-7.2-4.7-16.4-4.5-22.8-11-3.9-2.1-7.4-5.1-10.1-9,.7-2.7-4.3-2.5-1.7-5.3,2.5-3.3,4-8.5,8.8-9.4,4.4.8,9.1.9,12.2,4.9"/>
    </g>
    <path id="path943" class="st1" d="M432.9,340.8v16.8c1.1,3,.6,6.8,1,9.7.2,1.3-1.4.7-2,1.2h-6.5c0-.6-.7-1-1-1.4-12.6.8-26.3-.4-39.3-.3-.1,1.6-1.7,1.2-2.9,1.2-6.8-.4-13.3-.8-20.2,0l-.7-1.1c-2.7.5-6.9-1.4-9.1,1.4-3.3-.4-7.8-.7-10.1.8l-61.6-.8c-1.9,0-4.6.9-6.3-1.2-1.6,1.3-2.7-1.4-4.5-1.3-8.4-3.3-14.3,3.3-22.2,2.7-1.9-2-3.9-.7-5.8-.1l-1.3.7c-8.1-2-15.6,1.2-23.7-.4-2.7,4-7.5.6-10.8.9.9-5.6-2.7-12.5,1.6-17.2-.7-3.8.4-7.2.2-11.5l1.3-2.3c-.1-16.7.4-32.9.5-48.9-1.5-2,1.2-4.7-1.2-6.4-.5-3.5.5-7.8-1.5-10.8.1-1.6-.1-2.9-1-4.1-1-28.1-.3-55.8.2-84l.7-1.1c0-14.6.1-30.2-1-44.4,5.9.6,11-.5,16.7,1l.7,1.1,17.9-.4c2.3.8,3.1,3.4,6.1,2.6l.7,1c3.9,1.3,7.9-.2,11.6,1.5,5.1-.5,10.2.8,14.9-1,1.6.1,3.3,0,3.8-1.4,4.5.7,7.6-1.6,12.1-1.4l1.6-1.2,31,.9.7-.7,16.4.7c2.1-3.8,8.2-.9,11.7-2l2.2-1c11,.3,21.5,1.7,31.5,4.3,1-.2,2.6.7,3.3-.7,8.5.4,16.7-.9,24.5-1.4,4.1.4,7.8.8,11.7,0,0,1,.7,1.8,1.6,1.8,1.1-.5,3.4-.5,3,1.3-.3,5.6-.8,10.1-.8,15.9,1.2,1.5,2,3.7,3.5,4.4.2,1.9.4,4.5-.1,6.3.4.7.7,1.9.2,2.7-.4.9-1.1,2.2-1.3,3.5-.2,4.1,1,8.5-1,12.1-.6,3.7.8,6.5.6,10.1-1.4,1.5-.4,4-1,5.8-1.8,12.6-.9,25.7-.7,38.9.2.7-.8,1.7-1.6,2.5v23.5c.8.8-.2,2.4,1.3,3.1-.6,3.9.8,6.4.6,9.8,1.5,1.6,0,4.7,2.2,6.1.8,3.7-1.8,7.7-.9,11.3l2.5,40.9Z"/>
    <path id="path953" class="st0" d="M371.2,155.9c3.3-1.2,6.1,1.6,9.2.2,4.8,3.1,10.3,4.6,15.2,7.6,2.7,1.4,4.8,3.3,7,5.4,4.4,3.6,9.3,7.6,10.6,13.1,2.6,1.6.9,4.8,3.7,6.4-.3,1.4.6,2.8.2,4.5.6.4,1.6.1,2,1.1-2.2,3.5,1.7,6.2.9,9.6-1.9,1.8.4,4.4-1.7,6-.4,2.4-.3,4.9-1.9,6.8,0,4.7.5,9-2.7,12.4,1,3.4-2.6,3.9-3.4,6.2-3.1,1.4-1.9,5.6-5.4,6.7l-.3,1.3c-5.5,5.9-11.7,10.8-18.6,14h-5.8c-1.8-3.7-5.8-3.8-6.9-7.8-.9-5.5-2.6-11.5.3-16.6.3-5.7.7-10.2,1-16.2,1.8-1.8,2.4-3.4,2.1-6.3.4-.4,1.1-.7.8-1.5-2.9-.9-.4-3.8-2.6-5.3.8-1.6-1.2-2.3-1.9-3.1-.3-2.2-.5-4.3-2.4-5.8-3.8-1.3-6.3-5.2-9.8-7.3-3.4-2.7-7.8-3.1-11.8-4.7-2.6-.7-5.4-1.9-8.5-1.1l-8.3-2.3c-1.6.6-3.7,0-5-1.3-5.2,1.3-10.4-.2-14.9-1.9-1.1-4.1,2.8-7.4,5.7-9.8,3-3.3,8-5.1,11-8.4,2.9-.5,4.9-2.1,7.8-.3,3.2-1.8,6.6-1.5,9.9-2.2,5.5.4,10.1-1.5,15.1,0,3.1-1.6,6.8,0,9.6.6"/>
    <g id="g1134">
      <path id="path963" class="st2" d="M293.6,283.7s24.3-23.4,32.1-37.3c0,0,3.2-5.1.2-9.1-2.1-3.7-4.5-6.8-1.5-9.9,2.9-1.4,6.9-4.6,7.8-5.5,0,0,3.8-3.2,4.3-3.3.5-.1,4.4-2.2,5.2-3.9,0,0,1.1-1.4,3.8-3.6,0,0,3.2-1.6,4.8-2.7,0,0,.4-.9.5-1.9-1.6.1-3.1,1-10.7,1.8-1.6-1.2-2.2-1.2-3.1-1.1,0,0-3.8-1.2-8.9,5.1-1,1-2,2.2-2,2.2,0,0-27.5,6.9-39.1,16.3-5-.4-12.3-1.1-17.7-.2,0,0,1,3.7-1.3,4-2.2.4-2.4.4-2.4.4,0,0,0,2.8.5,3.2,0,0,6.2-.3,12.8,4,0,0,6.6,3.4,10,3.9,3.4.5,4.6-.3,5.4,4.4.2,1.6.8,2.8,1.9,3.5-.4.6-3,3.9-2.2,4.8.2,1.2,1.9,2.8-1.5,7.5,0,0-1.4,2.3-.2,5.6,0,4.6.3,3.2-.2,11.3.5,1,.8.8.8.8h.7Z"/>
      <path id="path957" class="st2" d="M250,317.5s6.4.2,11.2,2c4.7,1.7,11.2,3.4,16.9,4.2,0,0,6,.7,7.1,5.9,0,1.2-.3.8-.2,1.7.1.9.2,1.7-.5,3.6-.7,1.9-.7,4.4.3,5.4,0,0,.5,2.3,0,2.8-.4.5-1,4.2-.4,5.4.6,1.2,1.5,2.7,2,13.7l1.9.8s20.7-29.3,21.2-30c.4-.8,17.5-20.5,2.6-30.1,0,0-1-2.2,1.6-5.2,2.6-2.1,4.6-4.4,7.1-7.5,3.9-2.3,6-2.6,8.9-8.3l6.1-4.9s.6-.2,1.4-1.3c.3-.9-.2-1.5-.2-1.5,0,0-7.1,2.4-11.5,3.4-.9-.7-8.5-5.3-13.7,7.2-3.9,1.7-27.4,11.7-37.7,22.2-.8.4-10.7,1.5-10.7,1.5,0,0-8.2-.4-8.7,1.4,0,0,.9,2.4-2.8,4.1h-1.6c0,.1-.7,1.8-.7,1.8l.2,1.9Z"/>
      <path id="path987" class="st2" d="M283.6,194.3c-2.2,1.7-5.7,4-7.9,6.1-2.2,2.1-2.2,3-6.2,4.4.5,1.8-12.2,4.9-8.8,11,2.2,2.1,2.4,4.8,2.8,7.4-.8,4.9-4.2,8.7-7.8,12.5-6.4,7.5-13.2,15.2-19.5,22.6l-.7-.7-.4-8.8c-.5-.2-1.4,0-1.8-.8.9-3.9,3.9-7.5,2.7-11.6,1.3-2,.9-4.9-.4-6.7-3.5-3.5-9.2-3.3-13.5-5.8-3.4-2.2-7.2-3.3-11.1-4.3-.3-.3-.2-1-.2-1.5,1.6-1.2,5.6-.2,4.8-3.7v-.2h14.2c9.6-6.1,19.4-11.4,30.7-13.1,4.6-.8,4.9-7.6,10.2-6.8,1.3.3,1.5,0,3.7,1.4,3.4-.5,6.6-1.6,9.3-2.1l-.3.8Z"/>
    </g>
  </g>
  <g id="g1102">
    <path id="path969" class="st1" d="M229.4,393.4c-1.6-.9-6.2-3-11.1-3s-6.7,2.3-6.7,5.6c0,9.4,21,9.1,21,23.1s-7.2,13.1-16.2,13.1-10-1.2-11.3-1.7v-6.9c2,1.2,7.2,3.9,12.4,3.9s8-1.9,8-6.5c0-10.2-21-9.6-21-23.5s5.4-11.4,14.6-11.4,8.5.9,10.3,1.2v6.1Z"/>
    <path id="path971" class="st1" d="M254.3,431.4h6.5v-19.9c0-6-.8-11.6-10.8-11.6s-11.5,4.8-11.8,9.4h6.8c.2-3.6,1-6.7,5-6.7s4.3,5.6,4.3,8.9v2.7c-4.1.2-17.2.6-17.2,10.1s3.5,7.7,8.4,7.7,7.7-3.2,8.7-5h.1v4.3ZM254.3,420.6c0,5.3-4.1,7.5-6.4,7.5s-3.8-1.8-3.8-4.6c0-5.7,7.4-6.3,10.1-6.5v3.6Z"/>
    <path id="path973" class="st1" d="M270.3,400.6h6.5v7.8h.1c2.1-4.1,4.3-8.1,10-8.5v6.8c-6.3.2-10.1,2.3-10.1,10.6v14.1h-6.5v-30.8Z"/>
    <path id="path975" class="st1" d="M313.2,430.6c-2.6,1-5.4,1.5-8.2,1.5-9.8,0-15.4-5.9-15.4-17.3s4.2-14.9,13.1-14.9,11,4.4,11,10.7h-6.8c0-3.7-.4-8-4.5-8s-5.7,4.4-5.7,10,3.2,16.1,11.1,16.1,3.7-.5,5.5-1.2v3Z"/>
    <path id="path977" class="st1" d="M341.5,427.4c-1.9.9-3.9,1.3-5.8,1.3-9.3,0-12-10.1-12-16.2h18.4c0-6-1.9-12.6-11.8-12.6s-13.1,6.2-13.1,14.7c0,12.4,6.8,17.5,15.4,17.5s6.3-.6,9-1.7v-3ZM323.8,409.6c.1-1.8,1.1-7,6.1-7s5.7,4.6,5.7,7h-11.8Z"/>
    <path id="path979" class="st1" d="M349.6,431.4h6.5v-44.6h-6.5v44.6Z"/>
    <path id="path981" class="st1" d="M366.4,431.4h6.5v-44.6h-6.5v44.6Z"/>
    <path id="path983" class="st1" d="M405,427.4c-1.9.9-3.9,1.3-5.8,1.3-9.3,0-12-10.1-12-16.2h18.4c0-6-1.9-12.6-11.8-12.6s-13.1,6.2-13.1,14.7c0,12.4,6.8,17.5,15.4,17.5s6.3-.6,9-1.7v-3ZM387.4,409.6c.1-1.8,1.1-7,6.1-7s5.7,4.6,5.7,7h-11.8Z"/>
    <path id="path985" class="st1" d="M429.5,406.7c-2.2-1.5-4.6-3-7.7-3s-4.4.9-4.4,3.2c0,5.6,14.1,6.1,14.1,15.9s-5.2,9.3-11.7,9.3-6.7-.8-8.2-1.3v-6c1.9,1.3,4.9,3.2,8.6,3.2s5.3-1.9,5.3-3.9c0-5.4-13.9-6.5-13.9-15.3s3.1-8.8,10.8-8.8,6.1.9,7.2,1.2v5.6Z"/>
    <path id="path989" class="st3" d="M0,389.3h7.1l11.2,34.6h.1l11.1-34.6h6l-14.3,42.9h-7.1L0,389.3Z"/>
    <path id="path991" class="st3" d="M38.2,389.3h6.8v6.2h-6.8v-6.2ZM38.4,402.6h6.3v29.6h-6.3v-29.6Z"/>
    <path id="path993" class="st3" d="M53.6,432.2h6.3v-42.9h-6.3v42.9Z"/>
    <path id="path995" class="st3" d="M68.7,432.2h6.3v-42.9h-6.3v42.9Z"/>
    <path id="path997" class="st3" d="M99.2,411.2c0-2.3-.8-6.7-5.5-6.7s-5.8,5-5.9,6.7h11.4ZM104.8,431.2c-2.6,1-4.9,1.7-8.6,1.7-8.2,0-14.8-4.9-14.8-16.8s3.3-14.2,12.6-14.2,11.4,6.4,11.4,12.1h-17.7c0,5.8,2.6,15.5,11.5,15.5s3.8-.4,5.7-1.2v2.9Z"/>
    <path id="path999" class="st3" d="M139.9,428.9c5.2,0,5.9-6.6,5.9-11.5s-.5-11.9-5.9-11.9-6,6.7-6,11.9.9,11.5,6,11.5M146,427.4h-.1c-.9,2-2.9,5.5-7.7,5.5-8.5,0-11.1-7-11.1-15.5s3.3-15.5,11.1-15.5,6.8,3.2,7.7,4.8h.1v-17.4h6.3v42.9h-6.3v-4.8Z"/>
    <path id="path1001" class="st3" d="M176.1,411.2c0-2.3-.8-6.7-5.5-6.7s-5.8,5-5.9,6.7h11.4ZM181.7,431.2c-2.6,1-4.9,1.7-8.6,1.7-8.2,0-14.8-4.9-14.8-16.8s3.3-14.2,12.6-14.2,11.4,6.4,11.4,12.1h-17.7c0,5.8,2.6,15.5,11.5,15.5s3.8-.4,5.7-1.2v2.9Z"/>
  </g>
</svg>