<?xml version="1.0" encoding="UTF-8"?>
<svg id="layer" xmlns="http://www.w3.org/2000/svg" xmlns:xlink="http://www.w3.org/1999/xlink" version="1.1" viewBox="0 0 621.7 106.9">
  <!-- Generator: Adobe Illustrator 29.2.1, SVG Export Plug-In . SVG Version: 2.1.0 Build 116)  -->
  <defs>
    <style>
      .st0 {
        fill: #383838;
      }
    </style>
  </defs>
  <path class="st0" d="M605.8,6.8c-2.4,0-5.3,1.7-7,4l-53.2,73.6c-.9,1.2-1.9,3.4-1.9,5.6,0,4.4,3.3,7.3,8.1,7.3s4.9-1.2,6.6-3.5l53.7-74.6c1.1-1.5,1.7-3.1,1.7-4.6,0-4.6-3.3-7.8-8-7.8Z"/>
  <path class="st0" d="M551.9,6.8c-4.8,0-8.1,3.2-8.1,7.7s.6,3.2,1.7,4.6l53.7,74.6c1.7,2.4,3.9,3.5,6.6,3.5,4.8,0,8.1-2.9,8.1-7.3s-1-4.3-1.9-5.6l-53.1-73.5c-1.7-2.3-4.6-4-7-4Z"/>
  <path class="st0" d="M86.2,27.8l.7,62c0,4.7,3.1,7.5,8.1,7.5h0c2.5,0,4.5-.7,5.9-2.2,1.3-1.3,1.9-3.2,1.9-5.4s-2.2-71.6-2.2-72.4c-.3-5.9-6.9-10.6-12.4-10.6s-9.9,3.1-12.7,9.6l-17.1,44.1-17.2-44c-1.1-2.9-4.5-9.6-12.7-9.6s-12.1,4.6-12.4,10.6c0,.7-2.2,71.7-2.2,72.4-.1,2.1.6,4,1.9,5.4,1.4,1.4,3.4,2.2,5.9,2.2h0c5.1,0,8.1-2.8,8.1-7.5l.7-62,20.9,50c1.4,3.5,4,5.6,7,5.6s5.3-1.8,7-5.6l20.8-50.1ZM245.8,7.6c-5.3,0-8.5,3-8.5,8v72.8c0,4.8,3.5,8.1,8.6,8.1h26.8c9.2,0,16.7-2.6,21.7-7.6s6.7-10.7,6.7-18.1c-.1-11-9.5-20.8-22-21.7v-.2c8.8-1.9,14.3-12.3,14.3-20.3,0-12.2-9.5-21.1-22.6-21.1h-25ZM270.3,82.9h-17.1v-25.1h15.5c9.7,0,15.5,4.5,15.5,12,.1,8-5.4,13.1-13.9,13.1h0ZM265.2,44.2h-12v-23h12c7.4,0,12.3,4.4,12.3,11s-4.8,12-12.3,12h0ZM427.8,7.6c-4.6,0-7,3.7-7,7.2s1.9,7.2,7,7.2h15.9v67c0,5.2,3,8.3,8,8.3s8-3.1,8-8.3V22h15.9c5.2,0,7.1-3.7,7.1-7.2s-2.5-7.2-7.1-7.2h-47.8ZM510.2,6.8c-5,0-8,3.1-8,8.3v73.8c0,5.2,3,8.3,8,8.3s8-3.1,8-8.3V15.1c0-5.1-3.1-8.3-8-8.3ZM168.7,6.7c-25.2,0-45.8,20.5-45.8,45.8s20.5,45.8,45.8,45.8,45.8-20.5,45.8-45.8S193.9,6.7,168.7,6.7ZM168.7,82.5c-16.6,0-30.1-13.5-30.1-30.1s13.5-30.1,30.1-30.1,30.1,13.5,30.1,30.1-13.5,30.1-30.1,30.1h0ZM365.5,6.7c-25.2,0-45.8,20.5-45.8,45.8s20.5,45.8,45.8,45.8,45.8-20.5,45.8-45.8-20.6-45.8-45.8-45.8ZM365.5,82.5c-16.6,0-30.1-13.5-30.1-30.1s13.5-30.1,30.1-30.1,30.1,13.5,30.1,30.1-13.5,30.1-30.1,30.1h0Z"/>
</svg>