<?xml version="1.0" encoding="utf-8"?>
<!-- Generator: Adobe Illustrator 29.2.1, SVG Export Plug-In . SVG Version: 9.03 Build 55982)  -->
<svg version="1.1" id="Layer_2" xmlns="http://www.w3.org/2000/svg" xmlns:xlink="http://www.w3.org/1999/xlink" x="0px" y="0px"
	 viewBox="0 0 253 200" style="enable-background:new 0 0 253 200;" xml:space="preserve">
<style type="text/css">
	.st0{fill:#4F4F4F;}
	.st1{fill:#9E9E9E;}
	.st2{fill:#1E1E1E;}
	.st3{fill:#FFFFFF;}
</style>
<g>
	<circle class="st0" cx="126.5" cy="100" r="98.97"/>
	<circle class="st1" cx="126.17" cy="100" r="48.76"/>
	<polygon class="st0" points="0,100 30.28,76.78 30.28,123.22 	"/>
	<polyline class="st0" points="222.72,76.78 253,100 222.72,123.22 	"/>
	<path class="st2" d="M30.28,76.78l28.68,4.87c0,0,18.78-54.51,64.12-55.42c45.35-0.92,67.18,39.26,67.18,39.26h-19.64l33.99,27.62
		l35.38-27.57l-20.82-0.06c0,0-23.29-65.99-92.68-64.44C44.31,2.87,30.28,76.78,30.28,76.78L30.28,76.78"/>
	<path class="st2" d="M222.72,124.23l-28.68-4.87c0,0-18.78,54.51-64.12,55.42s-67.18-39.26-67.18-39.26h19.64L48.38,107.9
		l-35.38,27.57l20.82,0.06c0,0,23.29,65.99,92.68,64.44C208.69,198.13,222.72,124.23,222.72,124.23L222.72,124.23"/>
	<g>
		<g>
			<path class="st3" d="M60,100.32v6.77h-5.09V89.18h8.87c4.22,0,6.26,2.26,6.26,4.96c0,2.47-1.45,3.74-2.69,4.25
				c1.13,0.39,2.33,1.59,2.33,4.62v0.75c0,1.11,0.04,2.56,0.23,3.33h-5c-0.3-0.77-0.38-2.07-0.38-3.91v-0.46
				c0-1.55-0.37-2.39-2.68-2.39H60z M60,96.66h2.43c1.75,0,2.38-0.73,2.38-1.93c0-1.2-0.76-1.9-2.36-1.9H60V96.66z"/>
			<path class="st3" d="M86.08,99.84h-8.16v3.36h9.1l-0.58,3.89H72.87V89.18h13.55v3.89h-8.5v2.88h8.16V99.84z"/>
			<path class="st3" d="M105.67,101.19c-0.66,3.74-3.4,6.22-8.32,6.22c-5.86,0-8.7-3.96-8.7-9.16c0-5.07,2.8-9.42,8.95-9.42
				c5.26,0,7.66,3.06,8.01,6.16h-5.21c-0.24-1.29-0.99-2.47-2.92-2.47c-2.55,0-3.42,2.42-3.42,5.55c0,2.84,0.72,5.64,3.48,5.64
				c2.09,0,2.67-1.52,2.89-2.53H105.67z"/>
			<path class="st3" d="M108.36,107.09V89.18h6.28c1.88,4.03,4.61,9.48,5.36,11.69h0.09c-0.2-1.86-0.24-5.02-0.24-7.88v-3.81h4.78
				v17.91h-5.98c-1.52-3.24-4.76-9.96-5.6-12.32h-0.07c0.17,1.68,0.18,5.15,0.18,8.3v4.02H108.36z"/>
			<path class="st3" d="M145.64,98.12c0,5.06-3.05,9.3-9.18,9.3c-6.02,0-8.93-4.21-8.93-9.28c0-5.15,3.19-9.3,9.2-9.3
				C142.37,88.84,145.64,92.76,145.64,98.12z M132.94,98.06c0,3.29,1.09,5.58,3.69,5.58c2.73,0,3.63-2.43,3.63-5.48
				c0-3.27-0.95-5.53-3.7-5.53C134.01,92.63,132.94,94.73,132.94,98.06z"/>
			<path class="st3" d="M153.63,100.32v6.77h-5.09V89.18h8.87c4.22,0,6.26,2.26,6.26,4.96c0,2.47-1.45,3.74-2.69,4.25
				c1.13,0.39,2.33,1.59,2.33,4.62v0.75c0,1.11,0.04,2.56,0.23,3.33h-5c-0.3-0.77-0.38-2.07-0.38-3.91v-0.46
				c0-1.55-0.37-2.39-2.68-2.39H153.63z M153.63,96.66h2.43c1.75,0,2.38-0.73,2.38-1.93c0-1.2-0.76-1.9-2.36-1.9h-2.45V96.66z"/>
			<path class="st3" d="M179.7,99.84h-8.16v3.36h9.1l-0.59,3.89H166.5V89.18h13.55v3.89h-8.5v2.88h8.16V99.84z"/>
			<path class="st3" d="M199.3,101.19c-0.66,3.74-3.4,6.22-8.32,6.22c-5.87,0-8.7-3.96-8.7-9.16c0-5.07,2.8-9.42,8.95-9.42
				c5.26,0,7.66,3.06,8.01,6.16h-5.21c-0.24-1.29-0.99-2.47-2.92-2.47c-2.55,0-3.42,2.42-3.42,5.55c0,2.84,0.72,5.64,3.48,5.64
				c2.09,0,2.67-1.52,2.89-2.53H199.3z"/>
		</g>
	</g>
</g>
</svg>
