<?xml version="1.0" encoding="UTF-8"?>
<svg id="Layer_1" xmlns="http://www.w3.org/2000/svg" version="1.1" viewBox="0 0 141.8 141.8">
  <!-- Generator: Adobe Illustrator 29.2.1, SVG Export Plug-In . SVG Version: 2.1.0 Build 116)  -->
  <path d="M141.8,0v141.8H0V0h141.8ZM64.6,23.6c-1,1-.8,3.6,1.1,4,2.4.4,3.6-.7,3.2-3.2-.3-1.5-3.7-1.4-4.3-.8ZM26.9,25.1v20.3c1.4.4,2.9.4,4.3,0v-8.4c5.3-1.1,5,5.6,7.3,8.6h3.8c.2,0,.3-.4.4-.6,0-.5-2-5.4-2.4-6.2-.7-1.3-1.3-2.4-2.6-3.2,4.9-1.5,5.4-8.7.6-10.7-2.1-.9-7.8-.9-10.1-.7-.6,0-1.2.2-1.3.8h0ZM52,29.4c-6,.5-7.8,5.1-7.1,10.6.6,5.1,4.9,6.4,9.4,5.9,3.2-.4,5.8-3.2,6.1-6.4.7-6.1-1.7-10.7-8.4-10.1h0ZM82.8,33.4v-2.9c-4-2.6-11.7-.7-10,5.1,1,3.4,6,3.4,6.8,5,.7,1.4-.9,2.3-2.2,2.4-1.7,0-3.1-1.1-4.7-1.5-1.6,4.4,3.3,4.7,6.3,4.3,4.9-.6,6.6-6.6,2.1-9-1.3-.7-6.2-1.6-4.3-3.9,1.2-1.4,4.4.2,5.9.5h0ZM86.9,44.8c1,1,4.9,1.2,6.3,1,3.6-.4,5.8-3.8,4.1-7.2-1.3-2.5-5.8-2.7-6.5-4.1-1-2.1,1.6-2.4,3.1-2.1.8.1,2.3,1.2,2.8.8.6-2.2.5-3-1.7-3.6-3.4-.9-8.4.2-8.4,4.6s.9,3,2.3,3.9c1.1.7,7.5,2.5,3.9,4.5-1.9,1.1-4.1-.3-5.8-1.1-.6.1-.5,2.9,0,3.3h0ZM68.6,45.4v-15.2c-.9-.7-2.5-.3-3.7-.3l-.4.3v15.1c.4.7,3.9.3,4.1.1ZM103.3,29.8h-3.6c-.3,0-.5.9-.3,1.3l5.7,14.5-1.8,5.4c.3,1.1,3.8.7,4.6,0l6.9-20.6-.4-.5c-.8-.1-3.1-.4-3.6.2-1.3,2.9-1.8,6.8-3.1,9.6-.1.3.1.4-.5.3l-3.7-10.3h0ZM31.6,66h3.8c.2,0,2.2-.7,2.5-.9,3.4-1.7,4.5-6.3,3-9.6-1.2-2.6-4.5-3.3-7.1-3.5-1.2,0-4.7-.2-5.7,0-.7.2-1,.6-1.1,1.3v19.6c.3.7,3.5.6,4.2.2.4-.6-.1-5.4,0-6.6,0-.3.1-.5.4-.6h0ZM52.1,64.1h-3.7c-.3,0-2.1.5-2.5.6-2.7.9-3.8,3.5-2.9,6.2,1.2,3.6,7.3,3.9,9.5,1.1.7-.3.2,1.2.4,1.4,1.1.2,2.2.4,3.2-.2.4-.5.1-11.5-.3-12.7-1-3.2-4.8-3.4-7.7-3.1-2.4.2-6.2,1.5-4,4.5,3.1-1.3,8.5-3.4,8,2.2h0ZM84.2,61.2c.9-3.8-2.5-4.1-5.4-3.8-5.3.5-6.8,6.4-2.2,8.9,1.5.8,4,1,4.4,2.9-1.5,3.3-4.8.7-7.2.4,0,2.5-.4,3.2,2.2,3.9,3.8,1,9,0,9-4.8,0-2-1-3.2-2.7-4.2-1.2-.7-6-1.5-4.2-3.8,1.4-1.7,4.4.4,6,.4h0ZM65.3,68.2l-3.6-10.2c-.5-.5-2.3-.5-3-.4-1.2.2-1.1.7-.9,1.7.8,3.4,3.2,8.4,4.5,11.9.3.9.7,1.7,1.1,2.5l-1.9,5.2c.2,1,4.3,1,4.7-.3,1.7-6.2,4.9-12.6,6.4-18.8.2-.7.6-1.4,0-2-.8-.1-3.1-.4-3.6.2-1.2,3.2-1.9,6.7-3.1,9.9-.1.3,0,.4-.5.3h0ZM101.5,57.8c-1-.2-2-.5-2.9.4v5.2c-5.6-3.5-8.4,2.6-6.9,7.5,1.1,3.4,4.9,3.7,7.2,1.4l.3,1.1h2.2c0,0,0-15.5,0-15.5h0ZM106.8,68.6h6.6c1.1-2.1,0-5.5-2.5-6.1-3.3-.8-6.4.6-6.9,4.2-.7,5.1,1.4,7.5,6.5,7,2-.2,3.7-.6,2.4-2.9-2.4,1.1-6.3,1.4-6.1-2.2h0ZM38.6,80.2h-11.2s-.4.4-.5.5v20c0,1.2,3.5,1.1,4.2.2v-8h6.6c.8,0,.8-3.6,0-3.6h-6.6v-5.4l.4-.4h7.1c.3-1.1.3-2.2,0-3.4h0ZM42.2,85.7v15.6c.8.3,3.5.5,4-.2.6-1-.3-7.6.2-9.4.1-.5,1.4-1.9,1.9-2.2,1.5-.8,2,.2,2.7,0,1-.2.7-3.1.4-3.9-2-1.1-4.4,0-5.3,2h-.5c0-.1-.1-2-.1-2-1-.4-2.2-.3-3.2,0h0ZM62.4,100.1c-.6,2,3.2,1.8,3.6.8-.5-4.3,2-13.6-3.3-15.3-2.8-.9-11.1-.6-9.1,4.2,1.1.3,1.9-.6,2.8-.9,3.1-1,5.8-.9,5.6,3.1-4.5-.1-10.5.4-9.3,6.5.6,2.9,4.3,3.7,6.9,3.1,1.1-.3,1.9-1.1,2.9-1.5h0ZM84,101.3v-11.9c0-.4-1-2.4-1.3-2.7-2.4-2.5-6.9-1.7-8.9.9.2-2.7-1.7-2.3-3.7-1.9v15.6c.9.2,3.5.6,4-.2l.2-9.9c1.4-2.4,5-3.7,5.7,0,.3,1.8-.3,9,.2,9.9s3.1.4,4,.2h0ZM98.8,86.5c-1.4-1.7-5.7-1.4-7.5-.6-5.8,2.5-5.7,15,1.8,15.9,3.5.4,7.4-.7,6.1-5-1.6.2-2.5,1.7-4.4,1.6-4.5-.2-4.5-10.3.7-9.7,2.1.2,4.1,3.5,3.8-.9,0-.4,0-.9-.3-1.2h0ZM105.6,94.6h9.5c1.4,0,.5-4.7.2-5.5-1.5-4.1-7.1-4.8-10.5-2.8-3.7,2.1-4.2,8.5-2.5,12,1.8,3.8,6.8,4,10.5,3.1,2.2-.6,3.2-1.2,2-3.7-1.5.2-3,.9-4.5,1-2.8.1-4.7-1.1-4.7-4.1h0ZM77,108.5c-1.3-.3-1.8.5-2.6,1.3.9,1,2.1-.6,2.6-1.3ZM40.6,117.2v-3.5h-3.1v1l1.6.2v1.6c-3.9,1.2-4.1-5-.8-4.9.8,0,1.5.6,2.3.7.4-2.6-3.9-2.1-5.2-1-1.4,1.3-1.4,4.5,0,5.8,1.2,1.1,3.9,1.2,5.2.1h0ZM48,117.6v-3.8h-2.9v1h1.4v1.9c-3.9,1-4.2-5.2-.6-5,.8,0,1.3.7,2.1.7v-1.4c-2.6-1.1-5.7-.4-6,2.7-.4,4.2,2.5,5,6,4h0ZM55.3,117.3c1.7,1.5,5.4.7,5.9-1.8.7-3.5-1.6-6.4-5.2-4.7-1.9.9-2.1,5.2-.7,6.5h0ZM103.4,110.5c-3.5.6-3.7,6.3-.9,7.3,6.1,2.3,7.2-8.3.9-7.3ZM31.4,110.7h-2.1l-2.2,7.2h1.4s.7-1.6.7-1.6h2.5c0,.1.5,1.6.5,1.6h1.4s-2.2-7.1-2.2-7.1h0ZM51.4,110.6h-1.4v7.2h3.8v-1.2h-2.4v-6ZM62.6,111v6.8h1.4v-5.5l2,5.3c.3.3,1.4.4,1.6,0,.4-.6,1.1-3.5,1.6-4.6.1-.3.1-.7.5-.8v5.5c.7,0,1.3.2,1.4-.6.1-.8,0-6.4-.3-6.6h-2.1l-1.7,4.8c-.6,0-.4,0-.5-.3-.9-2.1-.9-5.9-4.1-4.1h0ZM77.3,110.6h-4.3v6.8l.4.4h4v-1.2h-2.9v-1.9h2.4v-1.1h-2.4v-1.7l2.7-.2.2-1.1h0ZM78.7,111v6.8h1.4v-2.9c1.7-.4,1.9,1.7,2.4,2.8h1.7c-.4-1-.8-2.8-1.7-3.1-.1-.2,2.2-1.5.8-3.3-.7-1-4.5-1-4.7-.4h0ZM89.3,110.7h-2.1l-2.2,7.2c1.4.2,1.5-.5,1.7-1.7h2.9c0,.1.5,1.6.5,1.6h1.4s-2.2-7.1-2.2-7.1ZM96.5,110.6h-5.2l-.4.4.2.7h1.9v6.1h1.4v-6h1.9s0-1.2,0-1.2h0ZM99.1,110.6h-1.4v7.2h1.4v-7.2ZM109,111v6.8l1.4-.4v-4.3c0,0-.8-1,.1-.4,1.1,1.5,2,6.3,4.4,4.7v-6.8h-1.4v4.6l-2.5-4.3c-.4-.4-1.9-.4-2.1.1Z"/>
  <path d="M31.2,33.6v-6h3.7c1.1,0,2.3,1.9,2.3,3,0,3.1-3.6,3.2-6,3Z"/>
  <path d="M31.2,62.6v-6.8c1.6-.9,4.8-.3,5.5,1.7,1.4,3.9-2,5.9-5.5,5.2h0Z"/>
  <path d="M55.1,41.7c-1,1-3,1.2-4.3.5-2.7-1.4-2.7-10.6,2.8-9.5,3.2.6,3.3,7.2,1.5,9Z"/>
  <path d="M59,94.6c.5,0,2.4-.2,2.7,0,2,3.8-5.8,6.2-5,1.7.2-1.2,1.2-1.6,2.3-1.8h0Z"/>
  <path d="M52.1,66.7c.5,2.6-1.3,4.6-4,4.1-1.6-.3-1.8-2.7-.5-3.6,1.2-.8,3-.4,4.4-.5h0Z"/>
  <path d="M111.8,91.9h-6.2c0-5,6.4-5.2,6.2,0Z"/>
  <path d="M95.9,64.9c1-.2,2.5.5,2.7,1.5.3,1.5.2,3.7-1.2,4.5-3.5,2.1-4.2-5.5-1.5-6.1h0Z"/>
  <path d="M111.1,67h-4.3c0-3.5,4.3-3.6,4.3,0Z"/>
  <path d="M102.5,116.1c-1-1.2-.3-5.4,2.3-4.3,1.2.5,1.3,3,.8,4.1-.5,1.1-2.4,1.1-3.1.2h0Z"/>
  <path d="M57.5,111.6c2.6-.5,2.8,4.6.9,5-3.4.7-3.2-4.6-.9-5Z"/>
  <path d="M82,113.5l-1.9.3.2-2.1,1.6.4c.4.4.4.9,0,1.4Z"/>
  <polygon points="31.2 115 29.3 115 30.4 112.3 31.2 115"/>
  <polygon points="89 115 87.1 115 88.2 112.3 89 115"/>
</svg>