<?xml version="1.0" encoding="UTF-8"?>
<svg id="Layer_1" xmlns="http://www.w3.org/2000/svg" version="1.1" viewBox="0 0 530.5 112.16">
  <!-- Generator: Adobe Illustrator 29.2.1, SVG Export Plug-In . SVG Version: 2.1.0 Build 116)  -->
  <defs>
    <style>
      .st0 {
        fill: #0f0f0f;
      }

      .st1 {
        fill: #111;
      }

      .st2 {
        fill: #2c2c2c;
      }

      .st3 {
        fill: #9b9b9b;
      }

      .st4 {
        fill: #0b0b0b;
      }

      .st5 {
        fill: #2d2d2d;
      }

      .st6 {
        fill: #9c9c9c;
      }

      .st7 {
        fill: #090909;
      }
    </style>
  </defs>
  <path class="st3" d="M14.05,59.77v-8c2.54-10.64,18.4-11.78,22.42-1.92,1.24,3.05.98,6.9,2.08,9.92,1.42,3.9,10.22,13.13,13.96,15.04,4.32,2.2,10.05,2.06,14.06,4.94,10.95,7.89.63,27.55-13.2,20.2-6.59-3.5-4.94-9.24-7.08-14.91-1.7-4.49-8.42-11.96-12.53-14.47-7.05-4.31-15.1-2.04-19.69-10.81Z"/>
  <path class="st6" d="M14.05,93.77v-9c5.42-10.35,22.47-10.52,23.05,3.47.64,15.47-15.86,16.75-23.05,5.53Z"/>
  <path class="st6" d="M14.05,24.77v-8c2.66-9.4,19.47-9.89,22.45-.95,5.57,16.66-15.71,23.91-22.45,8.95Z"/>
  <path class="st2" d="M502.05,53.77c11.39-3.55,7.07-16,.5-16h-32.5v-10h35.5c1.82,0,7.85,3.13,9.4,4.6,9.26,8.79,5.12,26.71-6.89,30.89l12.99,22.5c-2.7-.54-9.95.89-11.8-.2-1.69-.99-10.74-18.53-12.2-21.79h-17v22h-10v-27.5c0-1.43,3.42-4.21,5-4.5,8.96.83,17.96.83,27,0Z"/>
  <path class="st5" d="M347.05,28.77c-.83,7.69-.83,15.36,0,23,9.43,1.21,19.55,1.06,29,0,.83-7.64.83-15.31,0-23,.69-2.1,8.8-.54,11.01-1.01-1.03,6.42,1.74,57.07-1.01,58.01l-9.37-.51c.1-7.83-.11-15.65-.63-23.49-9.43-1.21-19.55-1.07-29,0-.59,7.79-.76,15.62-.51,23.5l-9.49.5c-2.75-.94.02-51.58-1.01-58.01,2.2.47,10.32-1.1,11.01,1.01Z"/>
  <path class="st2" d="M156.93,75.62c2.16-1.31,15.39-41.5,18.62-46.86,1.76-2.12,8.62-.53,11.5-.99-5.69,18.22-13.7,35.92-20.78,53.71-4.83,7.64-18.53,7.3-23.07-.36l-20.15-53.34c2.84.46,10.99-1.12,12.52.97l16.64,45.36c.44,1.72,3.43,2.3,4.71,1.52Z"/>
  <path class="st3" d="M54.76,9.98c5.57-1.27,12.4-.1,15.07,5.51,3.45,7.26.95,10.63,8.2,18.8s10.47,6.19,19.22,9.78c15.13,6.2,3.87,31.24-11.15,21.15-5.85-3.93-4.4-10.46-7.62-16.38-2.23-4.1-11.06-13.16-15.41-14.59-3.15-1.03-6.24-.48-9.72-2.28-8.52-4.43-7.54-19.94,1.41-21.98Z"/>
  <path class="st5" d="M300.05,38.77c-2.36-2.38-13.18-.32-17.01-.99v-10.01h44.01v10h-16c-.66,5.43,1.27,47.23-1,48l-9.36-.51c.07-15.47-.15-30.97-.64-46.49Z"/>
  <path class="st2" d="M206.05,28.77c-.51,18.2-.84,36.87-1,56-1.34,1.03-8,.73-8.51-.11l-.49-55.89c.54-1.62,9.46-1.64,10,0Z"/>
  <path class="st6" d="M54.76,43.98c22.29-5.11,21.28,27.99.03,22.54-9.62-2.47-9.99-20.26-.03-22.54Z"/>
  <path class="st6" d="M88.76,77.98c11.68-2.67,18.27,5.64,14.84,16.84-1.91,6.25-10.13,6.9-15.58,5.47-10.11-2.65-9.09-20.06.73-22.31Z"/>
  <path class="st6" d="M87.76,9.98c20.71-4.73,21.67,21.97,5.75,22.82s-15.17-20.67-5.75-22.82Z"/>
  <path class="st1" d="M196.05,28.77l.99,56.01h8.01s0,.99,0,.99c-1.91.65-6.61-.46-9.01,0V28.77Z"/>
  <path class="st0" d="M205.05,85.77v-1c.17-16.82-.23-33.68-.02-50.51.02-1.69-.64-4.45,1.02-5.49-.98,6.32,1.7,56.08-1,57Z"/>
  <path class="st4" d="M300.05,38.77c3.09,3.11-.62,44.37,1,46.01.66.67,7.63-1.24,9,.99-2.1.72-7.38-.51-10.01,0v-47.01Z"/>
  <path class="st1" d="M347.05,61.77v24.01c-2.62-.52-7.9.71-10,0,1.38-2.24,8.34-.32,9-.99,1.04-1.05-1.61-20.4,1-23.01Z"/>
  <path class="st4" d="M376.05,61.77c2.61,2.61-.05,21.95,1,23.01.66.67,7.62-1.24,9,.99-2.1.72-7.38-.51-10.01,0v-24.01Z"/>
  <path class="st1" d="M376.05,51.77c-1.33,1.33-1.78.93-3.41,1.06-5.85.46-17.5.62-23.19,0-1.4-.15-1.42-.08-2.4-1.05h29Z"/>
  <path class="st0" d="M376.05,61.77h-29c1.33-1.33,1.78-.93,3.41-1.06,5.8-.47,17.56-.62,23.19,0,1.4.16,1.42.08,2.4,1.05Z"/>
  <path class="st7" d="M502.05,53.77c-5.93,1.85-14.96,1.09-21.51,1.02-1.69-.02-4.45.64-5.49-1.02,7.53-1.41,18.98,1.04,27,0Z"/>
  <path class="st0" d="M347.05,51.77c-1.85-1.85-1.45-19.48,0-23,1.02,3.14-.91,22.09,0,23Z"/>
  <path class="st4" d="M376.05,51.77c.91-.91-1.02-19.86,0-23,1.45,3.52,1.85,21.15,0,23Z"/>
  <path class="st2" d="M271.49,34.83c-8.31-9.32-34.84-9.53-44.37-2.5-13.98,10.32-13.24,44.1,3.69,51.18,8.73,3.65,17.88.45,23.59,2.41,2.56.88,3.93,8.54,5.33,8.88,2.68.64,7.32-.52,10.33-.05l-5-11.98c16.23-5.45,16.23-36.97,6.44-47.95ZM260.07,73.77c-3.86-8.83-3.64-12.8-15.01-10.99-1.24,1.21,4.34,10.05,5,11.99-6.46-.08-14.46,1.43-19.02-4.47-4.47-5.79-4.13-23.3,1.5-28.54,6.4-5.95,25.84-5.63,31.54,1.5,5.08,6.36,4.92,26.39-4.01,30.52Z"/>
  <path class="st5" d="M458.04,50.28c-2.11-21.25-20.03-24.41-38.21-22.23-29.94,3.59-29.54,54.78-.27,57.71,27.66,2.77,41.38-6.3,38.48-35.48ZM439.8,74.01c-3.09,1.25-18.4,1.25-22.01.52-12.57-2.54-14.8-33.56,4.01-36.53,5.71-.9,14.88-.56,19.77,2.75,9.25,6.26,8.82,28.96-1.77,33.26Z"/>
</svg>