<?xml version="1.0" encoding="utf-8"?>
<!-- Generator: Adobe Illustrator 29.2.1, SVG Export Plug-In . SVG Version: 9.03 Build 55982)  -->
<svg version="1.1" id="Layer_1" xmlns="http://www.w3.org/2000/svg" xmlns:xlink="http://www.w3.org/1999/xlink" x="0px" y="0px"
	 viewBox="0 0 299.1 546.13" style="enable-background:new 0 0 299.1 546.13;" xml:space="preserve">
<style type="text/css">
	.st0{fill:#422D56;}
	.st1{fill:#EDF78D;}
</style>
<path class="st0" d="M290.93,546.13H8.17c-4.51,0-8.17-3.66-8.17-8.17V8.17C0,3.66,3.66,0,8.17,0h282.76c4.51,0,8.17,3.66,8.17,8.17
	v529.79C299.1,542.47,295.44,546.13,290.93,546.13z"/>
<path class="st1" d="M108.34,259.89c4.9,2.8,8.9,6.65,11.99,11.55c3.09,4.9,4.64,10.39,4.64,16.45v7.35c0,4.44-0.85,8.61-2.54,12.51
	c-1.69,3.91-4,7.32-6.91,10.24c-2.92,2.92-6.33,5.22-10.24,6.91c-3.91,1.69-8.08,2.54-12.51,2.54H49.31c-0.75,0-1.35-0.6-1.35-1.35
	v-22.68c0-0.75,0.6-1.35,1.35-1.35h10.55h4.73h21.53c2.68,0,4.93-0.9,6.74-2.7c1.81-1.8,2.71-4.03,2.71-6.7v-8.87
	c0-2.66-0.91-4.9-2.71-6.69c-1.81-1.8-4.06-2.7-6.74-2.7H72.99h-1.75h-6.7c-0.75,0-1.35-0.6-1.35-1.35v-1.8v-15.58v-1.97
	c0-0.75,0.6-1.35,1.35-1.35h6.7h1.75h4.38c2.68,0,4.93-0.9,6.74-2.7c1.81-1.8,2.71-4.03,2.71-6.69v-8.87c0-2.66-0.91-4.9-2.71-6.69
	c-1.81-1.8-4.06-2.7-6.74-2.7H64.58h-4.73H49.31c-0.75,0-1.35-0.6-1.35-1.35v-22.68c0-0.75,0.6-1.35,1.35-1.35h34.7
	c4.42,0,8.6,0.85,12.54,2.54c3.94,1.69,7.36,4,10.26,6.91c2.9,2.92,5.19,6.36,6.87,10.33c1.68,3.97,2.52,8.17,2.52,12.6v7.18
	c0,4.09-0.7,7.91-2.1,11.46C112.72,253.91,110.79,257.09,108.34,259.89z"/>
<path class="st1" d="M227.13,323.52c0,2.26-1.84,4.1-4.1,4.1h-7.1h-46.91c-5.14,0-10.01-0.96-14.62-2.89
	c-4.61-1.93-8.66-4.55-12.16-7.88c-3.5-3.33-6.3-7.2-8.4-11.64c-2.07-4.38-3.3-9.1-3.66-14.17c-0.01-0.12-0.01-0.25-0.01-0.37
	v-21.52c0-5.37,1.02-10.41,3.06-15.14c2.04-4.73,4.81-8.84,8.31-12.34c3.5-3.5,7.61-6.27,12.34-8.31c4.73-2.04,9.77-3.06,15.14-3.06
	h28.18v-33.18c0-2.26,1.84-4.1,4.1-4.1h21.73c2.26,0,4.1,1.84,4.1,4.1V323.52z M155.72,288.67c0,1.76,0.35,3.47,1.05,5.11
	c0.7,1.65,1.66,3.09,2.89,4.32c1.22,1.24,2.65,2.23,4.29,3c1.63,0.77,3.33,1.15,5.08,1.15h24.08c2.26,0,4.1-1.84,4.1-4.1v-38.36
	c0-2.26-1.84-4.1-4.1-4.1h-24.08c-1.75,0-3.44,0.38-5.08,1.15c-1.64,0.77-3.06,1.76-4.29,3c-1.23,1.24-2.19,2.65-2.89,4.23
	c-0.7,1.59-1.05,3.26-1.05,5.03V288.67z"/>
<path class="st1" d="M258.66,301.88h-10.41c-4.62,0-8.36,3.74-8.36,8.36v9.36c0,4.62,3.74,8.36,8.36,8.36h10.41
	c4.62,0,8.36-3.74,8.36-8.36v-9.36C267.02,305.63,263.27,301.88,258.66,301.88z"/>
</svg>
