<?xml version="1.0" encoding="utf-8"?>
<!-- Generator: Adobe Illustrator 29.2.1, SVG Export Plug-In . SVG Version: 9.03 Build 55982)  -->
<svg version="1.1" id="Layer_1" xmlns="http://www.w3.org/2000/svg" xmlns:xlink="http://www.w3.org/1999/xlink" x="0px" y="0px"
	 viewBox="0 0 527.1 424" style="enable-background:new 0 0 527.1 424;" xml:space="preserve">
<style type="text/css">
	.st0{fill:#D66782;}
	.st1{fill:#D11960;}
</style>
<path class="st0" d="M518.93,424H8.17C3.66,424,0,420.34,0,415.83V8.17C0,3.66,3.66,0,8.17,0h510.76c4.51,0,8.17,3.66,8.17,8.17
	v407.66C527.1,420.34,523.44,424,518.93,424z"/>
<path class="st1" d="M224.56,348.6l-6.3-23.99H117.03l-6.3,23.99c-1.2,4.58-5.34,7.77-10.08,7.77H52.8
	c-6.86,0-11.84-6.51-10.06-13.13l72.6-269.38c1.23-4.55,5.35-7.71,10.06-7.71h84.48c4.71,0,8.83,3.16,10.06,7.71l72.6,269.38
	c1.78,6.62-3.2,13.13-10.06,13.13h-47.85C229.9,356.37,225.76,353.18,224.56,348.6z M132.51,267.84h70.27l-35.34-131.01
	L132.51,267.84z"/>
<path class="st1" d="M374.32,176.13h36.64c4.32,0,7.83,3.51,7.83,7.83v42.7c0,4.32-3.51,7.83-7.83,7.83h-36.64v114.45
	c0,4.32-3.51,7.83-7.83,7.83h-51.83c-4.32,0-7.83-3.51-7.83-7.83V130.87h0.4c0.53-11.64,3.04-22.56,7.55-32.75
	c4.5-10.18,10.85-19.06,19.06-26.6c8.2-7.54,18.26-13.5,30.17-17.86c11.91-4.37,25.41-6.55,40.5-6.55l30.52-0.63
	c4.39-0.09,7.99,3.44,7.99,7.83v42.7c0,4.26-3.41,7.74-7.67,7.83l-30.84,0.64c-3.97,0-7.81,0.86-11.51,2.58
	c-3.71,1.72-6.95,3.97-9.73,6.75c-2.78,2.78-4.96,5.95-6.55,9.53c-1.59,3.57-2.38,7.34-2.38,11.31V176.13z"/>
<path class="st1" d="M482.44,298.39h-44.81c-4.62,0-8.36,3.74-8.36,8.36v42.44c0,4.62,3.74,8.36,8.36,8.36h44.81
	c4.62,0,8.36-3.74,8.36-8.36v-42.44C490.79,302.13,487.05,298.39,482.44,298.39z"/>
</svg>
