<?xml version="1.0" encoding="utf-8"?>
<!-- Generator: Adobe Illustrator 29.2.1, SVG Export Plug-In . SVG Version: 9.03 Build 55982)  -->
<svg version="1.1" id="Layer_1" xmlns="http://www.w3.org/2000/svg" xmlns:xlink="http://www.w3.org/1999/xlink" x="0px" y="0px"
	 viewBox="0 0 900.53 205.21" style="enable-background:new 0 0 900.53 205.21;" xml:space="preserve">
<style type="text/css">
	.st0{fill:#4BA69D;}
	.st1{fill:#D5FCF9;}
</style>
<path class="st0" d="M887.49,205.21H13.04c-7.2,0-13.04-5.84-13.04-13.04V13.04C0,5.84,5.84,0,13.04,0h874.44
	c7.2,0,13.04,5.84,13.04,13.04v179.12C900.53,199.37,894.69,205.21,887.49,205.21z"/>
<path class="st1" d="M406.78,89.4H447c1.93,0,3.49,1.5,3.49,3.36v12.79v8.59v5.46c0,5.23-0.95,10.12-2.84,14.67
	c-1.89,4.55-4.64,8.53-8.25,11.94c-3.61,3.41-8.11,6.12-13.49,8.1c-5.39,1.99-11.57,2.99-18.54,2.99h-4.08
	c-6.98,0-13.16-1-18.54-2.99c-5.38-1.99-9.91-4.69-13.58-8.1c-3.67-3.41-6.45-7.39-8.34-11.94c-1.89-4.55-2.84-9.44-2.84-14.67
	V64.31h0.18c0.24-4.89,1.36-9.5,3.37-13.82c2.01-4.32,4.82-8.1,8.43-11.35c3.61-3.24,8.04-5.77,13.31-7.59
	c5.26-1.82,11.27-2.73,18.01-2.73h4.08c6.98,0,13.16,0.97,18.54,2.9c5.38,1.94,9.88,4.61,13.49,8.02c3.61,3.41,6.36,7.4,8.25,11.94
	c1.44,3.47,2.34,7.14,2.68,11.01c0.17,1.97-1.43,3.66-3.48,3.66h-23.05c-1.63,0-3.06-1.08-3.4-2.62c-0.52-2.34-1.76-4.46-3.71-6.34
	c-2.66-2.56-5.77-3.84-9.32-3.84h-4.08c-3.55,0-6.69,1.28-9.41,3.84c-2.72,2.56-4.08,5.55-4.08,8.96v53.23
	c0,3.41,1.36,6.43,4.08,9.04c2.72,2.62,5.86,3.92,9.41,3.92h4.08c3.55,0,6.65-1.31,9.32-3.92c2.66-2.62,3.99-5.63,3.99-9.04v-2.1
	c0-1.85-1.56-3.36-3.49-3.36h-10.41c-1.93,0-3.49-1.5-3.49-3.36V92.75C403.29,90.9,404.85,89.4,406.78,89.4z"/>
<path class="st1" d="M507.82,60.48c2.96-1.19,6.33-1.79,10.12-1.79h7.87c0.94,0,1.71,0.74,1.71,1.64v21.45
	c0,0.91-0.77,1.64-1.71,1.64h-7.87c-5.68,0-10.09,1.37-13.22,4.11c-3.14,2.73-4.7,7.01-4.7,12.83v53.08c0,0.91-0.77,1.64-1.71,1.64
	h-26.75c-0.94,0-1.71-0.74-1.71-1.64V61.86c0-0.91,0.77-1.64,1.71-1.64h26.75c0.94,0,1.71,0.74,1.71,1.64v3.47
	C502.25,63.29,504.86,61.67,507.82,60.48z"/>
<path class="st1" d="M552.68,128.76h-10.01c-4.62,0-8.36,3.74-8.36,8.36v8.98c0,4.62,3.74,8.36,8.36,8.36h10.01
	c4.62,0,8.36-3.74,8.36-8.36v-8.98C561.04,132.51,557.3,128.76,552.68,128.76z"/>
</svg>
