<?xml version="1.0" encoding="utf-8"?>
<!-- Generator: Adobe Illustrator 29.2.1, SVG Export Plug-In . SVG Version: 9.03 Build 55982)  -->
<svg version="1.1" id="Layer_1" xmlns="http://www.w3.org/2000/svg" xmlns:xlink="http://www.w3.org/1999/xlink" x="0px" y="0px"
	 viewBox="0 0 431 226.27" style="enable-background:new 0 0 431 226.27;" xml:space="preserve">
<style type="text/css">
	.st0{fill:#F9F0E8;}
	.st1{fill:#D9BAE5;}
</style>
<path class="st0" d="M422.83,226.27H8.17c-4.51,0-8.17-3.66-8.17-8.17V8.17C0,3.66,3.66,0,8.17,0h414.66c4.51,0,8.17,3.66,8.17,8.17
	v209.94C431,222.62,427.34,226.27,422.83,226.27z"/>
<path class="st1" d="M196.57,45.64v126.43c0,3.32-2.69,6.02-6.02,6.02h-19.76c-3.32,0-6.01-2.68-6.02-6l-0.12-35.43l-12.94,37.38
	c-0.84,2.42-3.12,4.05-5.69,4.05h-15.41c-2.56,0-4.83-1.62-5.68-4.03l-13.3-37.97v35.98c0,3.32-2.69,6.02-6.02,6.02H85.88
	c-3.32,0-6.02-2.69-6.02-6.02V45.64c0-3.32,2.69-6.02,6.02-6.02h21.35c2.63,0,4.95,1.7,5.74,4.21l19.66,62.24
	c1.77,5.62,9.73,5.6,11.49-0.02l19.37-62.19c0.78-2.52,3.11-4.23,5.75-4.23h21.33C193.87,39.62,196.57,42.31,196.57,45.64z"/>
<path class="st1" d="M275.83,74.24c7.44,0,14.04,1.01,19.81,3.03c5.76,2.02,10.58,4.79,14.45,8.32c3.87,3.53,6.82,7.73,8.85,12.58
	c2.03,4.86,3.04,10.19,3.04,15.98l0.19,63.31c0,0.35-0.28,0.63-0.62,0.63h-30.72c-0.35,0-0.62-0.28-0.62-0.62v-4.71
	c0-0.56-0.69-0.85-1.07-0.43c-1,1.11-2.35,2.15-4.04,3.13c-2.15,1.13-5.11,2.17-8.89,3.12c-3.78,0.94-8.89,1.42-15.32,1.42
	c-5.8,0-11.29,0.03-16.46,0.09c-5.17,0.06-9.68-0.63-13.52-2.08c-3.85-1.45-6.9-4-9.17-7.66c-2.27-3.66-3.41-9.2-3.41-16.65v-5.86
	v-0.19v-2.27h0.19c0.12-6.81,1.26-12.26,3.41-16.36c2.14-4.1,5.04-7.19,8.7-9.27c3.66-2.08,7.97-3.43,12.96-4.07
	c4.98-0.63,10.43-0.95,16.36-0.95v0.19h29.64c0.35,0,0.62-0.28,0.62-0.62l0,0c0-1.81-0.34-3.61-1.1-5.25
	c-0.84-1.81-1.95-3.42-3.35-4.81c-1.32-1.32-2.84-2.39-4.54-3.22c-1.7-0.82-3.5-1.23-5.39-1.23l-47-0.17
	c-3.2-0.01-5.78-2.6-5.78-5.8v-13.8c0-3.19,2.58-5.77,5.77-5.77H275.83z M290.2,144.98v-4.1c0-0.35-0.28-0.62-0.62-0.62h-25.29
	h-7.76c-1.77,0-3.28,0.63-4.54,1.89c-1.26,1.26-1.89,2.78-1.89,4.54v0.76v0.76c0,1.77,0.63,3.28,1.89,4.54
	c1.26,1.26,2.77,1.89,4.54,1.89h7.76h17.4c1.49,0,2.86-0.31,4.11-0.92c0.03-0.02,0.06-0.03,0.1-0.05c0.99-0.63,1.95-1.5,2.89-2.62
	c0.95-1.13,1.42-2.9,1.42-5.3V144.98z"/>
<path class="st1" d="M364.38,150.82h-17.48c-3.27,0-5.92,2.65-5.92,5.92v16.35c0,3.27,2.65,5.92,5.92,5.92h17.48
	c3.27,0,5.92-2.65,5.92-5.92v-16.35C370.29,153.47,367.64,150.82,364.38,150.82z"/>
</svg>
