<?xml version="1.0" encoding="utf-8"?>
<!-- Generator: Adobe Illustrator 29.2.1, SVG Export Plug-In . SVG Version: 9.03 Build 55982)  -->
<svg version="1.1" id="Layer_1" xmlns="http://www.w3.org/2000/svg" xmlns:xlink="http://www.w3.org/1999/xlink" x="0px" y="0px"
	 viewBox="0 0 499.21 208.28" style="enable-background:new 0 0 499.21 208.28;" xml:space="preserve">
<style type="text/css">
	.st0{fill:#723720;}
	.st1{fill:#C9A387;}
</style>
<path class="st0" d="M491.04,208.28H8.17c-4.51,0-8.17-3.66-8.17-8.17V8.17C0,3.66,3.66,0,8.17,0h482.88c4.51,0,8.17,3.66,8.17,8.17
	v191.94C499.21,204.62,495.56,208.28,491.04,208.28z"/>
<path class="st1" d="M200.79,89.11c4.82,2.09,9.06,4.94,12.71,8.53c3.66,3.6,6.53,7.81,8.62,12.62c2.09,4.82,3.13,10.01,3.13,15.58
	c0,5.46-1.04,10.62-3.13,15.5c-2.09,4.88-4.96,9.11-8.62,12.71c-3.66,3.6-7.89,6.44-12.71,8.53c-4.82,2.09-10.01,3.13-15.58,3.13
	h-8.88c-5.57,0-10.77-1.04-15.58-3.13c-4.82-2.09-9.03-4.93-12.62-8.53c-3.6-3.6-6.44-7.84-8.53-12.71
	c-1.44-3.35-2.38-6.84-2.83-10.46c-0.33-2.68,1.81-5.03,4.51-5.03l16.81,0c2.59,0,5.01,1.59,5.78,4.07c0.6,1.91,1.65,3.63,3.14,5.16
	c2.5,2.55,5.6,3.83,9.32,3.83h8.88c3.4,0,6.32-1.07,8.75-3.22c3.31-2.92,4.93-7.4,4.36-11.78c-0.37-2.88-1.61-5.37-3.71-7.47
	c-2.55-2.55-5.69-3.83-9.4-3.83h-8.88c-5.57,0-10.77-0.96-15.58-2.87c-4.82-1.92-9.03-4.55-12.62-7.92
	c-3.6-3.37-6.44-7.37-8.53-12.01c-2.09-4.64-3.13-9.75-3.13-15.32c0-5.45,1.04-10.62,3.13-15.5s4.93-9.11,8.53-12.71
	c3.6-3.6,7.81-6.44,12.62-8.53c4.82-2.09,10.01-3.13,15.58-3.13h8.88c5.57,0,10.77,1.04,15.58,3.13c4.82,2.09,9.06,4.93,12.71,8.53
	c3.66,3.6,6.53,7.84,8.62,12.71c1.29,3.02,2.19,6.15,2.68,9.39c0.49,3.21-1.99,6.11-5.24,6.11l-17,0c-2.14,0-4.02-1.42-4.57-3.49
	c-0.57-2.14-1.7-4.05-3.39-5.74c-2.55-2.55-5.69-3.83-9.4-3.83h-8.88c-3.72,0-6.82,1.28-9.32,3.83c-2.5,2.55-3.74,5.63-3.74,9.23
	c0,3.72,1.25,6.56,3.74,8.53c2.5,1.97,5.6,2.96,9.32,2.96h8.88C190.78,85.97,195.97,87.02,200.79,89.11z"/>
<path class="st1" d="M275.44,91.64c-1.63,0.76-3.06,1.75-4.29,2.97c-1.22,1.22-2.19,2.62-2.89,4.19c-0.7,1.57-1.05,3.23-1.05,4.98
	v22.89c0,3.5,1.34,6.58,4.02,9.26c2.68,2.68,5.77,4.02,9.27,4.02h10.84c1.75,0,3.41-0.35,4.99-1.04c1.57-0.7,2.97-1.65,4.2-2.87
	c1.22-1.22,2.21-2.64,2.97-4.27c0.51-1.1,0.85-2.23,1.02-3.39c0.13-0.94,0.9-1.66,1.85-1.66h25.95c1.07,0,1.91,0.91,1.87,1.98
	c-0.2,4.61-1.12,8.97-2.74,13.08c-1.86,4.7-4.61,8.82-8.27,12.36c-3.66,3.54-8.13,6.33-13.41,8.36c-5.28,2.03-11.4,3.05-18.37,3.05
	h-10.8c-6.97,0-13.09-1.02-18.37-3.05c-5.28-2.03-9.75-4.82-13.41-8.36c-3.66-3.54-6.42-7.66-8.27-12.36
	c-1.86-4.7-2.79-9.72-2.79-15.06v-24.9h0.17c0.23-5.11,1.33-9.86,3.31-14.28c1.97-4.41,4.76-8.27,8.36-11.58
	c3.6-3.31,8.01-5.92,13.23-7.84c5.22-1.92,11.14-2.87,17.76-2.87h10.8c6.97,0,13.09,1.02,18.37,3.05c5.28,2.03,9.75,4.79,13.41,8.27
	c3.66,3.48,6.41,7.57,8.27,12.28c1.62,4.12,2.54,8.48,2.74,13.08c0.05,1.07-0.79,1.98-1.87,1.98h-25.95c-0.95,0-1.72-0.72-1.85-1.66
	c-0.17-1.16-0.51-2.28-1.02-3.37c-0.76-1.59-1.75-3-2.97-4.23c-0.25-0.26-0.52-0.5-0.79-0.74c-2.61-2.29-6.05-3.41-9.52-3.41
	l-9.72,0C278.76,90.5,277.07,90.88,275.44,91.64z"/>
<path class="st1" d="M366.92,138.78h-15.15c-3.27,0-5.92,2.65-5.92,5.92v14.11c0,3.27,2.65,5.92,5.92,5.92h15.15
	c3.27,0,5.92-2.65,5.92-5.92V144.7C372.83,141.43,370.19,138.78,366.92,138.78z"/>
</svg>
