<?xml version="1.0" encoding="utf-8"?>
<!-- Generator: Adobe Illustrator 29.2.1, SVG Export Plug-In . SVG Version: 9.03 Build 55982)  -->
<svg version="1.1" id="Layer_1" xmlns="http://www.w3.org/2000/svg" xmlns:xlink="http://www.w3.org/1999/xlink" x="0px" y="0px"
	 viewBox="0 0 548.14 353.33" style="enable-background:new 0 0 548.14 353.33;" xml:space="preserve">
<style type="text/css">
	.st0{fill:#2A4231;}
	.st1{fill:#D37118;}
</style>
<path class="st0" d="M539.97,353.33H8.17c-4.51,0-8.17-3.66-8.17-8.17V8.17C0,3.66,3.66,0,8.17,0h531.81c4.51,0,8.17,3.66,8.17,8.17
	v336.99C548.14,349.67,544.48,353.33,539.97,353.33z"/>
<path class="st1" d="M201.62,159.33c9.15,3.97,17.2,9.38,24.15,16.21c6.95,6.84,12.41,14.84,16.38,23.99
	c3.97,9.15,5.95,19.02,5.95,29.61c0,10.37-1.98,20.18-5.95,29.44c-3.97,9.27-9.43,17.32-16.38,24.15
	c-6.95,6.84-15,12.24-24.15,16.21c-9.15,3.97-19.02,5.95-29.61,5.95h-16.87c-10.59,0-20.46-1.98-29.61-5.95
	c-9.15-3.97-17.15-9.37-23.99-16.21c-6.84-6.83-12.24-14.89-16.21-24.15c-3.01-7.02-4.88-14.36-5.61-22.02
	c-0.38-3.96,2.68-7.42,6.66-7.42l32.8,0c5.7,0,10.7,3.62,12.7,8.96c1.18,3.14,3.03,6,5.55,8.58c4.74,4.85,10.64,7.28,17.7,7.28
	h16.87c6.47,0,12.01-2.04,16.63-6.11c6.29-5.55,9.37-14.07,8.28-22.39c-0.71-5.47-3.06-10.19-7.04-14.18
	c-4.85-4.85-10.81-7.28-17.86-7.28h-16.87c-10.59,0-20.46-1.82-29.61-5.46c-9.15-3.64-17.15-8.65-23.99-15.05
	c-6.84-6.4-12.24-14.01-16.21-22.83c-3.97-8.82-5.96-18.53-5.96-29.11c0-10.36,1.99-20.18,5.96-29.44
	c3.97-9.26,9.37-17.31,16.21-24.15c6.83-6.83,14.83-12.24,23.99-16.21c9.15-3.97,19.02-5.95,29.61-5.95h16.87
	c10.59,0,20.45,1.99,29.61,5.95c9.15,3.97,17.2,9.38,24.15,16.21c6.95,6.84,12.41,14.89,16.38,24.15
	c2.75,6.41,4.54,13.09,5.39,20.02c0.61,5.02-3.4,9.42-8.45,9.42h-33.82c-4.22,0-7.88-2.83-9.02-6.89
	c-1.11-3.96-3.23-7.51-6.37-10.65c-4.85-4.85-10.81-7.28-17.86-7.28h-16.87c-7.06,0-12.96,2.43-17.7,7.28
	c-4.75,4.85-7.11,10.7-7.11,17.53c0,7.06,2.37,12.46,7.11,16.21c4.74,3.75,10.64,5.63,17.7,5.63h16.87
	C182.6,153.38,192.47,155.36,201.62,159.33z"/>
<path class="st1" d="M382.87,186.23l49.69,108.28c1.31,2.85-0.77,6.1-3.91,6.1h-46.78c-1.68,0-3.2-0.98-3.91-2.5l-29.02-62.97
	c-1.34-2.91-5.27-3.39-7.27-0.89v0c-0.61,0.76-0.94,1.71-0.94,2.69v59.7c0,2.38-1.93,4.3-4.3,4.3h-47.97c-2.38,0-4.3-1.93-4.3-4.3
	V50.49c0-2.38,1.93-4.3,4.3-4.3h47.97c2.38,0,4.3,1.93,4.3,4.3v101.86c0,4.07,5.12,5.86,7.66,2.68l29.09-36.43
	c0.82-1.02,2.05-1.62,3.36-1.62h45.54c3.61,0,5.61,4.18,3.36,6.99l-46.33,57.76C382.41,183.01,382.2,184.75,382.87,186.23z"/>
<path class="st1" d="M502.95,252.17h-34.56c-4.62,0-8.36,3.74-8.36,8.36v32.58c0,4.62,3.74,8.36,8.36,8.36h34.56
	c4.62,0,8.36-3.74,8.36-8.36v-32.58C511.3,255.91,507.56,252.17,502.95,252.17z"/>
</svg>
